<svg xmlns="http://www.w3.org/2000/svg" width="147.016" height="53.566" viewBox="0 0 147.016 53.566">
  <g id="Get_it_on_Google_play" transform="translate(0)">
    <path id="path14" d="M141.571,53.566H5.445C2.452,53.566,0,50.552,0,46.871V6.7C0,3.015,2.452,0,5.445,0H141.571c2.993,0,5.445,3.015,5.445,6.7V46.871C147.017,50.552,144.565,53.566,141.571,53.566Z" transform="translate(0 0)" fill="#fff"/>
    <g id="Group_10754" data-name="Group 10754" transform="translate(17.162 12.933)">
      <g id="Group_668" data-name="Group 668" transform="translate(0 0)">
        <g id="_Group_2" data-name=" Group 2">
          <g id="_Group_3" data-name=" Group 3">
            <path id="_Path_" data-name=" Path " d="M26.652,21.106a5.577,5.577,0,0,1,2.656-4.68,5.709,5.709,0,0,0-4.5-2.433c-1.893-.2-3.728,1.133-4.693,1.133-.983,0-2.468-1.114-4.067-1.08a5.992,5.992,0,0,0-5.042,3.074c-2.18,3.775-.553,9.322,1.534,12.374,1.045,1.494,2.266,3.162,3.864,3.1,1.563-.065,2.147-1,4.034-1,1.87,0,2.418,1,4.048.959,1.678-.027,2.735-1.5,3.744-3.009a12.354,12.354,0,0,0,1.711-3.485A5.39,5.39,0,0,1,26.652,21.106Z" transform="translate(-9.972 -8.051)" fill="#3d2a2b"/>
            <path id="_Path_2" data-name=" Path 2" d="M22.45,12.655A5.491,5.491,0,0,0,23.707,8.72a5.589,5.589,0,0,0-3.616,1.871A5.23,5.23,0,0,0,18.8,14.38,4.62,4.62,0,0,0,22.45,12.655Z" transform="translate(-8.85 -8.72)" fill="#3d2a2b"/>
          </g>
        </g>
        <g id="Group_665" data-name="Group 665" transform="translate(31.015 11.162)">
          <path id="Path_6887" data-name="Path 6887" d="M42.9,27.832H37.809l-1.224,3.612H34.427l4.826-13.366H41.5l4.825,13.366H44.126Zm-4.567-1.667h4.039L40.384,20.3h-.055Z" transform="translate(-34.427 -17.855)" fill="#3d2a2b"/>
          <path id="Path_6888" data-name="Path 6888" d="M55.811,26.323c0,3.028-1.621,4.974-4.068,4.974a3.3,3.3,0,0,1-3.065-1.7h-.046v4.826h-2V21.449h1.936V23.07H48.6a3.457,3.457,0,0,1,3.1-1.722C54.181,21.348,55.811,23.3,55.811,26.323Zm-2.056,0c0-1.973-1.02-3.27-2.576-3.27-1.528,0-2.556,1.324-2.556,3.27,0,1.963,1.028,3.279,2.556,3.279C52.735,29.6,53.755,28.313,53.755,26.323Z" transform="translate(-33.495 -17.606)" fill="#3d2a2b"/>
          <path id="Path_6889" data-name="Path 6889" d="M65.776,26.323c0,3.028-1.621,4.974-4.068,4.974a3.3,3.3,0,0,1-3.065-1.7H58.6v4.826h-2V21.449h1.936V23.07h.037a3.457,3.457,0,0,1,3.1-1.722C64.146,21.348,65.776,23.3,65.776,26.323Zm-2.057,0c0-1.973-1.019-3.27-2.575-3.27-1.528,0-2.556,1.324-2.556,3.27,0,1.963,1.028,3.279,2.556,3.279,1.555,0,2.575-1.288,2.575-3.279Z" transform="translate(-32.734 -17.606)" fill="#3d2a2b"/>
          <path id="Path_6890" data-name="Path 6890" d="M71.855,27.736c.149,1.326,1.436,2.2,3.2,2.2,1.687,0,2.9-.87,2.9-2.066,0-1.038-.732-1.659-2.464-2.084l-1.733-.418c-2.454-.593-3.594-1.74-3.594-3.6,0-2.306,2.01-3.89,4.864-3.89,2.824,0,4.761,1.584,4.825,3.89H77.83c-.121-1.334-1.223-2.139-2.835-2.139s-2.713.815-2.713,2c0,.945.7,1.5,2.427,1.927l1.472.362c2.743.649,3.881,1.75,3.881,3.706,0,2.5-1.991,4.067-5.159,4.067-2.964,0-4.966-1.53-5.1-3.947Z" transform="translate(-31.725 -17.871)" fill="#3d2a2b"/>
          <path id="Path_6891" data-name="Path 6891" d="M83.589,19.3v2.306h1.853V23.19H83.589v5.372c0,.835.371,1.224,1.186,1.224a6.409,6.409,0,0,0,.658-.046v1.575a5.569,5.569,0,0,1-1.111.093c-1.973,0-2.743-.742-2.743-2.632V23.19H80.163V21.606h1.416V19.3Z" transform="translate(-30.935 -17.762)" fill="#3d2a2b"/>
          <path id="Path_6892" data-name="Path 6892" d="M86.065,26.324c0-3.067,1.806-4.993,4.622-4.993s4.623,1.927,4.623,4.993-1.788,4.992-4.623,4.992S86.065,29.4,86.065,26.324Zm7.206,0c0-2.1-.963-3.345-2.584-3.345S88.1,24.23,88.1,26.324c0,2.112.962,3.343,2.583,3.343s2.584-1.231,2.584-3.343Z" transform="translate(-30.484 -17.607)" fill="#3d2a2b"/>
          <path id="Path_6893" data-name="Path 6893" d="M96.186,21.449h1.908v1.659h.046a2.323,2.323,0,0,1,2.343-1.76,3.062,3.062,0,0,1,.686.074v1.871a2.819,2.819,0,0,0-.9-.121,2.016,2.016,0,0,0-2.1,1.932,2.134,2.134,0,0,0,.011.31v5.78h-2Z" transform="translate(-29.711 -17.606)" fill="#3d2a2b"/>
          <path id="Path_6894" data-name="Path 6894" d="M110.008,28.334c-.269,1.768-1.991,2.983-4.2,2.983-2.835,0-4.595-1.9-4.595-4.946s1.77-5.04,4.511-5.04c2.7,0,4.392,1.852,4.392,4.807v.686h-6.883v.121a2.539,2.539,0,0,0,2.3,2.752,2.605,2.605,0,0,0,.318.008,2.2,2.2,0,0,0,2.251-1.37Zm-6.762-2.908h4.872a2.343,2.343,0,0,0-2.209-2.47q-.09,0-.181,0a2.467,2.467,0,0,0-2.482,2.452Z" transform="translate(-29.327 -17.607)" fill="#3d2a2b"/>
        </g>
        <g id="_Group_4" data-name=" Group 4" transform="translate(31.15 0.747)">
          <g id="Group_667" data-name="Group 667">
            <path id="Path_6895" data-name="Path 6895" d="M37.991,8.732a2.842,2.842,0,0,1,3.037,2.631,2.871,2.871,0,0,1-.015.561c0,2.052-1.109,3.231-3.022,3.231h-2.32V8.732Zm-1.322,5.514H37.88a2.019,2.019,0,0,0,2.136-1.9A1.98,1.98,0,0,0,40,11.936a2.026,2.026,0,0,0-2.117-2.3H36.669Z" transform="translate(-35.671 -8.415)" fill="#3d2a2b"/>
            <path id="Path_6896" data-name="Path 6896" d="M41.682,12.622a2.3,2.3,0,1,1,4.571,0,2.3,2.3,0,1,1-4.571.446A2.2,2.2,0,0,1,41.682,12.622Zm3.588,0c0-1.051-.473-1.665-1.3-1.665s-1.3.615-1.3,1.665.467,1.669,1.3,1.669,1.3-.615,1.3-1.669Z" transform="translate(-35.213 -8.309)" fill="#3d2a2b"/>
            <path id="Path_6897" data-name="Path 6897" d="M51.955,15.042h-.992l-1-3.57h-.076l-1,3.57h-.983l-1.337-4.847h.971l.868,3.7h.072l1-3.7h.917l1,3.7h.075l.864-3.7h.957Z" transform="translate(-34.839 -8.303)" fill="#3d2a2b"/>
            <path id="Path_6898" data-name="Path 6898" d="M53.854,10.2h.92v.77h.071a1.45,1.45,0,0,1,1.447-.863,1.575,1.575,0,0,1,1.69,1.454,1.514,1.514,0,0,1-.012.349v3.138h-.957v-2.9c0-.779-.338-1.167-1.046-1.167a1.116,1.116,0,0,0-1.157,1.228v2.836h-.956Z" transform="translate(-34.283 -8.31)" fill="#3d2a2b"/>
            <path id="Path_6899" data-name="Path 6899" d="M59.094,8.437h.956v6.739h-.956Z" transform="translate(-33.882 -8.437)" fill="#3d2a2b"/>
            <path id="Path_6900" data-name="Path 6900" d="M61.219,12.622a2.3,2.3,0,1,1,4.571,0,2.3,2.3,0,1,1-4.571.445A2.191,2.191,0,0,1,61.219,12.622Zm3.588,0c0-1.051-.473-1.665-1.3-1.665s-1.3.615-1.3,1.665.467,1.669,1.3,1.669S64.806,13.677,64.806,12.622Z" transform="translate(-33.721 -8.309)" fill="#3d2a2b"/>
            <path id="Path_6901" data-name="Path 6901" d="M66.4,13.677c0-.872.649-1.376,1.8-1.447l1.312-.075v-.419c0-.511-.338-.8-.991-.8-.535,0-.9.2-1.011.538h-.926c.1-.832.88-1.366,1.981-1.366,1.214,0,1.9.6,1.9,1.629v3.312h-.92v-.681h-.076a1.63,1.63,0,0,1-1.455.761,1.465,1.465,0,0,1-1.608-1.3C66.4,13.775,66.4,13.727,66.4,13.677Zm3.115-.413v-.406l-1.183.075c-.667.045-.971.272-.971.7s.379.69.9.69A1.142,1.142,0,0,0,69.513,13.3Z" transform="translate(-33.324 -8.309)" fill="#3d2a2b"/>
            <path id="Path_6902" data-name="Path 6902" d="M71.348,12.75c0-1.532.788-2.5,2.012-2.5a1.6,1.6,0,0,1,1.486.85h.072V8.437h.956v6.739h-.916V14.41h-.076a1.681,1.681,0,0,1-1.522.846C72.127,15.256,71.348,14.286,71.348,12.75Zm.988,0c0,1.028.484,1.647,1.295,1.647s1.3-.628,1.3-1.643-.5-1.647-1.3-1.647-1.295.623-1.295,1.643Z" transform="translate(-32.947 -8.437)" fill="#3d2a2b"/>
            <path id="Path_6903" data-name="Path 6903" d="M79.231,12.622a2.3,2.3,0,1,1,4.571,0,2.3,2.3,0,1,1-4.571.446A2.372,2.372,0,0,1,79.231,12.622Zm3.588,0c0-1.051-.471-1.665-1.3-1.665s-1.3.615-1.3,1.665.468,1.669,1.3,1.669S82.818,13.677,82.818,12.622Z" transform="translate(-32.346 -8.309)" fill="#3d2a2b"/>
            <path id="Path_6904" data-name="Path 6904" d="M84.669,10.2h.921v.77h.071a1.45,1.45,0,0,1,1.447-.863,1.58,1.58,0,0,1,1.678,1.8v3.138h-.957v-2.9c0-.779-.338-1.167-1.046-1.167a1.113,1.113,0,0,0-1.162,1.059,1.26,1.26,0,0,0,.005.169v2.836h-.957Z" transform="translate(-31.93 -8.31)" fill="#3d2a2b"/>
            <path id="Path_6905" data-name="Path 6905" d="M93.637,9.074V10.3h1.051v.806H93.637V13.6c0,.508.21.731.686.731a3.458,3.458,0,0,0,.365-.023v.8a3.138,3.138,0,0,1-.521.05c-1.063,0-1.486-.375-1.486-1.309V11.108h-.77V10.3h.77V9.074Z" transform="translate(-31.377 -8.388)" fill="#3d2a2b"/>
            <path id="Path_6906" data-name="Path 6906" d="M95.705,8.437h.947v2.67h.076a1.492,1.492,0,0,1,1.478-.868,1.6,1.6,0,0,1,1.681,1.507,1.651,1.651,0,0,1-.012.3v3.129h-.958V12.283c0-.774-.361-1.167-1.037-1.167a1.132,1.132,0,0,0-1.221,1.037,1.152,1.152,0,0,0,0,.193v2.831h-.956Z" transform="translate(-31.087 -8.437)" fill="#3d2a2b"/>
            <path id="Path_6907" data-name="Path 6907" d="M105.07,13.74a1.968,1.968,0,0,1-2.1,1.4A2.2,2.2,0,0,1,100.712,13a2.236,2.236,0,0,1,.019-.36,2.236,2.236,0,0,1,1.919-2.512,2.206,2.206,0,0,1,.315-.019c1.349,0,2.162.921,2.162,2.443v.334h-3.423v.054a1.281,1.281,0,0,0,1.169,1.384c.041,0,.082,0,.122,0a1.165,1.165,0,0,0,1.154-.588Zm-3.365-1.562h2.449a1.17,1.17,0,0,0-1.081-1.253.99.99,0,0,0-.113,0,1.239,1.239,0,0,0-1.255,1.224v.032Z" transform="translate(-30.705 -8.309)" fill="#3d2a2b"/>
          </g>
        </g>
      </g>
    </g>
  </g>
</svg>
