<svg xmlns="http://www.w3.org/2000/svg" xmlns:xlink="http://www.w3.org/1999/xlink" width="1403.777" height="890.351" viewBox="0 0 1403.777 890.351">
  <defs>
    <radialGradient id="radial-gradient" cx="0.637" cy="0.484" r="1.003" gradientTransform="translate(0.191) scale(0.618 1)" gradientUnits="objectBoundingBox">
      <stop offset="0" stop-color="#363885"/>
      <stop offset="0.047" stop-color="#382879"/>
      <stop offset="0.125" stop-color="#3a156a"/>
      <stop offset="0.204" stop-color="#3c0961"/>
      <stop offset="0.288" stop-color="#3d065f"/>
      <stop offset="0.315" stop-color="#360965"/>
      <stop offset="0.383" stop-color="#2a0f6f"/>
      <stop offset="0.455" stop-color="#271273"/>
      <stop offset="0.484" stop-color="#2d0e6c"/>
      <stop offset="0.558" stop-color="#390862"/>
      <stop offset="0.636" stop-color="#3d065f"/>
      <stop offset="0.772" stop-color="#220336"/>
      <stop offset="0.922" stop-color="#09000f"/>
      <stop offset="1"/>
    </radialGradient>
    <radialGradient id="radial-gradient-2" cx="0.621" cy="0.579" r="0.662" gradientTransform="translate(0.202) scale(0.596 1)" gradientUnits="objectBoundingBox">
      <stop offset="0.015" stop-color="#43e8e1"/>
      <stop offset="0.03" stop-color="#42e2de"/>
      <stop offset="0.048" stop-color="#41d1d8"/>
      <stop offset="0.07" stop-color="#3eb6ce"/>
      <stop offset="0.093" stop-color="#3b90c0"/>
      <stop offset="0.117" stop-color="#3760ae"/>
      <stop offset="0.121" stop-color="#3759ac"/>
      <stop offset="0.133" stop-color="#386ab2"/>
      <stop offset="0.18" stop-color="#3eadcb"/>
      <stop offset="0.215" stop-color="#41d7db"/>
      <stop offset="0.232" stop-color="#43e8e1"/>
      <stop offset="0.255" stop-color="#3dd4cf"/>
      <stop offset="0.302" stop-color="#2da0a1"/>
      <stop offset="0.354" stop-color="#1b6269"/>
      <stop offset="0.356" stop-color="#1d6c71"/>
      <stop offset="0.364" stop-color="#278d8f"/>
      <stop offset="0.373" stop-color="#30a9a9"/>
      <stop offset="0.383" stop-color="#37c0bd"/>
      <stop offset="0.394" stop-color="#3cd2cd"/>
      <stop offset="0.408" stop-color="#40ded8"/>
      <stop offset="0.426" stop-color="#42e5df"/>
      <stop offset="0.47" stop-color="#43e8e1"/>
      <stop offset="0.471" stop-color="#41e2db"/>
      <stop offset="0.479" stop-color="#35b8b3"/>
      <stop offset="0.488" stop-color="#2a9290"/>
      <stop offset="0.497" stop-color="#217372"/>
      <stop offset="0.507" stop-color="#195a5a"/>
      <stop offset="0.518" stop-color="#144648"/>
      <stop offset="0.531" stop-color="#10383a"/>
      <stop offset="0.547" stop-color="#0d3033"/>
      <stop offset="0.576" stop-color="#0d2e31"/>
      <stop offset="0.581" stop-color="#0f4446"/>
      <stop offset="0.591" stop-color="#126968"/>
      <stop offset="0.601" stop-color="#158784"/>
      <stop offset="0.612" stop-color="#179f9a"/>
      <stop offset="0.623" stop-color="#18afa9"/>
      <stop offset="0.636" stop-color="#19b9b3"/>
      <stop offset="0.652" stop-color="#1abdb6"/>
      <stop offset="0.818" stop-color="#020708"/>
      <stop offset="1"/>
    </radialGradient>
    <radialGradient id="radial-gradient-3" cx="0.389" cy="0.786" r="0.662" gradientTransform="translate(0.202) scale(0.596 1)" gradientUnits="objectBoundingBox">
      <stop offset="0" stop-color="#3d065f"/>
      <stop offset="0.092" stop-color="#330550"/>
      <stop offset="0.352" stop-color="#1d022d"/>
      <stop offset="0.598" stop-color="#0d0114"/>
      <stop offset="0.821" stop-color="#030005"/>
      <stop offset="1"/>
    </radialGradient>
    <radialGradient id="radial-gradient-4" cx="0.5" cy="0.5" r="0.5" gradientUnits="objectBoundingBox">
      <stop offset="0.086" stop-color="#1bb0d4"/>
      <stop offset="0.098" stop-color="#1b88b4"/>
      <stop offset="0.126" stop-color="#1b2b69"/>
      <stop offset="0.159" stop-color="#162357"/>
      <stop offset="0.223" stop-color="#0f183c"/>
      <stop offset="0.297" stop-color="#090f26"/>
      <stop offset="0.381" stop-color="#050814"/>
      <stop offset="0.485" stop-color="#020308"/>
      <stop offset="0.628" stop-color="#000001"/>
      <stop offset="1"/>
    </radialGradient>
    <radialGradient id="radial-gradient-6" cx="0.5" cy="0.5" r="0.5" gradientTransform="translate(0.231 -0.154) rotate(22.637)" xlink:href="#radial-gradient-4"/>
    <radialGradient id="radial-gradient-12" cx="0.5" cy="0.5" r="0.5" gradientTransform="matrix(0.148, 0.989, -0.989, 0.148, 0.92, -0.069)" xlink:href="#radial-gradient-4"/>
    <radialGradient id="radial-gradient-15" cx="0.5" cy="0.5" r="0.5" gradientUnits="objectBoundingBox">
      <stop offset="0.086" stop-color="#2e66bf"/>
      <stop offset="0.126" stop-color="#1b2b69"/>
      <stop offset="0.159" stop-color="#162357"/>
      <stop offset="0.223" stop-color="#0f183c"/>
      <stop offset="0.297" stop-color="#090f26"/>
      <stop offset="0.381" stop-color="#050814"/>
      <stop offset="0.485" stop-color="#020308"/>
      <stop offset="0.628" stop-color="#000001"/>
      <stop offset="1"/>
    </radialGradient>
    <radialGradient id="radial-gradient-16" cx="0.5" cy="0.5" gradientTransform="translate(0)" xlink:href="#radial-gradient-15"/>
    <radialGradient id="radial-gradient-19" cx="0.5" cy="0.5" gradientTransform="translate(0)" xlink:href="#radial-gradient-15"/>
  </defs>
  <g id="Group_1430" data-name="Group 1430" transform="translate(-399.217 -202.121)">
    <path id="Path_863" data-name="Path 863" d="M1469.519,803.016l-47.313,7.241-44.014-25.411,15.85-34.53,29.884-4.572,29.845-4.569,15.748,9.092V749.19l-14.786-8.535,14.786-32.207V704.97l-43.265-24.98,7.91-17.229,7.921-17.254,27.435-4.2v-.771l-27.753,4.246-43.984-25.394,15.85-34.53,29.884-4.572,26-3.98v-.751l-26.329,4.029-29.845,4.566-43.9-25.342,15.833-34.483,59.806-9.152,24.431,14.105V528.2l-23.526-13.584,15.83-34.483,7.7-1.177v-.88l-8.162,1.248-43.836-25.309,15.85-34.53,29.884-4.572,6.264-.96v-.749l-6.593,1.009-29.843,4.566L1389.19,393.44l15.83-34.486,59.806-9.152,4.693,2.71v-1.078l-3.788-2.186,3.788-8.25v-3.242L1464.36,349l-59.806,9.149-43.838-25.309,15.852-34.53,29.884-4.572,29.922-4.578,33.145,19.135v-1.023l-32.259-18.625,16.047-34.955L1408.295,227.7l-60.546,9.265-43.835-25.309L1319.96,176.7l-45.012-25.989-60.546,9.265-43.888-25.339,16.044-34.955L1141.546,73.7,1080.3,83.068,1064.267,118l-60.505,9.259-16.039,34.933-60.505,9.259-16.036,34.933-60.505,9.259-16.039,34.933-60.505,9.259L758.1,294.768l-60.505,9.259-16.039,34.933-60.505,9.259-16.036,34.933L544.5,392.412l-16.036,34.933L467.962,436.6l-16.036,34.933L391.418,480.8l-16.036,34.933-60.505,9.259L298.84,559.921l-60.508,9.259L222.3,604.113l-60.505,9.259L145.56,648.73l44.5,25.693-16.047,34.955,45.012,25.989,60.546-9.267,43.89,25.342L307.408,786.4l45.012,25.989,60.546-9.267L456.8,828.427l-16.05,34.958,45.012,25.986,60.546-9.265,21.244,12.265h1.769L547.2,879.6l15.85-34.53,59.808-9.152,43.835,25.309-14.3,31.148h1.336l14.215-30.964,29.884-4.572,29.845-4.567,43.9,25.342-6.777,14.761h1.487l6.662-14.509,59.806-9.152,40.983,23.661H875.6L833.65,868.154l15.831-34.483,59.808-9.152,43.836,25.309-15.852,34.53-29.884,4.572-22.5,3.442h4.9l17.92-2.74,29.843-4.569,12.66,7.309h1.87l-13.565-7.83,15.85-34.53,29.884-4.575,29.845-4.566,44.044,25.43-7.913,17.229-4.059,8.842h1.3l3.974-8.653,7.921-17.251,59.806-9.152,43.984,25.394-4.435,9.662h1.336l4.353-9.479,29.884-4.572,29.845-4.569,32.248,18.62h1.87l-33.156-19.141,15.85-34.53,29.884-4.575,29.845-4.567,44.044,25.43-15.841,34.505-18.8,2.877h4.9l14.923-2.282,16.036-34.933,60.508-9.259,16.036-34.933,47.025-7.2Zm-92.58-18.354-29.884,4.572-29.842,4.566-44.044-25.427,7.91-17.232L1289,733.891l59.806-9.152,43.986,25.394ZM916.058,563.278,900.209,597.8l-29.884,4.575-29.845,4.566L796.587,581.6l15.83-34.486,59.806-9.149Zm-42.93-25.866,15.83-34.486,59.806-9.149L992.6,519.086l-15.85,34.527-29.886,4.575-29.843,4.566Zm44.184,26.047,29.884-4.572,29.845-4.566,43.893,25.342-15.83,34.483L945.295,623.3l-43.835-25.309Zm104.993,16.456,59.806-9.152,43.838,25.309L1110.1,630.6l-29.884,4.575-29.842,4.567-43.9-25.342Zm59.34-9.958-59.806,9.149L978,553.8l15.85-34.53,29.884-4.572,29.845-4.567,43.9,25.342Zm-28.351-60.535L1023.41,514l-29.845,4.566-43.9-25.342L965.5,458.734l59.806-9.152,43.838,25.312Zm-27.081-60.393,15.831-34.486,59.806-9.149,43.838,25.309-15.852,34.53-29.884,4.572-29.845,4.566Zm75.173-44.444-59.809,9.152-43.835-25.309,15.852-34.53,29.881-4.572,29.845-4.569,43.9,25.345Zm-60.714,9.706-15.83,34.486-59.806,9.152L921.2,432.619l15.852-34.53,29.884-4.575,29.845-4.566Zm-76.541,44.192L948.3,492.967l-59.809,9.152-43.835-25.309,15.85-34.53,29.886-4.575,29.843-4.567Zm-76.544,44.192-15.83,34.486-59.806,9.152L768.113,521l15.852-34.53,29.884-4.575,29.845-4.566Zm-76.541,44.192-15.83,34.486L735.407,590.5l-43.835-25.309,15.85-34.53L737.3,526.09l29.845-4.567ZM734.5,591.058l-15.83,34.486L658.865,634.7l-43.838-25.309,15.852-34.53,29.884-4.575,29.845-4.566ZM657.96,635.25l-15.83,34.486-59.809,9.149-43.835-25.309,15.85-34.527,29.886-4.575,29.843-4.566Zm1.371.252,59.806-9.149,43.836,25.309-15.85,34.527-29.884,4.575-29.845,4.566L643.5,669.988Zm60.711-9.706,15.831-34.486,59.809-9.152,43.835,25.312L823.665,642l-29.884,4.575-29.843,4.567Zm120.725-18.145,29.886-4.572,29.843-4.566,43.9,25.342-15.833,34.483-59.806,9.152L824.918,642.18Zm105,16.456,59.806-9.152,43.835,25.309-15.85,34.53-29.884,4.572-29.845,4.569-43.893-25.342Zm104.895,16.341,29.884-4.572,29.845-4.567,43.893,25.342-15.831,34.483-59.808,9.152-43.836-25.309Zm60.692-9.662,15.85-34.53,29.884-4.572,29.845-4.566,43.9,25.342-15.833,34.483-59.806,9.152Zm75.291-44.376-29.884,4.575-29.845,4.566-43.893-25.342,15.83-34.486,59.806-9.152,43.835,25.309Zm-28.452-60.648-59.806,9.152L1054.545,509.6l15.852-34.53,29.884-4.572,29.845-4.566,43.893,25.342Zm-27.1-60.349,15.85-34.527,29.884-4.575,29.845-4.567,43.893,25.342-15.831,34.483-59.806,9.152Zm75.291-44.373-29.884,4.572-29.845,4.566-43.893-25.342,15.831-34.486,59.806-9.149,43.838,25.309Zm-28.452-60.648-59.806,9.152-43.838-25.309,15.852-34.53,29.884-4.575,29.845-4.567,43.893,25.342Zm-28.353-60.533-29.884,4.572L1089.845,309,1045.9,283.625l15.83-34.483,59.806-9.152,43.89,25.339Zm-60.692,9.662-15.85,34.53-29.884,4.572-29.845,4.566-43.948-25.372,15.83-34.483,59.809-9.152Zm-76.541,44.192-15.852,34.53L966.6,392.815l-29.845,4.567-43.945-25.372,15.83-34.486,59.806-9.149ZM935.8,397.905l-15.852,34.53-29.884,4.572-29.845,4.566L816.27,416.2l15.83-34.483,59.809-9.155ZM859.256,442.1,843.4,476.627,813.52,481.2l-29.843,4.566-43.948-25.372,15.83-34.486,59.806-9.149Zm-76.544,44.192-15.85,34.53-29.884,4.572-29.845,4.566-43.948-25.372,15.83-34.483,59.809-9.152ZM706.17,530.481l-15.852,34.53-29.884,4.572-29.843,4.566-43.948-25.372,15.83-34.483,59.806-9.155Zm-76.544,44.192-15.85,34.53-29.884,4.572-29.845,4.566L510.1,592.969l15.83-34.486,59.809-9.149Zm-76.541,44.192-15.852,34.527-29.884,4.575-29.843,4.567-43.948-25.372,15.831-34.486,59.806-9.149Zm-75.291,44.373,29.884-4.572,29.845-4.567,43.893,25.342-15.83,34.483-59.806,9.152-43.838-25.306Zm104.993,16.456,59.809-9.152,43.835,25.309-15.852,34.53L640.7,734.955l-29.843,4.567-43.9-25.342Zm104.895,16.341,29.886-4.572,29.843-4.566,43.9,25.342-15.831,34.483-59.809,9.152-43.835-25.309Zm60.692-9.662,15.852-34.53,29.884-4.572,29.845-4.567,43.893,25.342-15.83,34.483-59.806,9.152ZM869.22,668.3l59.809-9.152,43.835,25.309-15.852,34.53-29.884,4.572-29.843,4.569-43.9-25.345Zm104.895,16.341L1004,680.067l29.845-4.566,43.893,25.342-15.828,34.483-59.809,9.152-43.835-25.309Zm104.993,16.456,59.809-9.152,43.835,25.309-15.85,34.53-29.884,4.572-29.845,4.567-43.9-25.342Zm60.714-9.709,15.831-34.483,59.806-9.152L1259.3,673.06l-15.852,34.53-29.884,4.572-29.843,4.566Zm120.725-18.142,29.884-4.575,29.845-4.564,44.044,25.427-7.91,17.229-7.923,17.254-59.806,9.152L1244.7,707.773Zm59.441-9.846-29.884,4.572-29.845,4.566-43.9-25.342,15.833-34.483L1292,603.559l43.836,25.309Zm-28.452-60.648L1231.73,611.9l-43.838-25.309,15.852-34.53,29.884-4.572,29.845-4.566,43.893,25.342Zm-28.353-60.533-29.884,4.572-29.845,4.569-43.893-25.342,15.83-34.486,59.806-9.152,43.838,25.309ZM1236.1,481.824l15.83-34.486,59.806-9.152,43.835,25.309-15.85,34.53-29.884,4.575L1280,507.166Zm75.17-44.444-59.806,9.149L1207.63,421.22l15.853-34.527,29.884-4.575,29.845-4.566,43.893,25.342Zm-28.353-60.533-29.884,4.572-29.845,4.567L1179.3,360.644l15.831-34.483,59.806-9.152,43.838,25.309ZM1254.471,316.2l-59.808,9.152-43.836-25.309,15.85-34.53,29.884-4.575,29.845-4.566,43.9,25.342Zm-28.353-60.533-29.884,4.572-29.845,4.566-43.948-25.372,15.83-34.486,59.809-9.149,43.888,25.339Zm-104.993-16.456-59.809,9.152-43.89-25.339,15.852-34.53,29.884-4.575,29.845-4.566,43.948,25.372Zm-60.714,9.709-15.83,34.483-59.806,9.152-43.89-25.339,15.85-34.53,29.886-4.572,29.843-4.569ZM983.87,293.112,968.039,327.6l-59.808,9.152-43.89-25.339,15.852-34.53,29.884-4.575,29.845-4.566ZM907.326,337.3,891.5,371.787l-59.806,9.152L787.8,355.6l15.85-34.53,29.886-4.575,29.845-4.566ZM830.784,381.5l-15.83,34.483-59.809,9.152-43.89-25.339,15.852-34.53,29.884-4.575,29.845-4.566ZM754.24,425.688l-15.83,34.483L678.6,469.323l-43.89-25.339,15.852-34.53,29.884-4.575,29.845-4.566ZM677.7,469.877l-15.831,34.486-59.808,9.152-43.888-25.339,15.85-34.53,29.884-4.575,29.845-4.566Zm-76.544,44.195-15.831,34.483-59.806,9.152-43.89-25.339,15.852-34.53,29.884-4.575,29.843-4.566Zm-76.541,44.192-15.83,34.483L448.975,601.9,405.087,576.56l15.85-34.53,29.884-4.575,29.845-4.566Zm-76.544,44.192-15.83,34.483-59.806,9.152-43.89-25.339,15.852-34.53,29.884-4.575,29.843-4.567Zm-76.541,44.189L355.7,681.131l-59.809,9.152L252,664.941l15.852-34.53,29.884-4.572,29.845-4.567Zm1.316.222,59.809-9.149,43.89,25.339-15.852,34.527-29.884,4.575-29.845,4.566-43.948-25.372Zm28.408,60.563,29.884-4.572,29.843-4.566,43.9,25.342-15.83,34.486-59.809,9.152L385.4,741.963Zm104.993,16.456,59.806-9.152,43.838,25.312-15.852,34.527-29.884,4.575-29.845,4.567-43.893-25.342Zm104.895,16.341,29.884-4.572,29.845-4.566,43.893,25.342-15.83,34.483-59.806,9.152-43.838-25.309Zm104.993,16.456,59.809-9.152,43.836,25.309-15.852,34.53-29.884,4.572L744.2,816.507l-43.9-25.342Zm60.714-9.706,15.831-34.486,59.806-9.152,43.835,25.309-15.85,34.53-29.884,4.572-29.845,4.569Zm120.725-18.145,29.884-4.572,29.843-4.567,43.9,25.342-15.83,34.483-59.809,9.152-43.835-25.309Zm104.993,16.456,59.808-9.152,43.835,25.309-15.852,34.53-29.884,4.572-29.843,4.567-43.9-25.342Zm104.895,16.341,29.884-4.572,29.845-4.569,44.044,25.43-7.912,17.229L1195.4,812.4l-59.808,9.152-43.984-25.394Zm60.692-9.662,15.852-34.53,29.884-4.572,29.845-4.569,44.041,25.43-7.91,17.229-7.921,17.254-59.806,9.152Zm301.182-46.024-15.852,34.53-29.884,4.572-29.845,4.569-44.044-25.43,7.912-17.232,7.921-17.251,59.806-9.152Zm-28.474-60.6-7.91,17.229-7.921,17.254-59.806,9.152-43.986-25.394,15.852-34.53,29.884-4.572,29.845-4.569Zm-28.479-60.664-15.853,34.53-29.884,4.572-29.845,4.569L1292.907,603l15.83-34.483,59.806-9.152Zm-44.3-26.118-59.809,9.152L1264.436,542.4l15.85-34.53,29.884-4.572,29.845-4.567,43.9,25.342Zm92.372-78.675-15.83,34.483-59.806,9.152-43.838-25.309,15.853-34.53,29.884-4.572,29.845-4.566ZM1432.12,419.3l-15.852,34.53-29.884,4.575-29.845,4.566-43.893-25.342,15.831-34.486,59.806-9.152Zm-28.471-60.6-15.833,34.486-59.806,9.152-43.836-25.309,15.85-34.53,29.884-4.575,29.845-4.566Zm-44.184-26.047-29.884,4.572-29.845,4.566-43.893-25.342,15.831-34.483,59.806-9.152,43.836,25.309Zm-11.184-95.018,59.644-9.127,43.984,25.394-15.861,34.552-29.925,4.58-29.845,4.567-43.893-25.342Zm-1.415-.159-15.853,34.53-59.806,9.152-43.838-25.309,15.852-34.53,29.884-4.572,29.922-4.58ZM1214.86,160.659l59.718-9.138,43.984,25.394L1302.7,211.469l-29.925,4.577-29.845,4.569-43.945-25.375Zm-1.341-.17-15.853,34.53-59.806,9.152-43.89-25.339,15.85-34.53,29.886-4.572,29.922-4.58ZM1081.332,83.66l59.844-9.158,43.986,25.4L1169.3,134.451l-29.922,4.577-29.845,4.566-44.041-25.427Zm-76.544,44.192,59.767-9.144,44.014,25.41-15.85,34.53-29.886,4.572-29.843,4.566L988.947,162.36Zm-76.544,44.192,59.767-9.144,44.014,25.41-15.85,34.53-29.884,4.572-29.845,4.566-44.041-25.427ZM851.7,216.236l59.768-9.147L955.484,232.5l-15.852,34.53L909.747,271.6l-29.842,4.566-44.044-25.427Zm-76.544,44.192,59.77-9.144,44.014,25.41-15.852,34.53L833.206,315.8l-29.845,4.566L759.32,294.936ZM698.617,304.62l59.767-9.144L802.4,320.887l-15.852,34.53-29.881,4.572-29.845,4.566-44.044-25.427Zm-76.542,44.192,59.768-9.144,44.014,25.41L710,399.608l-29.884,4.572-29.845,4.566L606.234,383.32ZM545.531,393,605.3,383.86l44.014,25.411L633.46,443.8l-29.884,4.572-29.843,4.566L529.69,427.512ZM468.99,437.2l59.767-9.147,44.014,25.413-15.852,34.53-29.884,4.572-29.845,4.566L453.149,471.7Zm-76.544,44.192,59.767-9.147,44.014,25.413-15.85,34.53-29.884,4.572-29.845,4.566L376.6,515.9ZM315.9,525.58l59.767-9.144,44.014,25.411-15.852,34.53-29.884,4.572L344.1,585.515l-44.041-25.427Zm-76.544,44.192,59.767-9.147,44.014,25.413-15.85,34.53-29.884,4.572-29.845,4.566L223.519,604.28Zm-92.4,78.744,15.861-34.552,59.77-9.147L266.6,630.231l-15.852,34.53-29.884,4.572-29.922,4.577ZM279.11,725.422l-59.718,9.136-43.984-25.394,15.861-34.552,29.925-4.58,29.845-4.566,43.945,25.372Zm1.341.167L296.3,691.06l59.806-9.152L400,707.249l-15.852,34.53-29.884,4.572-29.922,4.577Zm131.986,76.859-59.644,9.128-43.986-25.394L324.67,751.63l29.922-4.58,29.845-4.566,43.893,25.342Zm1.415.159,15.85-34.53,59.809-9.152,43.835,25.309-15.852,34.53-29.884,4.575-29.922,4.577Zm131.932,76.829-59.644,9.128-43.986-25.394,15.863-34.552,29.922-4.58,29.845-4.566,43.893,25.342Zm76.607-44.332-59.809,9.152-43.835-25.309,15.852-34.53,29.884-4.572,29.845-4.567,43.893,25.342Zm104.993,16.456L697.5,856.133,667.655,860.7,623.762,835.36l15.83-34.486,59.806-9.152,43.835,25.309ZM832.279,867.9l-59.806,9.152-43.838-25.309,15.852-34.53,29.884-4.572,29.843-4.569,43.9,25.345Zm76.544-44.192-59.808,9.152-43.836-25.309,15.85-34.53,29.884-4.572,29.845-4.567,43.9,25.342Zm104.993,16.456-29.884,4.572L954.088,849.3l-43.893-25.342,15.83-34.483,59.806-9.152,43.835,25.309Zm105.043,16.426-59.806,9.152-43.986-25.394,15.852-34.53,29.884-4.575,29.843-4.564,44.044,25.427-7.91,17.229Zm104.993,16.456-29.884,4.572-29.843,4.566-44.044-25.427,7.91-17.232,7.921-17.251,59.806-9.152,43.986,25.394Zm76.544-44.192-29.884,4.572-29.845,4.566-44.044-25.427,7.913-17.232,7.921-17.251,59.806-9.152,43.984,25.394ZM1405.429,845.3l-59.767,9.147-44.014-25.41,15.852-34.53,29.884-4.575,29.845-4.564L1421.27,810.8Z" transform="translate(253.657 128.425)" opacity="0.7" fill="url(#radial-gradient)" style="mix-blend-mode: color-dodge;isolation: isolate"/>
    <path id="Path_864" data-name="Path 864" d="M1514.147,806.493l-11.98,26.1-59.767,9.144-44.014-25.41,15.85-34.53,29.887-4.572,29.843-4.567,40.182,23.2v-1.078l-39.217-22.643,15.85-34.53,23.367-3.576v-.749l-23.655,3.62-44.044-25.43,7.91-17.229,7.921-17.254,51.869-7.937v-.771l-52.187,7.984-43.984-25.394,15.853-34.53,29.884-4.572,29.843-4.567,20.592,11.889v-1.081l-19.629-11.333,15.852-34.53,3.777-.579v-.749l-4.067.623L1466.186,546.1l15.831-34.486,32.13-4.915v-.88l-32.6,4.989L1437.715,485.5l15.85-34.527,29.884-4.575,29.848-4.566.85.491v-3.686l-1.141,2.49-29.884,4.572-29.845,4.567-43.893-25.342,15.83-34.486,59.806-9.149,29.127,16.815v-1.078l-28.222-16.294,15.9-34.623,12.325-1.887v-.751l-12.857,1.966-43.836-25.306,16.047-34.958-45.012-25.986-60.544,9.265-43.838-25.309,16.047-34.955-45.012-25.989-60.546,9.265-43.888-25.339,16.047-34.955-45.012-25.989-61.246,9.372-16.036,34.933-60.505,9.259-16.039,34.936-60.505,9.256-16.036,34.933-60.505,9.259-16.039,34.933-60.505,9.259L778.29,326.247l-60.505,9.259-16.039,34.933L641.241,379.7l-16.036,34.933L564.7,423.891l-16.036,34.933-60.508,9.259L472.12,503.016l-60.505,9.259-16.036,34.933-60.508,9.259L319.034,591.4l-60.505,9.259-16.036,34.933-60.508,9.259-16.231,35.361,44.5,25.69L194.2,740.857l45.012,25.989,60.546-9.265,43.89,25.339L327.6,817.875l45.012,25.989L433.16,834.6,477,859.909l-16.047,34.955,24.815,14.328h1.769L462.348,894.65,478.211,860.1l29.922-4.58,29.845-4.567,43.893,25.342-15.1,32.9h1.486l14.986-32.646,59.808-9.152L686.887,892.7l-7.57,16.489h1.336l7.487-16.3,29.884-4.572,29.845-4.566,43.893,25.342-.047.1h2.4l58.824-9,15.589,9h1.87l-16.555-9.558,15.83-34.483L929.484,856l43.835,25.309-12.8,27.884h1.336l12.718-27.7,29.884-4.572,29.845-4.569,44.041,25.43-5.238,11.412h1.3l5.164-11.245,59.806-9.152,35.328,20.4h1.87l-36.293-20.954,7.91-17.232,7.921-17.251,59.809-9.152L1259.9,870l-15.852,34.53-29.884,4.572-.6.093h4.9l25.871-3.958,6.857,3.958h1.868l-7.762-4.481,15.85-34.53,29.886-4.572,29.843-4.567,44.044,25.427-10.433,22.723h1.3l10.356-22.555,60.505-9.259,16.036-34.933,60.508-9.259,10.951-23.861Zm-117.012,9.649-29.886,4.575-29.843,4.566-44.044-25.43,7.91-17.229,7.921-17.254L1369,756.218l43.984,25.394ZM1012.8,550.565l-15.85,34.53-29.886,4.572-29.843,4.567-43.9-25.342,15.83-34.486,59.809-9.149ZM969.866,524.7,985.7,490.216l59.806-9.152,43.838,25.309-15.852,34.53-29.884,4.572-29.845,4.566Zm-33.611,70.058L920.4,629.286l-29.884,4.572-29.845,4.567-43.893-25.342,15.83-34.483,59.806-9.152Zm1.251.184,29.884-4.575,29.845-4.567,43.893,25.342-15.83,34.483-59.806,9.155L921.653,629.47Zm60.692-9.662,15.852-34.53,29.884-4.575,29.843-4.566,43.9,25.342-15.83,34.486-59.809,9.149Zm76.544-44.195,15.85-34.527,29.884-4.575,29.845-4.567,43.893,25.342-15.831,34.486-59.806,9.152Zm75.291-44.373-29.884,4.572-29.845,4.567-43.9-25.342,15.83-34.483,59.809-9.152,43.835,25.309Zm-28.452-60.648-59.808,9.152-43.835-25.309,15.852-34.53,29.884-4.572,29.843-4.569,43.9,25.345Zm-60.714,9.706-15.83,34.486-59.806,9.152L941.395,464.1l15.85-34.53L987.128,425l29.845-4.569Zm-76.541,44.195-15.831,34.483L908.686,533.6,864.851,508.29,880.7,473.76l29.884-4.575,29.843-4.566Zm-76.544,44.189-15.831,34.486-59.806,9.152-43.838-25.309,15.852-34.53,29.884-4.572,29.845-4.569ZM831.24,578.345l-15.83,34.486L755.6,621.983l-43.838-25.309,15.852-34.53,29.884-4.572L787.347,553ZM754.7,622.539l-15.83,34.483-59.806,9.152-43.838-25.309,15.852-34.53,29.884-4.575,29.845-4.567Zm-76.541,44.189-15.831,34.486-59.806,9.152L558.68,685.058l15.852-34.53,29.884-4.575,29.845-4.567Zm1.371.252,59.806-9.149,43.838,25.309-15.852,34.53-29.884,4.572-29.845,4.567L663.7,701.467Zm60.711-9.706,15.83-34.483,59.809-9.152,43.835,25.309-15.85,34.53-29.884,4.572-29.845,4.566Zm120.728-18.142,29.884-4.575,29.845-4.567,43.893,25.342-15.83,34.486-59.809,9.152-43.835-25.312Zm104.993,16.453,59.806-9.152,43.836,25.312-15.85,34.53-29.884,4.572-29.845,4.567-43.893-25.342Zm60.711-9.706,15.831-34.486,59.808-9.152,43.835,25.309-15.852,34.53-29.884,4.575-29.843,4.566Zm120.725-18.145,29.887-4.572,29.843-4.567,43.9,25.342-15.83,34.486-59.809,9.149-43.836-25.309Zm59.441-9.846-29.884,4.575-29.845,4.567-43.893-25.342,15.831-34.486,59.806-9.152,43.838,25.309ZM1179.754,557.5l15.831-34.486,59.809-9.152,43.835,25.312L1283.376,573.7l-29.884,4.575-29.845,4.567Zm75.173-44.444-59.809,9.152-43.835-25.309,15.852-34.53,29.884-4.575,29.843-4.566,43.9,25.342Zm-28.353-60.533-29.884,4.572-29.845,4.566-43.893-25.342,15.831-34.483,59.806-9.152,43.838,25.309Zm-28.452-60.648-59.806,9.152-43.835-25.309,15.85-34.53,29.884-4.572,29.845-4.566,43.893,25.342Zm-28.353-60.533-29.884,4.572-29.845,4.569L1066.094,315.1l15.83-34.483,59.806-9.152,43.891,25.339ZM1109.079,341l-15.852,34.53-29.884,4.572-29.845,4.566L989.55,359.3l15.833-34.483,59.806-9.152Zm-76.544,44.192-15.85,34.53L986.8,424.294l-29.845,4.567-43.948-25.372,15.83-34.483,59.806-9.152Zm-76.541,44.192-15.852,34.53-29.884,4.572-29.845,4.566L836.464,447.68,852.3,413.2l59.806-9.152ZM879.45,473.576l-15.85,34.53-29.886,4.572-29.842,4.569-43.948-25.375,15.83-34.483,59.806-9.152Zm-76.541,44.192L787.056,552.3l-29.884,4.572-29.845,4.566-43.948-25.372,15.831-34.483,59.809-9.152ZM726.364,561.96l-15.852,34.53-29.881,4.572-29.845,4.566-43.948-25.372,15.83-34.483,59.806-9.152Zm-76.541,44.192-15.852,34.53-29.884,4.572-29.845,4.567L530.3,624.448l15.83-34.483,59.806-9.152Zm-76.544,44.192-15.85,34.53-29.884,4.572L497.7,694.012,453.752,668.64l15.831-34.483,59.809-9.152ZM497.988,694.72l29.884-4.575,29.845-4.567,43.893,25.345L585.78,745.406l-59.806,9.152L482.138,729.25Zm104.993,16.453,59.809-9.152,43.835,25.312-15.85,34.53-29.884,4.572L631.047,771l-43.9-25.342Zm104.9,16.343,29.884-4.575,29.845-4.566L811.5,743.717,795.671,778.2l-59.809,9.152-43.835-25.306Zm60.689-9.662,15.852-34.53L814.3,678.75l29.845-4.567,43.893,25.342-15.83,34.486-59.806,9.149Zm120.846-18.077,59.809-9.152,43.835,25.309-15.852,34.53-29.884,4.575-29.843,4.567-43.9-25.342Zm104.895,16.341,29.884-4.572,29.845-4.566,43.9,25.342L1082.1,766.8l-59.809,9.152-43.835-25.309ZM1055,706.456l15.852-34.53,29.884-4.572,29.845-4.566,43.893,25.342-15.83,34.483-59.806,9.152Zm120.846-18.074,59.809-9.152,43.835,25.309-15.852,34.53-29.884,4.575-29.843,4.564-43.9-25.342Zm104.895,16.341,29.886-4.572,29.843-4.566,44.044,25.427-7.91,17.232-7.921,17.251-59.808,9.152-43.984-25.394Zm59.441-9.846-29.884,4.575-29.845,4.567-43.893-25.342,15.83-34.486,59.806-9.152,43.838,25.309Zm-28.452-60.645-59.806,9.149-43.836-25.309,15.85-34.53,29.884-4.572,29.845-4.567,43.893,25.342Zm-27.1-60.352,15.853-34.53,29.884-4.572,29.843-4.566,43.9,25.342-15.831,34.483-59.808,9.152ZM1359.92,529.5l-29.884,4.575-29.845,4.566L1256.3,513.3l15.831-34.486,59.806-9.152,43.838,25.309Zm-28.452-60.645-59.806,9.149L1227.824,452.7l15.852-34.53,29.884-4.575,29.845-4.567,43.893,25.342Zm-28.35-60.533-29.887,4.572-29.842,4.566-43.9-25.342,15.83-34.483,59.808-9.152,43.836,25.309Zm-27.081-60.4,15.83-34.483,59.806-9.152,43.838,25.309-15.852,34.53-29.884,4.572-29.845,4.567Zm-1.371-.252-59.809,9.152-43.835-25.309,15.852-34.53,29.884-4.572,29.845-4.569,43.893,25.342Zm-28.353-60.533-29.884,4.572-29.845,4.569-43.948-25.375,15.831-34.483,59.809-9.152,43.89,25.339ZM1141.319,270.69l-59.809,9.152L1037.62,254.5l15.852-34.53,29.884-4.572,29.845-4.566,43.948,25.372Zm-60.714,9.709-15.83,34.483-59.806,9.152L961.079,298.7l15.852-34.53,29.884-4.572,29.845-4.566Zm-76.541,44.192-15.83,34.483-59.808,9.152-43.888-25.339,15.85-34.53,29.884-4.572,29.845-4.566ZM927.52,368.783l-15.83,34.483-59.806,9.152-43.89-25.339,15.852-34.53,29.884-4.572,29.845-4.569Zm-76.541,44.192-15.831,34.483-59.809,9.152-43.888-25.339,15.85-34.53,29.884-4.572,29.845-4.569Zm-76.544,44.192L758.6,491.65,698.8,500.8l-43.89-25.339,15.852-34.53,29.884-4.572,29.845-4.569Zm-76.541,44.192-15.83,34.483-59.806,9.152-43.89-25.339,15.85-34.53,29.884-4.575,29.845-4.564Zm-76.544,44.192-15.83,34.483-59.806,9.152-43.89-25.339,15.852-34.53,29.884-4.572,29.843-4.569Zm-76.541,44.192-15.83,34.483-59.806,9.152-43.89-25.339,15.85-34.53,29.884-4.572,29.845-4.569Zm-76.544,44.192-15.83,34.483-59.806,9.152-43.89-25.339,15.852-34.53,29.884-4.575,29.843-4.567Zm-76.541,44.192L375.892,712.61l-59.809,9.152L272.2,696.423l15.85-34.53,29.884-4.575,29.845-4.566Zm1.319.219,59.806-9.149,43.89,25.339-15.852,34.53L451,733.638,421.156,738.2l-43.945-25.372Zm28.405,60.565,29.884-4.575,29.845-4.566,43.893,25.342L509.238,789.6l-59.809,9.152-43.836-25.309ZM526.44,755.365l59.806-9.149,43.838,25.309-15.852,34.53-29.884,4.572L554.5,815.193,510.61,789.851Zm104.895,16.341,29.884-4.572,29.845-4.566,43.893,25.342-15.83,34.483-59.806,9.152-43.835-25.306Zm105,16.456,59.806-9.152,43.835,25.309-15.852,34.53-29.884,4.575-29.843,4.567-43.9-25.345Zm60.711-9.706,15.83-34.486,59.806-9.149,43.838,25.306-15.852,34.53-29.884,4.575L840.935,803.8ZM917.767,760.31l29.884-4.572,29.845-4.566,43.893,25.342L1005.559,811l-59.806,9.152L901.915,794.84Zm104.993,16.456,59.808-9.152,43.836,25.309-15.852,34.53-29.884,4.572-29.843,4.569-43.9-25.345Zm60.714-9.709,15.83-34.483,59.806-9.152,43.835,25.309-15.85,34.53-29.884,4.572-29.845,4.569ZM1204.2,748.914l29.884-4.572,29.845-4.566,44.041,25.427-7.91,17.229-7.921,17.254-59.806,9.152-43.986-25.394Zm285.329-11.494-15.852,34.53-29.884,4.572-29.845,4.569-44.041-25.427,7.91-17.235,7.921-17.251,59.806-9.152Zm-28.474-60.6-7.91,17.232-7.921,17.251-59.806,9.152-43.986-25.394,15.853-34.53,29.884-4.572,29.845-4.566Zm-44.332-26.135-29.884,4.575-29.845,4.566L1313.1,634.481,1328.931,600l59.809-9.152,43.835,25.309Zm92.4-78.722-15.852,34.53-29.884,4.572-29.845,4.569-43.893-25.345,15.831-34.483,59.806-9.152Zm-28.474-60.6-15.83,34.486L1405.009,555l-43.838-25.309,15.852-34.527,29.884-4.575,29.845-4.567Zm-28.331-60.576-15.852,34.53-29.884,4.572-29.845,4.566-43.893-25.342,15.83-34.483,59.809-9.152Zm-44.3-26.118-59.808,9.152-43.835-25.309,15.852-34.53,29.884-4.575,29.845-4.566,43.893,25.342Zm92.394-78.722-15.852,34.53-59.806,9.152-43.838-25.309,15.852-34.53,29.884-4.575,29.925-4.578Zm-131.932-76.829,59.644-9.128,43.984,25.4-15.861,34.552-29.922,4.577-29.848,4.566-43.893-25.342Zm-1.415-.159-15.852,34.53-59.806,9.152-43.838-25.309,15.852-34.53,29.884-4.572,29.925-4.58Zm-132.006-76.818L1294.772,183l43.984,25.4-15.86,34.552-29.925,4.577-29.845,4.569-43.945-25.375Zm-1.341-.17L1217.86,226.5l-59.806,9.152-43.89-25.339,15.852-34.53,29.884-4.572,29.922-4.58Zm-132.187-76.829,59.844-9.155,43.986,25.394L1189.5,165.93l-29.925,4.577-29.845,4.569-44.041-25.43Zm-76.544,44.195,59.767-9.147,44.014,25.41-15.85,34.53L1083.03,214.7l-29.845,4.569-44.044-25.43Zm-76.541,44.189,59.767-9.144,44.014,25.41-15.852,34.53-29.884,4.572L976.64,263.46,932.6,238.031ZM871.9,247.718l59.767-9.147,44.014,25.411-15.85,34.53-29.884,4.572L900.1,307.652l-44.044-25.43ZM795.355,291.91l59.767-9.147,44.014,25.41L883.284,342.7,853.4,347.275l-29.845,4.569-44.041-25.43ZM718.811,336.1l59.767-9.144,44.014,25.41-15.85,34.53-29.884,4.572-29.845,4.569-44.044-25.43ZM642.27,380.294l59.767-9.147,44.014,25.411L730.2,431.087l-29.884,4.572-29.843,4.569L626.428,414.8Zm-76.544,44.189,59.767-9.144,44.014,25.41-15.85,34.53-29.884,4.572-29.845,4.566-44.044-25.427Zm-76.541,44.192,59.767-9.144,44.014,25.41-15.852,34.53-29.884,4.572-29.843,4.566-44.044-25.427ZM412.64,512.87l59.767-9.147,44.014,25.41-15.85,34.53-29.884,4.572L440.843,572.8,396.8,547.375ZM336.1,557.059l59.767-9.144,44.014,25.41-15.852,34.53-29.884,4.572L364.3,616.994l-44.044-25.427Zm-76.544,44.192,59.767-9.144,44.014,25.41-15.85,34.53L317.6,656.619l-29.845,4.566-44.041-25.427Zm-92.4,78.744,15.863-34.552,59.767-9.144,44.014,25.411-15.852,34.53-29.884,4.572-29.922,4.58ZM299.3,756.9l-59.718,9.138-43.984-25.4,15.863-34.552,29.922-4.577,29.845-4.569,43.945,25.375Zm1.341.167,15.852-34.53,59.809-9.149,43.888,25.339-15.85,34.53L374.46,777.83l-29.925,4.58Zm131.986,76.859-59.644,9.128L329,817.661l15.863-34.552,29.922-4.58,29.845-4.566L448.525,799.3ZM537.69,850.244,507.8,854.818,477.882,859.4l-43.836-25.309,15.85-34.53,59.809-9.149,43.835,25.306Zm104.895,16.343-59.809,9.149L538.941,850.43,554.793,815.9l29.884-4.572,29.845-4.566L658.416,832.1ZM747.578,883.04l-29.884,4.572-29.845,4.569-43.893-25.342,15.83-34.486,59.806-9.152,43.838,25.309Zm104.895,16.34-59.806,9.152-43.838-25.309,15.852-34.53,29.884-4.572,29.845-4.567L868.3,864.9Zm76.544-44.192-59.808,9.152-43.835-25.309,15.852-34.53,29.884-4.572,29.845-4.566,43.893,25.342Zm104.993,16.456-29.884,4.572-29.845,4.566-43.893-25.339,15.83-34.486,59.806-9.152,43.838,25.309Zm112.964-.828-7.921,17.254-59.806,9.152-43.986-25.394,15.852-34.53L1081,832.726l29.845-4.567,44.041,25.427Zm68.623-26.938-59.809,9.152-43.984-25.394,15.852-34.53,29.881-4.572,29.845-4.566,44.044,25.427-7.91,17.232Zm104.993,16.456-29.884,4.572-29.845,4.569-44.041-25.43,7.91-17.229,7.921-17.254,59.806-9.152,43.984,25.394Zm105.032,16.45-59.767,9.144-44.014-25.411,15.852-34.53,29.884-4.572,29.845-4.566,44.041,25.427Z" transform="translate(288.848 183.281)" fill="url(#radial-gradient-2)" style="mix-blend-mode: color-dodge;isolation: isolate"/>
    <path id="Path_865" data-name="Path 865" d="M1514.147,806.493l-11.98,26.1-59.767,9.144-44.014-25.41,15.85-34.53,29.887-4.572,29.843-4.567,40.182,23.2v-1.078l-39.217-22.643,15.85-34.53,23.367-3.576v-.749l-23.655,3.62-44.044-25.43,7.91-17.229,7.921-17.254,51.869-7.937v-.771l-52.187,7.984-43.984-25.394,15.853-34.53,29.884-4.572,29.843-4.567,20.592,11.889v-1.081l-19.629-11.333,15.852-34.53,3.777-.579v-.749l-4.067.623L1466.186,546.1l15.831-34.486,32.13-4.915v-.88l-32.6,4.989L1437.715,485.5l15.85-34.527,29.884-4.575,29.848-4.566.85.491v-3.686l-1.141,2.49-29.884,4.572-29.845,4.567-43.893-25.342,15.83-34.486,59.806-9.149,29.127,16.815v-1.078l-28.222-16.294,15.9-34.623,12.325-1.887v-.751l-12.857,1.966-43.836-25.306,16.047-34.958-45.012-25.986-60.544,9.265-43.838-25.309,16.047-34.955-45.012-25.989-60.546,9.265-43.888-25.339,16.047-34.955-45.012-25.989-61.246,9.372-16.036,34.933-60.505,9.259-16.039,34.936-60.505,9.256-16.036,34.933-60.505,9.259-16.039,34.933-60.505,9.259L778.29,326.247l-60.505,9.259-16.039,34.933L641.241,379.7l-16.036,34.933L564.7,423.891l-16.036,34.933-60.508,9.259L472.12,503.016l-60.505,9.259-16.036,34.933-60.508,9.259L319.034,591.4l-60.505,9.259-16.036,34.933-60.508,9.259-16.231,35.361,44.5,25.69L194.2,740.857l45.012,25.989,60.546-9.265,43.89,25.339L327.6,817.875l45.012,25.989L433.16,834.6,477,859.909l-16.047,34.955,24.815,14.328h1.769L462.348,894.65,478.211,860.1l29.922-4.58,29.845-4.567,43.893,25.342-15.1,32.9h1.486l14.986-32.646,59.808-9.152L686.887,892.7l-7.57,16.489h1.336l7.487-16.3,29.884-4.572,29.845-4.566,43.893,25.342-.047.1h2.4l58.824-9,15.589,9h1.87l-16.555-9.558,15.83-34.483L929.484,856l43.835,25.309-12.8,27.884h1.336l12.718-27.7,29.884-4.572,29.845-4.569,44.041,25.43-5.238,11.412h1.3l5.164-11.245,59.806-9.152,35.328,20.4h1.87l-36.293-20.954,7.91-17.232,7.921-17.251,59.809-9.152L1259.9,870l-15.852,34.53-29.884,4.572-.6.093h4.9l25.871-3.958,6.857,3.958h1.868l-7.762-4.481,15.85-34.53,29.886-4.572,29.843-4.567,44.044,25.427-10.433,22.723h1.3l10.356-22.555,60.505-9.259,16.036-34.933,60.508-9.259,10.951-23.861Zm-117.012,9.649-29.886,4.575-29.843,4.566-44.044-25.43,7.91-17.229,7.921-17.254L1369,756.218l43.984,25.394ZM1012.8,550.565l-15.85,34.53-29.886,4.572-29.843,4.567-43.9-25.342,15.83-34.486,59.809-9.149ZM969.866,524.7,985.7,490.216l59.806-9.152,43.838,25.309-15.852,34.53-29.884,4.572-29.845,4.566Zm-33.611,70.058L920.4,629.286l-29.884,4.572-29.845,4.567-43.893-25.342,15.83-34.483,59.806-9.152Zm1.251.184,29.884-4.575,29.845-4.567,43.893,25.342-15.83,34.483-59.806,9.155L921.653,629.47Zm60.692-9.662,15.852-34.53,29.884-4.575,29.843-4.566,43.9,25.342-15.83,34.486-59.809,9.149Zm76.544-44.195,15.85-34.527,29.884-4.575,29.845-4.567,43.893,25.342-15.831,34.486-59.806,9.152Zm75.291-44.373-29.884,4.572-29.845,4.567-43.9-25.342,15.83-34.483,59.809-9.152,43.835,25.309Zm-28.452-60.648-59.808,9.152-43.835-25.309,15.852-34.53,29.884-4.572,29.843-4.569,43.9,25.345Zm-60.714,9.706-15.83,34.486-59.806,9.152L941.395,464.1l15.85-34.53L987.128,425l29.845-4.569Zm-76.541,44.195-15.831,34.483L908.686,533.6,864.851,508.29,880.7,473.76l29.884-4.575,29.843-4.566Zm-76.544,44.189-15.831,34.486-59.806,9.152-43.838-25.309,15.852-34.53,29.884-4.572,29.845-4.569ZM831.24,578.345l-15.83,34.486L755.6,621.983l-43.838-25.309,15.852-34.53,29.884-4.572L787.347,553ZM754.7,622.539l-15.83,34.483-59.806,9.152-43.838-25.309,15.852-34.53,29.884-4.575,29.845-4.567Zm-76.541,44.189-15.831,34.486-59.806,9.152L558.68,685.058l15.852-34.53,29.884-4.575,29.845-4.567Zm1.371.252,59.806-9.149,43.838,25.309-15.852,34.53-29.884,4.572-29.845,4.567L663.7,701.467Zm60.711-9.706,15.83-34.483,59.809-9.152,43.835,25.309-15.85,34.53-29.884,4.572-29.845,4.566Zm120.728-18.142,29.884-4.575,29.845-4.567,43.893,25.342-15.83,34.486-59.809,9.152-43.835-25.312Zm104.993,16.453,59.806-9.152,43.836,25.312-15.85,34.53-29.884,4.572-29.845,4.567-43.893-25.342Zm60.711-9.706,15.831-34.486,59.808-9.152,43.835,25.309-15.852,34.53-29.884,4.575-29.843,4.566Zm120.725-18.145,29.887-4.572,29.843-4.567,43.9,25.342-15.83,34.486-59.809,9.149-43.836-25.309Zm59.441-9.846-29.884,4.575-29.845,4.567-43.893-25.342,15.831-34.486,59.806-9.152,43.838,25.309ZM1179.754,557.5l15.831-34.486,59.809-9.152,43.835,25.312L1283.376,573.7l-29.884,4.575-29.845,4.567Zm75.173-44.444-59.809,9.152-43.835-25.309,15.852-34.53,29.884-4.575,29.843-4.566,43.9,25.342Zm-28.353-60.533-29.884,4.572-29.845,4.566-43.893-25.342,15.831-34.483,59.806-9.152,43.838,25.309Zm-28.452-60.648-59.806,9.152-43.835-25.309,15.85-34.53,29.884-4.572,29.845-4.566,43.893,25.342Zm-28.353-60.533-29.884,4.572-29.845,4.569L1066.094,315.1l15.83-34.483,59.806-9.152,43.891,25.339ZM1109.079,341l-15.852,34.53-29.884,4.572-29.845,4.566L989.55,359.3l15.833-34.483,59.806-9.152Zm-76.544,44.192-15.85,34.53L986.8,424.294l-29.845,4.567-43.948-25.372,15.83-34.483,59.806-9.152Zm-76.541,44.192-15.852,34.53-29.884,4.572-29.845,4.566L836.464,447.68,852.3,413.2l59.806-9.152ZM879.45,473.576l-15.85,34.53-29.886,4.572-29.842,4.569-43.948-25.375,15.83-34.483,59.806-9.152Zm-76.541,44.192L787.056,552.3l-29.884,4.572-29.845,4.566-43.948-25.372,15.831-34.483,59.809-9.152ZM726.364,561.96l-15.852,34.53-29.881,4.572-29.845,4.566-43.948-25.372,15.83-34.483,59.806-9.152Zm-76.541,44.192-15.852,34.53-29.884,4.572-29.845,4.567L530.3,624.448l15.83-34.483,59.806-9.152Zm-76.544,44.192-15.85,34.53-29.884,4.572L497.7,694.012,453.752,668.64l15.831-34.483,59.809-9.152ZM497.988,694.72l29.884-4.575,29.845-4.567,43.893,25.345L585.78,745.406l-59.806,9.152L482.138,729.25Zm104.993,16.453,59.809-9.152,43.835,25.312-15.85,34.53-29.884,4.572L631.047,771l-43.9-25.342Zm104.9,16.343,29.884-4.575,29.845-4.566L811.5,743.717,795.671,778.2l-59.809,9.152-43.835-25.306Zm60.689-9.662,15.852-34.53L814.3,678.75l29.845-4.567,43.893,25.342-15.83,34.486-59.806,9.149Zm120.846-18.077,59.809-9.152,43.835,25.309-15.852,34.53-29.884,4.575-29.843,4.567-43.9-25.342Zm104.895,16.341,29.884-4.572,29.845-4.566,43.9,25.342L1082.1,766.8l-59.809,9.152-43.835-25.309ZM1055,706.456l15.852-34.53,29.884-4.572,29.845-4.566,43.893,25.342-15.83,34.483-59.806,9.152Zm120.846-18.074,59.809-9.152,43.835,25.309-15.852,34.53-29.884,4.575-29.843,4.564-43.9-25.342Zm104.895,16.341,29.886-4.572,29.843-4.566,44.044,25.427-7.91,17.232-7.921,17.251-59.808,9.152-43.984-25.394Zm59.441-9.846-29.884,4.575-29.845,4.567-43.893-25.342,15.83-34.486,59.806-9.152,43.838,25.309Zm-28.452-60.645-59.806,9.149-43.836-25.309,15.85-34.53,29.884-4.572,29.845-4.567,43.893,25.342Zm-27.1-60.352,15.853-34.53,29.884-4.572,29.843-4.566,43.9,25.342-15.831,34.483-59.808,9.152ZM1359.92,529.5l-29.884,4.575-29.845,4.566L1256.3,513.3l15.831-34.486,59.806-9.152,43.838,25.309Zm-28.452-60.645-59.806,9.149L1227.824,452.7l15.852-34.53,29.884-4.575,29.845-4.567,43.893,25.342Zm-28.35-60.533-29.887,4.572-29.842,4.566-43.9-25.342,15.83-34.483,59.808-9.152,43.836,25.309Zm-27.081-60.4,15.83-34.483,59.806-9.152,43.838,25.309-15.852,34.53-29.884,4.572-29.845,4.567Zm-1.371-.252-59.809,9.152-43.835-25.309,15.852-34.53,29.884-4.572,29.845-4.569,43.893,25.342Zm-28.353-60.533-29.884,4.572-29.845,4.569-43.948-25.375,15.831-34.483,59.809-9.152,43.89,25.339ZM1141.319,270.69l-59.809,9.152L1037.62,254.5l15.852-34.53,29.884-4.572,29.845-4.566,43.948,25.372Zm-60.714,9.709-15.83,34.483-59.806,9.152L961.079,298.7l15.852-34.53,29.884-4.572,29.845-4.566Zm-76.541,44.192-15.83,34.483-59.808,9.152-43.888-25.339,15.85-34.53,29.884-4.572,29.845-4.566ZM927.52,368.783l-15.83,34.483-59.806,9.152-43.89-25.339,15.852-34.53,29.884-4.572,29.845-4.569Zm-76.541,44.192-15.831,34.483-59.809,9.152-43.888-25.339,15.85-34.53,29.884-4.572,29.845-4.569Zm-76.544,44.192L758.6,491.65,698.8,500.8l-43.89-25.339,15.852-34.53,29.884-4.572,29.845-4.569Zm-76.541,44.192-15.83,34.483-59.806,9.152-43.89-25.339,15.85-34.53,29.884-4.575,29.845-4.564Zm-76.544,44.192-15.83,34.483-59.806,9.152-43.89-25.339,15.852-34.53,29.884-4.572,29.843-4.569Zm-76.541,44.192-15.83,34.483-59.806,9.152-43.89-25.339,15.85-34.53,29.884-4.572,29.845-4.569Zm-76.544,44.192-15.83,34.483-59.806,9.152-43.89-25.339,15.852-34.53,29.884-4.575,29.843-4.567Zm-76.541,44.192L375.892,712.61l-59.809,9.152L272.2,696.423l15.85-34.53,29.884-4.575,29.845-4.566Zm1.319.219,59.806-9.149,43.89,25.339-15.852,34.53L451,733.638,421.156,738.2l-43.945-25.372Zm28.405,60.565,29.884-4.575,29.845-4.566,43.893,25.342L509.238,789.6l-59.809,9.152-43.836-25.309ZM526.44,755.365l59.806-9.149,43.838,25.309-15.852,34.53-29.884,4.572L554.5,815.193,510.61,789.851Zm104.895,16.341,29.884-4.572,29.845-4.566,43.893,25.342-15.83,34.483-59.806,9.152-43.835-25.306Zm105,16.456,59.806-9.152,43.835,25.309-15.852,34.53-29.884,4.575-29.843,4.567-43.9-25.345Zm60.711-9.706,15.83-34.486,59.806-9.149,43.838,25.306-15.852,34.53-29.884,4.575L840.935,803.8ZM917.767,760.31l29.884-4.572,29.845-4.566,43.893,25.342L1005.559,811l-59.806,9.152L901.915,794.84Zm104.993,16.456,59.808-9.152,43.836,25.309-15.852,34.53-29.884,4.572-29.843,4.569-43.9-25.345Zm60.714-9.709,15.83-34.483,59.806-9.152,43.835,25.309-15.85,34.53-29.884,4.572-29.845,4.569ZM1204.2,748.914l29.884-4.572,29.845-4.566,44.041,25.427-7.91,17.229-7.921,17.254-59.806,9.152-43.986-25.394Zm285.329-11.494-15.852,34.53-29.884,4.572-29.845,4.569-44.041-25.427,7.91-17.235,7.921-17.251,59.806-9.152Zm-28.474-60.6-7.91,17.232-7.921,17.251-59.806,9.152-43.986-25.394,15.853-34.53,29.884-4.572,29.845-4.566Zm-44.332-26.135-29.884,4.575-29.845,4.566L1313.1,634.481,1328.931,600l59.809-9.152,43.835,25.309Zm92.4-78.722-15.852,34.53-29.884,4.572-29.845,4.569-43.893-25.345,15.831-34.483,59.806-9.152Zm-28.474-60.6-15.83,34.486L1405.009,555l-43.838-25.309,15.852-34.527,29.884-4.575,29.845-4.567Zm-28.331-60.576-15.852,34.53-29.884,4.572-29.845,4.566-43.893-25.342,15.83-34.483,59.809-9.152Zm-44.3-26.118-59.808,9.152-43.835-25.309,15.852-34.53,29.884-4.575,29.845-4.566,43.893,25.342Zm92.394-78.722-15.852,34.53-59.806,9.152-43.838-25.309,15.852-34.53,29.884-4.575,29.925-4.578Zm-131.932-76.829,59.644-9.128,43.984,25.4-15.861,34.552-29.922,4.577-29.848,4.566-43.893-25.342Zm-1.415-.159-15.852,34.53-59.806,9.152-43.838-25.309,15.852-34.53,29.884-4.572,29.925-4.58Zm-132.006-76.818L1294.772,183l43.984,25.4-15.86,34.552-29.925,4.577-29.845,4.569-43.945-25.375Zm-1.341-.17L1217.86,226.5l-59.806,9.152-43.89-25.339,15.852-34.53,29.884-4.572,29.922-4.58Zm-132.187-76.829,59.844-9.155,43.986,25.394L1189.5,165.93l-29.925,4.577-29.845,4.569-44.041-25.43Zm-76.544,44.195,59.767-9.147,44.014,25.41-15.85,34.53L1083.03,214.7l-29.845,4.569-44.044-25.43Zm-76.541,44.189,59.767-9.144,44.014,25.41-15.852,34.53-29.884,4.572L976.64,263.46,932.6,238.031ZM871.9,247.718l59.767-9.147,44.014,25.411-15.85,34.53-29.884,4.572L900.1,307.652l-44.044-25.43ZM795.355,291.91l59.767-9.147,44.014,25.41L883.284,342.7,853.4,347.275l-29.845,4.569-44.041-25.43ZM718.811,336.1l59.767-9.144,44.014,25.41-15.85,34.53-29.884,4.572-29.845,4.569-44.044-25.43ZM642.27,380.294l59.767-9.147,44.014,25.411L730.2,431.087l-29.884,4.572-29.843,4.569L626.428,414.8Zm-76.544,44.189,59.767-9.144,44.014,25.41-15.85,34.53-29.884,4.572-29.845,4.566-44.044-25.427Zm-76.541,44.192,59.767-9.144,44.014,25.41-15.852,34.53-29.884,4.572-29.843,4.566-44.044-25.427ZM412.64,512.87l59.767-9.147,44.014,25.41-15.85,34.53-29.884,4.572L440.843,572.8,396.8,547.375ZM336.1,557.059l59.767-9.144,44.014,25.41-15.852,34.53-29.884,4.572L364.3,616.994l-44.044-25.427Zm-76.544,44.192,59.767-9.144,44.014,25.41-15.85,34.53L317.6,656.619l-29.845,4.566-44.041-25.427Zm-92.4,78.744,15.863-34.552,59.767-9.144,44.014,25.411-15.852,34.53-29.884,4.572-29.922,4.58ZM299.3,756.9l-59.718,9.138-43.984-25.4,15.863-34.552,29.922-4.577,29.845-4.569,43.945,25.375Zm1.341.167,15.852-34.53,59.809-9.149,43.888,25.339-15.85,34.53L374.46,777.83l-29.925,4.58Zm131.986,76.859-59.644,9.128L329,817.661l15.863-34.552,29.922-4.58,29.845-4.566L448.525,799.3ZM537.69,850.244,507.8,854.818,477.882,859.4l-43.836-25.309,15.85-34.53,59.809-9.149,43.835,25.306Zm104.895,16.343-59.809,9.149L538.941,850.43,554.793,815.9l29.884-4.572,29.845-4.566L658.416,832.1ZM747.578,883.04l-29.884,4.572-29.845,4.569-43.893-25.342,15.83-34.486,59.806-9.152,43.838,25.309Zm104.895,16.34-59.806,9.152-43.838-25.309,15.852-34.53,29.884-4.572,29.845-4.567L868.3,864.9Zm76.544-44.192-59.808,9.152-43.835-25.309,15.852-34.53,29.884-4.572,29.845-4.566,43.893,25.342Zm104.993,16.456-29.884,4.572-29.845,4.566-43.893-25.339,15.83-34.486,59.806-9.152,43.838,25.309Zm112.964-.828-7.921,17.254-59.806,9.152-43.986-25.394,15.852-34.53L1081,832.726l29.845-4.567,44.041,25.427Zm68.623-26.938-59.809,9.152-43.984-25.394,15.852-34.53,29.881-4.572,29.845-4.566,44.044,25.427-7.91,17.232Zm104.993,16.456-29.884,4.572-29.845,4.569-44.041-25.43,7.91-17.229,7.921-17.254,59.806-9.152,43.984,25.394Zm105.032,16.45-59.767,9.144-44.014-25.411,15.852-34.53,29.884-4.572,29.845-4.566,44.041,25.427Z" transform="translate(288.848 183.281)" fill="url(#radial-gradient-3)" style="mix-blend-mode: color-dodge;isolation: isolate"/>
    <circle id="Ellipse_18" data-name="Ellipse 18" cx="25.873" cy="25.873" r="25.873" transform="translate(1074.476 901.126)" fill="url(#radial-gradient-4)" style="mix-blend-mode: screen;isolation: isolate"/>
    <circle id="Ellipse_19" data-name="Ellipse 19" cx="25.873" cy="25.873" r="25.873" transform="translate(1047.108 840.026)" fill="url(#radial-gradient-4)" style="mix-blend-mode: screen;isolation: isolate"/>
    <circle id="Ellipse_21" data-name="Ellipse 21" cx="25.873" cy="25.873" r="25.873" transform="translate(1155.789 964) rotate(-22.637)" fill="url(#radial-gradient-6)" style="mix-blend-mode: screen;isolation: isolate"/>
    <circle id="Ellipse_22" data-name="Ellipse 22" cx="25.873" cy="25.873" r="25.873" transform="translate(1256.996 872.821)" fill="url(#radial-gradient-4)" style="mix-blend-mode: screen;isolation: isolate"/>
    <circle id="Ellipse_23" data-name="Ellipse 23" cx="25.873" cy="25.873" r="25.873" transform="translate(1345.543 925.023)" fill="url(#radial-gradient-4)" style="mix-blend-mode: screen;isolation: isolate"/>
    <circle id="Ellipse_24" data-name="Ellipse 24" cx="25.873" cy="25.873" r="25.873" transform="translate(1050.321 710.412)" fill="url(#radial-gradient-4)" style="mix-blend-mode: screen;isolation: isolate"/>
    <circle id="Ellipse_25" data-name="Ellipse 25" cx="25.873" cy="25.873" r="25.873" transform="translate(1429.465 619.597)" fill="url(#radial-gradient-4)" style="mix-blend-mode: screen;isolation: isolate"/>
    <circle id="Ellipse_26" data-name="Ellipse 26" cx="25.873" cy="25.873" r="25.873" transform="translate(1269 969.215)" fill="url(#radial-gradient-4)" style="mix-blend-mode: screen;isolation: isolate"/>
    <circle id="Ellipse_27" data-name="Ellipse 27" cx="25.872" cy="25.872" r="25.872" transform="translate(1419.386 928.055) rotate(-81.467)" fill="url(#radial-gradient-12)" style="mix-blend-mode: screen;isolation: isolate"/>
    <circle id="Ellipse_28" data-name="Ellipse 28" cx="25.873" cy="25.873" r="25.873" transform="translate(1486.596 740.523)" fill="url(#radial-gradient-4)" style="mix-blend-mode: screen;isolation: isolate"/>
    <circle id="Ellipse_29" data-name="Ellipse 29" cx="18.326" cy="18.326" r="18.326" transform="translate(1389.565 732.157)" fill="url(#radial-gradient-4)" style="mix-blend-mode: screen;isolation: isolate"/>
    <circle id="Ellipse_30" data-name="Ellipse 30" cx="18.326" cy="18.326" r="18.326" transform="translate(856.303 910.361)" fill="url(#radial-gradient-15)" style="mix-blend-mode: color-dodge;isolation: isolate"/>
    <circle id="Ellipse_31" data-name="Ellipse 31" cx="18.326" cy="18.326" r="18.326" transform="translate(1502.574 974.411)" fill="url(#radial-gradient-16)" style="mix-blend-mode: color-dodge;isolation: isolate"/>
    <circle id="Ellipse_32" data-name="Ellipse 32" cx="18.326" cy="18.326" r="18.326" transform="translate(1598.48 764.272)" fill="url(#radial-gradient-16)" style="mix-blend-mode: color-dodge;isolation: isolate"/>
    <circle id="Ellipse_33" data-name="Ellipse 33" cx="18.326" cy="18.326" r="18.326" transform="translate(1200.195 1019.615)" fill="url(#radial-gradient-15)" style="mix-blend-mode: color-dodge;isolation: isolate"/>
    <circle id="Ellipse_34" data-name="Ellipse 34" cx="18.326" cy="18.326" r="18.326" transform="translate(953.405 701.353)" fill="url(#radial-gradient-19)" style="mix-blend-mode: color-dodge;isolation: isolate"/>
    <circle id="Ellipse_35" data-name="Ellipse 35" cx="18.326" cy="18.326" r="18.326" transform="translate(1522.732 808.255)" fill="url(#radial-gradient-16)" style="mix-blend-mode: color-dodge;isolation: isolate"/>
    <circle id="Ellipse_36" data-name="Ellipse 36" cx="18.326" cy="18.326" r="18.326" transform="translate(1618.638 599.949)" fill="url(#radial-gradient-16)" style="mix-blend-mode: color-dodge;isolation: isolate"/>
    <circle id="Ellipse_37" data-name="Ellipse 37" cx="18.326" cy="18.326" r="18.326" transform="translate(1114.82 838.616)" fill="url(#radial-gradient-15)" style="mix-blend-mode: color-dodge;isolation: isolate"/>
    <circle id="Ellipse_38" data-name="Ellipse 38" cx="18.326" cy="18.326" r="18.326" transform="translate(905.496 805.629)" fill="url(#radial-gradient-15)" style="mix-blend-mode: color-dodge;isolation: isolate"/>
    <circle id="Ellipse_39" data-name="Ellipse 39" cx="18.326" cy="18.326" r="18.326" transform="translate(1006.385 952.308)" fill="url(#radial-gradient-15)" style="mix-blend-mode: color-dodge;isolation: isolate"/>
    <circle id="Ellipse_40" data-name="Ellipse 40" cx="18.326" cy="18.326" r="18.326" transform="translate(1579.715 930.325)" fill="url(#radial-gradient-16)" style="mix-blend-mode: color-dodge;isolation: isolate"/>
    <circle id="Ellipse_41" data-name="Ellipse 41" cx="18.326" cy="18.326" r="18.326" transform="translate(941.282 605.889)" fill="url(#radial-gradient-15)" style="mix-blend-mode: color-dodge;isolation: isolate"/>
    <circle id="Ellipse_42" data-name="Ellipse 42" cx="18.326" cy="18.326" r="18.326" transform="translate(986.276 495.698)" fill="url(#radial-gradient-15)" style="mix-blend-mode: color-dodge;isolation: isolate"/>
  </g>
</svg>
