<svg xmlns="http://www.w3.org/2000/svg" xmlns:xlink="http://www.w3.org/1999/xlink" width="679.222" height="597.452" viewBox="0 0 679.222 597.452">
  <defs>
    <linearGradient id="linear-gradient" x1="0.873" y1="0.124" x2="0.147" y2="0.835" gradientUnits="objectBoundingBox">
      <stop offset="0" stop-color="#ff1c26"/>
      <stop offset="1" stop-color="#a9030b"/>
    </linearGradient>
    <linearGradient id="linear-gradient-2" x1="0.929" y1="0.131" x2="0.178" y2="0.873" gradientUnits="objectBoundingBox">
      <stop offset="0" stop-color="#ff1c26"/>
      <stop offset="0.189" stop-color="#ff3400"/>
      <stop offset="1" stop-color="#910007"/>
    </linearGradient>
    <linearGradient id="linear-gradient-3" x1="21.3" y1="0.5" x2="22.3" y2="0.5" gradientUnits="objectBoundingBox">
      <stop offset="0" stop-color="#910007"/>
      <stop offset="1" stop-color="#ff1c26"/>
    </linearGradient>
    <linearGradient id="linear-gradient-4" x1="0.854" y1="-0.202" x2="0.162" y2="0.805" gradientUnits="objectBoundingBox">
      <stop offset="0" stop-color="#ff1c26"/>
      <stop offset="1" stop-color="#890007"/>
    </linearGradient>
    <linearGradient id="linear-gradient-5" x1="0.847" y1="0.158" x2="0.156" y2="0.857" gradientUnits="objectBoundingBox">
      <stop offset="0" stop-color="#ff1c26"/>
      <stop offset="1" stop-color="#560407"/>
    </linearGradient>
    <linearGradient id="linear-gradient-6" x1="0.826" y1="0.131" x2="0.146" y2="0.861" gradientUnits="objectBoundingBox">
      <stop offset="0" stop-color="#3d4151"/>
      <stop offset="1" stop-color="#141824"/>
    </linearGradient>
    <linearGradient id="linear-gradient-7" x1="705.159" y1="-100.056" x2="706.369" y2="-100.056" gradientUnits="objectBoundingBox">
      <stop offset="0" stop-color="#3d065f"/>
      <stop offset="1" stop-color="#5f27bd"/>
    </linearGradient>
    <radialGradient id="radial-gradient" cx="0.5" cy="0.499" r="1.238" gradientTransform="translate(0.351) scale(0.298 1)" gradientUnits="objectBoundingBox">
      <stop offset="0" stop-color="#fff"/>
      <stop offset="1"/>
    </radialGradient>
    <clipPath id="clip-path">
      <path id="Path_9312" data-name="Path 9312" d="M160.567,330.952l162.38-94.123,24.609-22.094V191.383L277.5,104.265,102.369,77.5,52.612,195.874l20.477,91.968Z" transform="translate(-52.612 -77.502)" fill="#fff"/>
    </clipPath>
    <linearGradient id="linear-gradient-8" x1="0.381" y1="0.808" x2="0.554" y2="0.102" gradientUnits="objectBoundingBox">
      <stop offset="0" stop-color="#910007"/>
      <stop offset="1" stop-color="#c21a22"/>
    </linearGradient>
    <linearGradient id="linear-gradient-9" x1="0.5" y1="0.091" x2="0.5" y2="0.913" gradientUnits="objectBoundingBox">
      <stop offset="0" stop-color="#e17e83"/>
      <stop offset="1" stop-color="#ffc6c9"/>
    </linearGradient>
    <linearGradient id="linear-gradient-10" x1="0.278" y1="0.779" x2="0.749" y2="0.25" gradientUnits="objectBoundingBox">
      <stop offset="0" stop-color="#c21a22"/>
      <stop offset="1" stop-color="#c21a22"/>
    </linearGradient>
  </defs>
  <g id="_297_Converted_" data-name="297 [Converted]" transform="translate(-270.86 -50.36)">
    <path id="Path_9133" data-name="Path 9133" d="M591.111,266.693l-3.734-2.208a1.084,1.084,0,1,1,1.1-1.867l3.734,2.208a1.08,1.08,0,0,1,.382,1.486,1.1,1.1,0,0,1-.943.542A1.124,1.124,0,0,1,591.111,266.693Zm-7.468-4.4-3.734-2.208a1.085,1.085,0,0,1,1.1-1.867l3.734,2.208a1.08,1.08,0,0,1,.381,1.486,1.1,1.1,0,0,1-.943.542A1.3,1.3,0,0,1,583.643,262.3Zm-7.468-4.4-3.734-2.208a1.085,1.085,0,0,1,1.1-1.867l3.734,2.208a1.08,1.08,0,0,1,.381,1.486,1.1,1.1,0,0,1-.943.542A1.3,1.3,0,0,1,576.175,257.9Zm-7.488-4.417-3.734-2.208a1.085,1.085,0,0,1,1.1-1.867l3.734,2.208a1.08,1.08,0,0,1,.381,1.486,1.1,1.1,0,0,1-.944.542A1.124,1.124,0,0,1,568.687,253.484Zm-7.468-4.4-3.734-2.208a1.084,1.084,0,1,1,1.1-1.867l3.734,2.208a1.08,1.08,0,0,1,.382,1.486,1.1,1.1,0,0,1-.944.542A1.123,1.123,0,0,1,561.219,249.087Zm-7.468-4.4-3.734-2.208a1.084,1.084,0,1,1,1.1-1.867l3.734,2.208a1.08,1.08,0,0,1,.382,1.486,1.1,1.1,0,0,1-.943.542A1.4,1.4,0,0,1,553.751,244.691Z" transform="translate(280.714 191.53)" fill="#910007"/>
    <path id="Path_9134" data-name="Path 9134" d="M533.111,299.093l-3.734-2.208a1.084,1.084,0,0,1,1.1-1.867l3.734,2.208a1.08,1.08,0,0,1,.381,1.486,1.1,1.1,0,0,1-.944.542A1.305,1.305,0,0,1,533.111,299.093Zm-7.488-4.417-3.734-2.208a1.085,1.085,0,0,1,1.1-1.867l3.734,2.208a1.08,1.08,0,0,1,.381,1.486,1.1,1.1,0,0,1-.943.542A.943.943,0,0,1,525.623,294.677Zm-7.468-4.4-3.734-2.208a1.085,1.085,0,1,1,1.1-1.867l3.734,2.208a1.08,1.08,0,0,1,.381,1.486,1.1,1.1,0,0,1-.943.542A1.123,1.123,0,0,1,518.155,290.28Zm-7.468-4.4-3.734-2.208a1.084,1.084,0,1,1,1.1-1.867l3.734,2.208a1.08,1.08,0,0,1,.381,1.486,1.1,1.1,0,0,1-.944.542A1.4,1.4,0,0,1,510.687,285.884Zm-7.468-4.4-3.734-2.208a1.084,1.084,0,1,1,1.1-1.867l3.734,2.208a1.08,1.08,0,0,1,.381,1.486,1.1,1.1,0,0,1-.944.542A1.3,1.3,0,0,1,503.219,281.487Zm-7.468-4.416-3.734-2.208a1.085,1.085,0,0,1,1.1-1.867l3.734,2.208a1.08,1.08,0,0,1,.382,1.486,1.1,1.1,0,0,1-.943.542A1.064,1.064,0,0,1,495.751,277.071Z" transform="translate(222.279 224.153)" fill="#910007"/>
    <path id="Path_9135" data-name="Path 9135" d="M479.631,330.173l-3.734-2.208A1.084,1.084,0,1,1,477,326.1l3.734,2.208a1.08,1.08,0,0,1,.381,1.486,1.1,1.1,0,0,1-.944.542A1.124,1.124,0,0,1,479.631,330.173Zm-7.468-4.4-3.734-2.208a1.085,1.085,0,0,1,1.1-1.867l3.734,2.208a1.08,1.08,0,0,1,.381,1.486,1.1,1.1,0,0,1-.944.542A1.124,1.124,0,0,1,472.163,325.777Zm-7.468-4.4-3.734-2.208a1.085,1.085,0,1,1,1.1-1.867l3.734,2.208A1.08,1.08,0,0,1,466.18,321a1.1,1.1,0,0,1-.944.542A1.4,1.4,0,0,1,464.695,321.38Zm-7.468-4.4-3.734-2.208a1.084,1.084,0,0,1,1.1-1.867l3.734,2.208a1.08,1.08,0,0,1,.381,1.486,1.1,1.1,0,0,1-.944.542A1.3,1.3,0,0,1,457.227,316.984Zm-7.468-4.416-3.734-2.208a1.084,1.084,0,1,1,1.1-1.867l3.734,2.208a1.08,1.08,0,0,1,.381,1.486,1.1,1.1,0,0,1-.943.542A1.063,1.063,0,0,1,449.759,312.567Zm-7.488-4.4-3.734-2.208a1.085,1.085,0,1,1,1.1-1.867l3.734,2.208a1.08,1.08,0,0,1,.381,1.486,1.1,1.1,0,0,1-.943.542A1.4,1.4,0,0,1,442.271,308.171Z" transform="translate(168.398 255.486)" fill="#910007"/>
    <g id="Group_1473" data-name="Group 1473" transform="translate(353.699 281.877)">
      <g id="Group_1464" data-name="Group 1464" transform="translate(269.015 41.603)">
        <g id="Group_1462" data-name="Group 1462">
          <path id="Path_9136" data-name="Path 9136" d="M581.722,223.408,522,257.9l-59.6-34.409L522.12,189l59.6,34.409Zm4.457,0-64.079-37-64.18,37.058,64.079,37,64.18-37.058Z" transform="translate(-434.252 -186.41)" fill="#565656"/>
          <path id="Path_9137" data-name="Path 9137" d="M517.388,245,453.57,208.146l2.59-1.506L519.978,243.5Z" transform="translate(-438.634 -166.028)" fill="#565656"/>
          <path id="Path_9138" data-name="Path 9138" d="M513.7,247.133,449.88,210.276l2.59-1.506,63.818,36.858Z" transform="translate(-442.352 -163.882)" fill="#565656"/>
          <path id="Path_9139" data-name="Path 9139" d="M480.157,232.079,446.13,212.426l2.59-1.486,34.027,19.633Z" transform="translate(-446.13 -161.696)" fill="#565656"/>
        </g>
        <g id="Group_1463" data-name="Group 1463" transform="translate(82.689 47.758)">
          <path id="Path_9140" data-name="Path 9140" d="M622.922,247.178,563.2,281.667l-59.6-34.409L563.32,212.77l59.6,34.409Zm4.457.02-64.079-37-64.18,37.058,64.079,37,64.18-37.058Z" transform="translate(-475.432 -210.2)" fill="#565656"/>
          <path id="Path_9141" data-name="Path 9141" d="M558.6,268.773,494.76,231.936l2.59-1.506,63.838,36.858Z" transform="translate(-479.824 -189.818)" fill="#565656"/>
          <path id="Path_9142" data-name="Path 9142" d="M554.908,270.9,491.07,234.046l2.59-1.486L557.5,269.418Z" transform="translate(-483.542 -187.672)" fill="#565656"/>
          <path id="Path_9143" data-name="Path 9143" d="M521.347,255.879,487.32,236.226l2.61-1.506,34.007,19.653Z" transform="translate(-487.32 -185.496)" fill="#565656"/>
        </g>
      </g>
      <g id="Group_1467" data-name="Group 1467" transform="translate(157.94 105.722)">
        <g id="Group_1465" data-name="Group 1465">
          <path id="Path_9144" data-name="Path 9144" d="M526.4,255.348l-59.723,34.489-59.6-34.409L466.8,220.94l59.6,34.409Zm4.456,0-64.079-37L402.6,255.408l64.079,37,64.18-37.058Z" transform="translate(-378.912 -218.35)" fill="#565656"/>
          <path id="Path_9145" data-name="Path 9145" d="M462.078,276.933,398.24,240.076l2.59-1.486,63.838,36.838Z" transform="translate(-383.304 -197.958)" fill="#565656"/>
          <path id="Path_9146" data-name="Path 9146" d="M458.388,279.063,394.55,242.206l2.59-1.486,63.838,36.838Z" transform="translate(-387.022 -195.812)" fill="#565656"/>
          <path id="Path_9147" data-name="Path 9147" d="M424.827,264.019,390.8,244.386l2.59-1.506,34.027,19.653Z" transform="translate(-390.8 -193.636)" fill="#565656"/>
        </g>
        <g id="Group_1466" data-name="Group 1466" transform="translate(82.709 47.758)">
          <path id="Path_9148" data-name="Path 9148" d="M567.6,279.138l-59.723,34.489-59.6-34.409L508,244.73l59.6,34.409Zm4.457,0-64.079-37L443.8,279.2l64.079,37,64.18-37.058Z" transform="translate(-420.112 -242.14)" fill="#565656"/>
          <path id="Path_9149" data-name="Path 9149" d="M503.258,300.713,439.44,263.876l2.59-1.506,63.818,36.858Z" transform="translate(-424.504 -221.758)" fill="#565656"/>
          <path id="Path_9150" data-name="Path 9150" d="M499.568,302.843,435.75,266.006l2.59-1.506,63.838,36.858Z" transform="translate(-428.222 -219.612)" fill="#565656"/>
          <path id="Path_9151" data-name="Path 9151" d="M466.027,287.809,432,268.156l2.59-1.486L468.617,286.3Z" transform="translate(-432 -217.426)" fill="#565656"/>
        </g>
      </g>
      <g id="Group_1470" data-name="Group 1470" transform="translate(46.383 170.143)">
        <g id="Group_1468" data-name="Group 1468">
          <path id="Path_9152" data-name="Path 9152" d="M470.832,287.418l-59.723,34.489-59.6-34.409L411.23,253.01l59.6,34.409Zm4.457.02-64.079-37L347.03,287.5l64.079,37,64.18-37.058Z" transform="translate(-323.342 -250.44)" fill="#565656"/>
          <path id="Path_9153" data-name="Path 9153" d="M406.508,309.013,342.67,272.156l2.59-1.486L409.1,307.528Z" transform="translate(-327.734 -230.058)" fill="#565656"/>
          <path id="Path_9154" data-name="Path 9154" d="M402.818,311.143,338.98,274.286l2.59-1.486,63.838,36.858Z" transform="translate(-331.452 -227.912)" fill="#565656"/>
          <path id="Path_9155" data-name="Path 9155" d="M369.257,296.1,335.23,276.466l2.59-1.506,34.027,19.653Z" transform="translate(-335.23 -225.736)" fill="#565656"/>
        </g>
        <g id="Group_1469" data-name="Group 1469" transform="translate(82.709 47.738)">
          <path id="Path_9156" data-name="Path 9156" d="M512.032,311.218l-59.723,34.489-59.6-34.408L452.43,276.81l59.6,34.409Zm4.457,0-64.079-37-64.18,37.058,64.079,37,64.18-37.058Z" transform="translate(-364.542 -274.22)" fill="#565656"/>
          <path id="Path_9157" data-name="Path 9157" d="M447.688,332.813,383.87,295.956l2.59-1.506,63.818,36.858Z" transform="translate(-368.934 -253.838)" fill="#565656"/>
          <path id="Path_9158" data-name="Path 9158" d="M444,334.943,380.18,298.086l2.59-1.506,63.838,36.858Z" transform="translate(-372.652 -251.692)" fill="#565656"/>
          <path id="Path_9159" data-name="Path 9159" d="M410.457,319.889,376.43,300.236l2.59-1.486,34.027,19.633Z" transform="translate(-376.43 -249.506)" fill="#565656"/>
        </g>
      </g>
      <g id="Group_1472" data-name="Group 1472">
        <path id="Path_9160" data-name="Path 9160" d="M512.056,174l21.822,12.607a3.573,3.573,0,0,0,3.252,0c.9-.522.883-1.365-.02-1.887l-21.822-12.607a3.573,3.573,0,0,0-3.252,0C511.153,172.658,511.153,173.5,512.056,174ZM531.649,187.9l-21.822-12.607a3.573,3.573,0,0,0-3.252,0c-.9.522-.883,1.365.02,1.887l21.821,12.607a3.573,3.573,0,0,0,3.252,0A1,1,0,0,0,531.649,187.9Zm-5.48,3.172L504.347,178.46a3.573,3.573,0,0,0-3.252,0c-.9.522-.883,1.365.02,1.887l21.822,12.607a3.573,3.573,0,0,0,3.252,0A1,1,0,0,0,526.169,191.067Z" transform="translate(-122.411 -159.602)" fill="#45108a"/>
        <path id="Path_9161" data-name="Path 9161" d="M475.826,493.618,319.864,403.562c-10.278-5.922-10.319-15.558-.12-21.44L687,170.09c10.2-5.9,26.86-5.862,37.139.06L880.1,260.207c10.278,5.922,10.319,15.558.12,21.44L512.965,493.679C502.767,499.581,486.1,499.541,475.826,493.618Zm246.822-322.6c-9.455-5.46-24.773-5.48-34.168-.06L321.229,382.985c-9.395,5.42-9.335,14.273.1,19.734l155.962,90.056c9.455,5.46,24.773,5.48,34.168.06L878.711,280.8c9.4-5.42,9.335-14.273-.1-19.734Z" transform="translate(-312.125 -165.686)" fill="#565656"/>
        <path id="Path_9162" data-name="Path 9162" d="M582.636,218.735c0,.662-.943,1.2-2.088,1.2-1.164,0-2.108-.542-2.108-1.225,0-.662.943-1.2,2.088-1.2C581.672,217.53,582.616,218.072,582.636,218.735Z" transform="translate(-43.813 -113.474)" fill="#565656"/>
        <g id="Group_1471" data-name="Group 1471" transform="translate(535.269 95.564)">
          <path id="Path_9163" data-name="Path 9163" d="M579.1,213.29h-.341v1.2h.341c8.692.02,15.779,4.115,15.8,9.134v.04h2.108v-.04C596.988,217.947,588.938,213.29,579.1,213.29Z" transform="translate(-578.76 -213.29)" fill="#565656"/>
          <path id="Path_9164" data-name="Path 9164" d="M579.111,215.7c-.12,0-.221.02-.341.02v1.2c.12,0,.221-.02.341-.02,4.055,0,7.368,1.927,7.368,4.256v.02l2.108.02v-.04C588.587,218.169,584.331,215.72,579.111,215.7Z" transform="translate(-578.75 -210.862)" fill="#565656"/>
          <path id="Path_9165" data-name="Path 9165" d="M579.111,214.49h-.341v1.2h.341c6.364.02,11.563,3.011,11.583,6.685v.04H592.8v-.04C592.782,218.063,586.639,214.51,579.111,214.49Z" transform="translate(-578.75 -212.081)" fill="#565656"/>
        </g>
        <path id="Path_9166" data-name="Path 9166" d="M590.325,226.415,527.37,190.079l4.075-2.369L594.4,224.066Z" transform="translate(-95.266 -143.497)" fill="#565656"/>
      </g>
    </g>
    <g id="Group_1481" data-name="Group 1481" transform="translate(273.329 133.664)">
      <g id="Group_1474" data-name="Group 1474" transform="translate(0 48.267)" opacity="0.2">
        <path id="Path_9167" data-name="Path 9167" d="M497.833,514.89c10.861,0,20.737-2.369,28.526-6.866L923.7,279.31c10.4-6,16.361-15.5,16.361-26.057,0-11.583-7.187-22.364-19.714-29.591l-171.4-98.95c-9.837-5.681-22.143-8.813-34.629-8.813-10.861,0-20.738,2.369-28.527,6.866L288.451,351.48c-10.4,6-16.361,15.5-16.361,26.057,0,11.583,7.187,22.363,19.694,29.59l171.4,98.95A70.294,70.294,0,0,0,497.833,514.89Z" transform="translate(-272.09 -115.9)" opacity="0"/>
        <path id="Path_9168" data-name="Path 9168" d="M685.592,122.987,288.228,351.7c-10,5.762-15.658,14.835-15.6,24.873.04,10.961,6.926,21.239,18.951,28.165l163.691,94.513c.261.16,8.271,4.718,8.572,4.818a68.213,68.213,0,0,0,34.85,7.809,61.173,61.173,0,0,0,28.125-7.508L921.975,276.922c10-5.762,15.659-14.835,15.6-24.873-.04-10.961-6.926-21.239-18.951-28.165L748.246,125.517a71.152,71.152,0,0,0-12.627-5.621,73.161,73.161,0,0,0-21.661-3.533C703.178,116.242,693.3,118.53,685.592,122.987Z" transform="translate(-271.546 -115.439)" opacity="0.091"/>
        <path id="Path_9169" data-name="Path 9169" d="M685.37,123.22,288.006,351.934c-9.576,5.541-14.936,14.153-14.835,23.668.1,10.359,6.665,20.115,18.188,26.76l164.454,94.955c.522.3,8.05,4.557,8.652,4.738a66.182,66.182,0,0,0,35.071,6.806c8.893,0,21.34-4.477,27.724-8.15L920.227,274.525c9.576-5.541,14.936-14.153,14.835-23.668-.1-10.359-6.665-20.115-18.188-26.76L747.522,126.332a81.228,81.228,0,0,0-12.487-5.7,73.752,73.752,0,0,0-21.46-3.814C702.916,116.616,693.019,118.8,685.37,123.22Z" transform="translate(-271.003 -114.99)" opacity="0.182"/>
        <path id="Path_9170" data-name="Path 9170" d="M685.148,123.449,287.784,352.163c-9.174,5.3-14.213,13.47-14.073,22.464.141,9.756,6.4,18.971,17.425,25.335l165.217,95.4c.783.462,7.829,4.4,8.753,4.677a64.272,64.272,0,0,0,35.292,5.822c7.91,0,21.641-5.521,27.322-8.793L918.5,272.144c9.174-5.3,14.213-13.47,14.073-22.464-.141-9.756-6.424-18.991-17.425-25.335L746.818,127.163a95.3,95.3,0,0,0-12.346-5.8,72.881,72.881,0,0,0-21.259-4.075C702.633,116.965,692.716,119.073,685.148,123.449Z" transform="translate(-270.459 -114.536)" opacity="0.273"/>
        <path id="Path_9171" data-name="Path 9171" d="M684.927,123.687,287.563,352.4c-8.773,5.059-13.51,12.808-13.31,21.279.2,9.154,6.163,17.847,16.662,23.909l166,95.838c1.044.6,7.608,4.216,8.833,4.6a62.189,62.189,0,0,0,35.513,4.818c6.906,0,21.962-6.565,26.921-9.415L916.773,269.753c8.773-5.059,13.51-12.808,13.31-21.279-.2-9.154-6.163-17.847-16.662-23.909l-167.3-96.6a109,109,0,0,0-12.226-5.882,72.791,72.791,0,0,0-21.059-4.336C702.352,117.344,692.415,119.351,684.927,123.687Z" transform="translate(-269.917 -114.092)" opacity="0.364"/>
        <path id="Path_9172" data-name="Path 9172" d="M684.685,123.913,287.342,352.627c-8.351,4.818-12.788,12.125-12.547,20.075.241,8.552,5.9,16.722,15.9,22.5l166.763,96.28A88.581,88.581,0,0,0,466.39,496c11.122,4.878,24.632,6.3,35.733,3.834,5.922,0,22.263-7.608,26.519-10.058l386.4-222.411c8.351-4.818,12.788-12.125,12.547-20.075-.241-8.552-5.9-16.722-15.9-22.5l-166.281-96c-2.128-1.225-9.636-5.079-12.085-5.962a72.045,72.045,0,0,0-20.838-4.6C702.07,117.71,692.113,119.637,684.685,123.913Z" transform="translate(-269.374 -113.635)" opacity="0.454"/>
        <path id="Path_9173" data-name="Path 9173" d="M684.466,124.163,287.122,352.878c-7.95,4.6-12.085,11.443-11.784,18.87.3,7.93,5.641,15.6,15.137,21.079L458.02,489.548a81.6,81.6,0,0,0,9.014,4.437c11.382,4.718,25.134,5.8,35.954,2.831,4.938,0,22.564-8.652,26.118-10.7L913.32,264.969c7.95-4.6,12.085-11.443,11.784-18.87-.3-7.95-5.641-15.6-15.136-21.079L744.711,129.6c-1.787-1.024-9.917-5.3-11.945-6.063a71.453,71.453,0,0,0-20.637-4.858C701.79,118.1,691.833,119.928,684.466,124.163Z" transform="translate(-268.833 -113.202)" opacity="0.545"/>
        <path id="Path_9174" data-name="Path 9174" d="M684.246,124.375,286.9,353.109c-7.528,4.356-11.362,10.78-11.021,17.666.341,7.327,5.38,14.474,14.374,19.653l168.309,97.183a69.305,69.305,0,0,0,9.114,4.376c11.643,4.557,25.636,5.3,36.175,1.847,3.955,0,22.885-9.7,25.716-11.322L911.595,262.631c7.528-4.356,11.362-10.78,11.021-17.666-.341-7.327-5.38-14.474-14.374-19.653L744.009,130.5c-1.425-.823-10.2-5.521-11.8-6.143-6.324-2.449-13.249-4.617-20.436-5.119C701.51,118.432,691.533,120.179,684.246,124.375Z" transform="translate(-268.292 -112.731)" opacity="0.636"/>
        <path id="Path_9175" data-name="Path 9175" d="M684.036,124.662,286.692,353.376c-7.127,4.115-10.66,10.1-10.278,16.482.4,6.725,5.139,13.35,13.611,18.248L459.116,485.73a63.139,63.139,0,0,0,9.194,4.3c11.884,4.4,26.138,4.8,36.4.843,2.971,0,23.187-10.74,25.314-11.965L909.84,260.268c7.127-4.115,10.66-10.1,10.278-16.482-.4-6.725-5.139-13.35-13.611-18.248L743.3,131.307c-1.064-.622-10.459-5.762-11.684-6.243-6.243-2.489-13.089-4.8-20.236-5.4C701.24,118.84,691.243,120.486,684.036,124.662Z" transform="translate(-267.762 -112.316)" opacity="0.727"/>
        <path id="Path_9176" data-name="Path 9176" d="M683.828,124.9,286.464,353.616c-6.725,3.874-9.937,9.415-9.516,15.277.442,6.123,4.878,12.226,12.848,16.823l169.854,98.066A54.771,54.771,0,0,0,468.925,488c12.145,4.236,26.639,4.3,36.637-.141,1.967,0,23.488-11.784,24.913-12.607l377.63-217.372c6.725-3.874,9.937-9.415,9.516-15.277-.442-6.123-4.878-12.226-12.848-16.823l-162.186-93.63c-.7-.4-10.74-6-11.543-6.324-6.163-2.549-12.928-5-20.015-5.661C700.972,119.221,690.954,120.767,683.828,124.9Z" transform="translate(-267.232 -111.873)" opacity="0.818"/>
        <path id="Path_9177" data-name="Path 9177" d="M683.612,125.155,286.248,353.869c-6.3,3.634-9.234,8.753-8.753,14.073.5,5.521,4.617,11.1,12.085,15.4L460.2,481.847a49.357,49.357,0,0,0,9.375,4.135c12.406,4.075,27.141,3.814,36.858-1.144.984,0,23.789-12.828,24.512-13.229L906.384,255.5c6.3-3.634,9.234-8.753,8.753-14.073-.5-5.521-4.617-11.1-12.085-15.4L741.89,132.984c-.361-.2-11-6.243-11.4-6.424-6.1-2.59-12.768-5.179-19.814-5.922C700.7,119.614,690.659,121.08,683.612,125.155Z" transform="translate(-266.695 -111.444)" opacity="0.909"/>
        <path id="Path_9178" data-name="Path 9178" d="M507.3,481.874,904.663,253.14c11.924-6.886,10.439-18.911-3.332-26.86l-171.4-98.95c-13.771-7.95-34.609-8.813-46.534-1.927L286.032,354.117c-11.924,6.886-10.439,18.911,3.332,26.86l171.4,98.95C474.536,487.9,495.374,488.76,507.3,481.874Z" transform="translate(-266.158 -111.009)"/>
      </g>
      <path id="Path_9179" data-name="Path 9179" d="M451.25,460.811,291.011,368.305c-18.068-10.439-15.8-28.667,5.059-40.712L672.857,110.021c20.878-12.045,52.436-13.35,70.523-2.931L903.619,199.6c18.068,10.439,15.8,28.667-5.059,40.712L521.773,457.88C500.9,469.925,469.317,471.23,451.25,460.811Z" transform="translate(-265.315 -83.595)" fill="url(#linear-gradient)"/>
      <path id="Path_9180" data-name="Path 9180" d="M451.254,459.431,291.016,366.925c-8.07-4.657-12.085-10.881-12.206-17.405,0-.582.02-13.149.06-13.711.663-7.568,6.484-3.393,17.2-9.6L672.862,108.661c20.878-12.045,52.436-13.35,70.523-2.931l160.238,92.505c8.07,4.657,12.085-3.533,12.206,2.991.02.562,0,15.558-.06,16.12-.642,7.568-6.464,15.418-17.2,21.6L521.777,456.5C500.9,468.545,469.321,469.87,451.254,459.431Z" transform="translate(-265.32 -84.965)" fill="url(#linear-gradient-2)"/>
      <path id="Path_9181" data-name="Path 9181" d="M451.25,452.591,291.011,360.085c-18.068-10.439-15.8-28.667,5.059-40.712L672.857,101.821c20.878-12.045,52.436-13.35,70.523-2.931L903.619,191.4c18.068,10.439,15.8,28.667-5.059,40.712L521.773,449.66C500.9,461.7,469.317,463.03,451.25,452.591Z" transform="translate(-265.315 -91.856)" fill="url(#linear-gradient-3)"/>
      <path id="Path_9182" data-name="Path 9182" d="M291.008,299.891l160.238,92.526c18.068,10.439,49.645,9.134,70.523-2.931L898.557,171.933c10.981-6.344,16.8-14.394,17.224-22.123.462,8.271-5.38,17.084-17.224,23.929L521.77,391.272c-20.878,12.045-52.436,13.35-70.523,2.931L291.008,301.7c-8.552-4.939-12.547-11.644-12.165-18.589C279.184,289.391,283.179,295.374,291.008,299.891Z" transform="translate(-265.312 -33.468)" fill="url(#linear-gradient-4)"/>
      <path id="Path_9183" data-name="Path 9183" d="M297.113,320.227,674.362,102.414c18.288-10.559,45.972-11.7,61.811-2.57l159.4,92.024c15.839,9.154,13.852,25.134-4.437,35.693L513.882,445.375c-18.288,10.559-45.972,11.7-61.811,2.57l-159.4-92.024C276.837,346.767,278.825,330.787,297.113,320.227Z" transform="translate(-262.122 -90.021)" fill="url(#linear-gradient-5)"/>
      <path id="Path_9184" data-name="Path 9184" d="M299.52,320.538,674.9,103.808c15.317-8.833,38.484-9.8,51.753-2.148l155.983,90.056c13.269,7.649,11.6,21.039-3.714,29.872L503.541,438.318c-15.317,8.833-38.484,9.8-51.753,2.148L295.806,350.409C282.536,342.741,284.2,329.371,299.52,320.538Z" transform="translate(-257.222 -87.179)" fill="#500004"/>
      <path id="Path_9185" data-name="Path 9185" d="M723.023,103.229c-12.507-7.227-32.7-7.247-45.129-.08L298.377,322.267c-12.426,7.167-12.366,18.83.141,26.057l152.369,87.969c12.507,7.227,32.7,7.247,45.129.08L875.533,217.255c12.426-7.167,12.366-18.83-.14-26.057Z" transform="translate(-254.955 -85.877)" fill="#030000"/>
      <path id="Path_9186" data-name="Path 9186" d="M472.037,437.081c7.95,0,15.377-1.747,20.9-4.938L872.453,213.025c4.979-2.871,7.729-6.524,7.729-10.278,0-3.794-2.79-7.488-7.869-10.419L719.923,104.359c-5.6-3.232-13.129-5.019-21.139-5.019-7.95,0-15.377,1.747-20.878,4.938l-379.538,219.1c-4.979,2.871-7.729,6.524-7.729,10.278,0,3.794,2.79,7.488,7.869,10.419l152.369,87.969C456.5,435.295,464.007,437.081,472.037,437.081Z" transform="translate(-253.401 -84.317)" fill="url(#linear-gradient-6)"/>
      <path id="Path_9187" data-name="Path 9187" d="M554.065,198.761l17.465-10.078c2.188-1.265,3.955-4.637,3.955-7.548h0c0-2.911-1.767-4.236-3.955-2.991l-17.465,10.078c-2.188,1.265-3.955,4.637-3.955,7.548h0C550.13,198.7,551.9,200.026,554.065,198.761Z" transform="translate(8.014 -5.392)" fill="#c21a22"/>
      <path id="Path_9188" data-name="Path 9188" d="M554.065,198.761l17.465-10.078c2.188-1.265,3.955-4.637,3.955-7.548h0c0-2.911-1.767-4.236-3.955-2.991l-17.465,10.078c-2.188,1.265-3.955,4.637-3.955,7.548h0C550.13,198.7,551.9,200.026,554.065,198.761Z" transform="translate(8.014 -5.392)" fill="#910007"/>
      <path id="Path_9189" data-name="Path 9189" d="M551.975,197.693a2.187,2.187,0,0,0,1.044-.341l17.465-10.078c1.867-1.084,3.433-4.115,3.433-6.645,0-1.124-.361-2.429-1.345-2.429a2.188,2.188,0,0,0-1.044.341l-17.465,10.078c-1.867,1.084-3.433,4.115-3.433,6.645C550.63,196.388,550.991,197.693,551.975,197.693Z" transform="translate(8.538 -4.866)" fill="#c21a22"/>
      <path id="Path_9190" data-name="Path 9190" d="M538.535,207.731,556,197.654c2.188-1.265,3.955-4.637,3.955-7.548h0c0-2.911-1.767-4.236-3.955-2.991l-17.465,10.078c-2.188,1.265-3.955,4.637-3.955,7.548h0C534.58,207.651,536.346,209,538.535,207.731Z" transform="translate(-7.632 3.645)" fill="url(#linear-gradient-7)"/>
      <path id="Path_9191" data-name="Path 9191" d="M538.535,207.731,556,197.654c2.188-1.265,3.955-4.637,3.955-7.548h0c0-2.911-1.767-4.236-3.955-2.991l-17.465,10.078c-2.188,1.265-3.955,4.637-3.955,7.548h0C534.58,207.651,536.346,209,538.535,207.731Z" transform="translate(-7.632 3.645)" fill="#910007"/>
      <path id="Path_9192" data-name="Path 9192" d="M536.445,206.663a2.188,2.188,0,0,0,1.044-.341l17.465-10.078c1.867-1.084,3.433-4.115,3.433-6.645,0-1.124-.361-2.429-1.345-2.429a2.188,2.188,0,0,0-1.044.341l-17.465,10.078c-1.867,1.084-3.433,4.115-3.433,6.645C535.1,205.338,535.441,206.663,536.445,206.663Z" transform="translate(-7.108 4.172)" fill="#c21a22"/>
      <path id="Path_9193" data-name="Path 9193" d="M460.72,323.377,715.291,175.746c10.74-6.2,16.562-14.032,17.2-21.6.02-.261.04-3.312.04-6.685,0,.06,0,15.719-.04,16.3-.642,7.568-6.464,15.418-17.2,21.6Z" transform="translate(-82.046 -35.836)" fill="#910007"/>
      <path id="Path_9194" data-name="Path 9194" d="M362.875,264.411l-48.8-28.185c-4.818-2.79-4.216-7.649,1.345-10.861l45.691-26.378c5.561-3.212,13.992-3.573,18.81-.783l48.8,28.185c4.818,2.79,4.216,7.649-1.345,10.861l-45.691,26.379C376.125,266.86,367.693,267.2,362.875,264.411Z" transform="translate(-233.07 13.394)" fill="#ff1c26"/>
      <path id="Path_9195" data-name="Path 9195" d="M427.361,218.54,381.67,244.918c-5.561,3.212-13.992,3.573-18.81.783l-48.8-28.185a5.993,5.993,0,0,1-3.152-3.794c-.361,2.048.642,4.055,3.152,5.521l48.8,28.185c4.818,2.79,13.249,2.429,18.81-.783l45.691-26.379c3.493-2.008,5.019-4.677,4.5-7.066C431.536,215.067,430.031,216.994,427.361,218.54Z" transform="translate(-233.055 30.397)" fill="url(#radial-gradient)"/>
      <path id="Path_9196" data-name="Path 9196" d="M317.5,253.708l28.687,16.562h0c0-5.24-3.192-11.322-7.107-13.591l-14.454-8.351c-3.935-2.268-7.127.141-7.127,5.38Z" transform="translate(-226.339 64.929)"/>
      <g id="Group_1475" data-name="Group 1475" transform="translate(272.907 224.789)">
        <path id="Path_9197" data-name="Path 9197" d="M436.854,244.26,410.275,228.9c-2.971-1.726-2.991-4.5-.04-6.2l20.477-11.824a12.121,12.121,0,0,1,10.158-.3l7.388-4.256c5.782-3.332,15.217-3.312,21.018.04l6.645,3.834c5.822,3.353,5.842,8.793.06,12.145l-7.388,4.256c2.409,1.726,2.248,4.256-.5,5.862L447.614,244.28A11.886,11.886,0,0,1,436.854,244.26Zm2.81-32.321a7.888,7.888,0,0,0-7.127-.02l-20.477,11.824c-1.967,1.124-1.947,2.971.02,4.115l26.579,15.357a7.888,7.888,0,0,0,7.127.02l20.477-11.824c1.967-1.124,1.947-2.971-.02-4.115L465,226.574l9.154-5.28c4.778-2.77,4.758-7.267-.06-10.058l-6.645-3.834c-4.818-2.77-12.627-2.79-17.405-.04l-9.154,5.28Zm21.561,12.467-16.562-9.556,7.508-4.336a14.118,14.118,0,0,1,12.748.02l3.774,2.188c3.533,2.028,3.533,5.34.04,7.347ZM448.3,214.85l12.928,7.468,5.7-3.292c2.509-1.445,2.489-3.814-.02-5.26l-3.774-2.188a10.058,10.058,0,0,0-9.114-.02Z" transform="translate(-408.034 -203.831)" fill="#ff1c26"/>
        <path id="Path_9198" data-name="Path 9198" d="M423.329,224.145l-5.139-2.971,5.2-3.011c-.5-1.3.161-2.67,1.807-3.634a10.631,10.631,0,0,1,9.6.02c2.65,1.526,2.67,4.015.04,5.541a10.574,10.574,0,0,1-6.284,1.044Z" transform="translate(-397.801 -194.196)" fill="#ff1c26"/>
      </g>
      <path id="Path_9199" data-name="Path 9199" d="M377.927,207.4c-8.351-3.834-20.537-3.935-28.968-.241-6.4,2.811-9.877,7.227-9.315,11.844.261,2.088-1,4.115-3.473,5.521l-3.473,2.008c-1.847,1.064-2.148,2.67-.984,3.955l-3.393,1.967c-2.028,1.184-2.028,3.092.02,4.276l2.75,1.586a8.228,8.228,0,0,0,7.408.02l3.393-1.967a9.211,9.211,0,0,0,6.846-.562l3.473-2.008a18.79,18.79,0,0,1,9.776-2.008c6.765.241,13.37-1.2,18.148-3.955C390.012,222.153,389.29,212.577,377.927,207.4Zm-15.8,22.906a22.635,22.635,0,0,0-11.744,2.429l-3.473,2.007a5.1,5.1,0,0,1-4.577,0l-2.77-1.606,16-9.234,9.5.02a1.477,1.477,0,0,0,1.184-.462c.2-.281.08-.6-.281-.8l-10.5-6.063a1.953,1.953,0,0,0-1.405-.161c-.482.12-.8.381-.783.683l.04,5.982-15.578,8.994-3.192-1.847a1.4,1.4,0,0,1-.02-2.65L338,225.586c2.991-1.726,4.517-4.155,4.216-6.685-.5-4.115,2.61-8.05,8.311-10.559,7.508-3.292,18.369-3.212,25.8.2a20.717,20.717,0,0,1,1.887.964c8.271,4.778,8.311,12.527.1,17.285C374.053,229.24,368.171,230.524,362.128,230.3Z" transform="translate(-216.966 21.584)" fill="#fff"/>
      <g id="Group_1476" data-name="Group 1476" transform="translate(194.388 278.191)">
        <path id="Path_9200" data-name="Path 9200" d="M426.855,233.72l-3.393-1.967a12.2,12.2,0,0,0-11-.02L389.475,245c-5.661-.582-11.383.462-15.438,2.81-6.846,3.955-6.826,10.419.08,14.394s18.088,3.995,24.933.04c4.055-2.349,5.842-5.641,4.858-8.913l22.986-13.27C429.906,238.317,429.886,235.466,426.855,233.72Zm-1.767,5.3-23.949,13.832.141.381c1.084,2.911-.422,5.882-4.035,7.97-5.862,3.393-15.458,3.373-21.36-.04s-5.942-8.953-.06-12.326c3.613-2.088,8.773-2.951,13.812-2.329l.662.08,23.949-13.832a8.208,8.208,0,0,1,7.428.02l3.393,1.967C427.116,235.928,427.136,237.855,425.089,239.02Z" transform="translate(-368.921 -230.432)" fill="#ff1c26"/>
        <path id="Path_9201" data-name="Path 9201" d="M411.7,236.734l-3.393-1.967a2.937,2.937,0,0,0-2.71,0l-17.124,9.877-2.449-.3a17.992,17.992,0,0,0-10.78,1.807c-4.577,2.65-4.557,6.946.06,9.616,4.6,2.65,12.065,2.67,16.642.04,2.81-1.626,3.995-3.955,3.152-6.223l-.522-1.405L411.7,238.3C412.444,237.878,412.444,237.175,411.7,236.734Z" transform="translate(-365.993 -226.4)" fill="#ff1c26"/>
      </g>
      <g id="Group_1477" data-name="Group 1477" transform="translate(196.454 175.208)">
        <path id="Path_9202" data-name="Path 9202" d="M428.187,188.8l-2.67-1.546,1.907-1.1c1.3-.743,1.285-1.967-.02-2.73l-3.975-2.289a5.149,5.149,0,0,0-4.718,0l-1.907,1.1-3.734-2.148c-2.449-1.405-6.846-1.245-9.616.361L372.58,198.278c-1.666.964-2.63,2.309-2.63,3.714a3.563,3.563,0,0,0,2.008,3.051l2.67,1.546-2.048,1.184c-1.3.743-1.285,1.967.02,2.73l3.975,2.289a5.149,5.149,0,0,0,4.718,0l2.048-1.184,3.734,2.148a8.582,8.582,0,0,0,4.236,1,11.166,11.166,0,0,0,5.36-1.345l30.875-17.827c1.666-.964,2.63-2.309,2.63-3.714A3.507,3.507,0,0,0,428.187,188.8Zm-1.666,4.938-30.875,17.827c-2.128,1.225-5.7,1.385-7.488.361L373.042,203.2c-.361-.2-.944-.642-.944-1.225,0-.6.582-1.3,1.566-1.867l30.875-17.827a8.867,8.867,0,0,1,4.316-1.064,6.767,6.767,0,0,1,3.192.7l15.116,8.733c.361.2.944.642.944,1.225C428.087,192.456,427.5,193.159,426.521,193.741Z" transform="translate(-369.95 -179.133)" fill="#ff1c26"/>
        <path id="Path_9203" data-name="Path 9203" d="M384.189,187.118l9.355,5.4L376.4,197.155l27.483-3.654-8.452-4.878,15.779-3.593Z" transform="translate(-363.452 -173.192)" fill="#ff1c26"/>
      </g>
      <g id="Group_1478" data-name="Group 1478" transform="translate(164.374 158.338)">
        <path id="Path_9204" data-name="Path 9204" d="M415.2,242.679a17.807,17.807,0,0,1-8.672-2.008l-48.8-28.185c-2.429-1.405-3.754-3.393-3.754-5.581,0-2.59,1.867-5.139,5.119-7.006L404.78,173.52a23.033,23.033,0,0,1,11.142-2.79,17.807,17.807,0,0,1,8.672,2.008l48.8,28.185c2.429,1.405,3.754,3.393,3.754,5.581,0,2.59-1.867,5.139-5.1,7.006L426.36,239.888A22.947,22.947,0,0,1,415.2,242.679Zm.7-69.961a20.789,20.789,0,0,0-10.138,2.529l-45.691,26.378c-2.61,1.506-4.115,3.433-4.115,5.28,0,1.465.984,2.831,2.75,3.854l48.8,28.185a15.7,15.7,0,0,0,7.669,1.747,20.789,20.789,0,0,0,10.138-2.529l45.691-26.379c2.61-1.506,4.1-3.433,4.1-5.28,0-1.486-.943-2.81-2.75-3.854l-48.8-28.185A15.559,15.559,0,0,0,415.9,172.717Z" transform="translate(-353.97 -170.73)" fill="#910007"/>
      </g>
      <g id="Group_1479" data-name="Group 1479" transform="translate(251.278 208.184)">
        <path id="Path_9205" data-name="Path 9205" d="M458.489,267.509a17.807,17.807,0,0,1-8.672-2.008l-48.8-28.185c-2.429-1.405-3.754-3.373-3.754-5.581,0-2.59,1.867-5.139,5.1-7.006L448.05,198.35a23.033,23.033,0,0,1,11.142-2.79,17.807,17.807,0,0,1,8.672,2.008l48.8,28.185c2.429,1.405,3.754,3.373,3.754,5.581,0,2.59-1.867,5.139-5.1,7.006L469.63,264.7A22.822,22.822,0,0,1,458.489,267.509Zm.7-69.981a20.789,20.789,0,0,0-10.138,2.529l-45.691,26.378c-2.61,1.506-4.1,3.433-4.1,5.28,0,1.465.984,2.831,2.75,3.854l48.8,28.185a15.7,15.7,0,0,0,7.669,1.746,20.789,20.789,0,0,0,10.138-2.529l45.691-26.378c2.61-1.506,4.1-3.433,4.1-5.28,0-1.465-.984-2.831-2.75-3.854l-48.8-28.185A15.7,15.7,0,0,0,459.191,197.527Z" transform="translate(-397.26 -195.56)" fill="#910007"/>
      </g>
      <g id="Group_1480" data-name="Group 1480" transform="translate(163.651 258.553)">
        <path id="Path_9206" data-name="Path 9206" d="M414.839,292.619a17.807,17.807,0,0,1-8.672-2.007l-48.8-28.185c-2.429-1.405-3.754-3.373-3.754-5.581,0-2.59,1.867-5.139,5.1-7.026L404.4,223.44a22.812,22.812,0,0,1,11.142-2.79,17.808,17.808,0,0,1,8.672,2.007l48.8,28.185c2.429,1.405,3.754,3.393,3.754,5.581,0,2.59-1.867,5.139-5.1,7.006L425.98,289.808A22.765,22.765,0,0,1,414.839,292.619Zm.7-69.961a20.789,20.789,0,0,0-10.138,2.529l-45.691,26.379c-2.61,1.506-4.115,3.433-4.1,5.28,0,1.486.944,2.81,2.75,3.854l48.8,28.185a15.7,15.7,0,0,0,7.669,1.746,20.789,20.789,0,0,0,10.138-2.529l45.691-26.379c2.61-1.506,4.1-3.433,4.1-5.28,0-1.465-.984-2.831-2.75-3.854L423.21,224.4A15.7,15.7,0,0,0,415.541,222.657Z" transform="translate(-353.61 -220.65)" fill="#910007"/>
      </g>
    </g>
    <path id="Path_9207" data-name="Path 9207" d="M344.094,242.769c-.562,0-1-.335-1-.761v-.183c0-.426.442-.761,1-.761s1,.335,1,.761v.183C345.1,242.434,344.656,242.769,344.094,242.769Zm0-3.227c-.562,0-1-.335-1-.761v-3.044c0-.426.442-.761,1-.761s1,.335,1,.761v3.044C345.1,239.207,344.656,239.542,344.094,239.542Zm0-6.088c-.562,0-1-.335-1-.761v-3.044c0-.426.442-.761,1-.761s1,.335,1,.761v3.044C345.1,233.119,344.656,233.454,344.094,233.454Zm0-6.088c-.562,0-1-.335-1-.761v-3.044c0-.426.442-.761,1-.761s1,.335,1,.761V226.6C345.1,227.031,344.656,227.366,344.094,227.366Zm0-6.088c-.562,0-1-.335-1-.761v-3.044c0-.426.442-.761,1-.761s1,.335,1,.761v3.044C345.1,220.943,344.656,221.277,344.094,221.277Zm0-6.088c-.562,0-1-.335-1-.761v-3.044c0-.426.442-.761,1-.761s1,.335,1,.761v3.044C345.1,214.854,344.656,215.189,344.094,215.189Zm0-6.088c-.562,0-1-.335-1-.761V205.3c0-.426.442-.761,1-.761s1,.335,1,.761v3.044C345.1,208.766,344.656,209.1,344.094,209.1Zm0-6.088c-.562,0-1-.335-1-.761v-3.044c0-.426.442-.761,1-.761s1,.335,1,.761v3.044C345.1,202.678,344.656,203.013,344.094,203.013Zm0-6.088c-.562,0-1-.335-1-.761v-3.044c0-.426.442-.761,1-.761s1,.335,1,.761v3.044C345.1,196.589,344.656,196.924,344.094,196.924Zm0-6.088c-.562,0-1-.335-1-.761v-3.044c0-.426.442-.761,1-.761s1,.335,1,.761v3.044C345.1,190.5,344.656,190.836,344.094,190.836Zm0-6.088c-.562,0-1-.335-1-.761v-3.044c0-.426.442-.761,1-.761s1,.335,1,.761v3.044C345.1,184.413,344.656,184.748,344.094,184.748Zm0-6.088c-.562,0-1-.335-1-.761v-3.044c0-.426.442-.761,1-.761s1,.335,1,.761V177.9C345.1,178.325,344.656,178.659,344.094,178.659Zm0-6.088c-.562,0-1-.335-1-.761v-3.044c0-.426.442-.761,1-.761s1,.335,1,.761v3.044C345.1,172.236,344.656,172.571,344.094,172.571Zm0-6.088c-.562,0-1-.335-1-.761v-3.044c0-.426.442-.761,1-.761s1,.335,1,.761v3.044C345.1,166.148,344.656,166.483,344.094,166.483Zm0-6.088c-.562,0-1-.335-1-.761v-3.044c0-.426.442-.761,1-.761s1,.335,1,.761v3.044C345.1,160.06,344.656,160.395,344.094,160.395Zm0-6.088c-.562,0-1-.335-1-.761V150.5c0-.426.442-.761,1-.761s1,.335,1,.761v3.044C345.1,153.971,344.656,154.306,344.094,154.306Z" transform="translate(72.772 116.221)" fill="#910007"/>
    <g id="Group_1486" data-name="Group 1486" transform="translate(537.757 50.36)">
      <g id="Mask_Group_5" data-name="Mask Group 5" transform="translate(49.923 73.541)" clip-path="url(#clip-path)">
        <path id="Shadowz2" d="M403.81,213.138,442.173,235.1l.281,12.446,50.95,29.631L566.6,306.246l139.943-33.365-12.286-5.721,49.625-74.217L591.491,101.16Z" transform="translate(-453.733 -72.719)" opacity="0.2"/>
      </g>
      <g id="Group_1482" data-name="Group 1482" transform="translate(85.118 35.553)">
        <path id="Path_9209" data-name="Path 9209" d="M446.21,68.07l148.133,86.182L679.5,166.417,531.268,81.942Z" transform="translate(-446.21 -68.07)" fill="#9a040c"/>
        <path id="Path_9210" data-name="Path 9210" d="M519.97,111V256.383l15.317-8.652.02-3.192,54.423-32.22,3.313,1.225,12.145-7.187V123.165Z" transform="translate(-371.897 -24.818)" fill="#c7666b"/>
        <path id="Path_9211" data-name="Path 9211" d="M594.343,154.252V299.635L446.21,213.393V68.07Z" transform="translate(-446.21 -68.07)" fill="#ed9ca0"/>
      </g>
      <path id="Path_9212" data-name="Path 9212" d="M525.86,161.505l64.822-38.945v77.228l-3.573,2.108-3.312-1.225-54.423,32.22-.02,3.192-3.493,2.068Z" transform="translate(-280.845 22.381)" fill="#f4abaf"/>
      <path id="Path_9213" data-name="Path 9213" d="M582.033,196.541V126.66l-54.423,32.7v69.4Z" transform="translate(-279.082 26.512)" fill="#c21a22"/>
      <path id="Path_9214" data-name="Path 9214" d="M582.033,131.98v-5.32l-54.423,32.7V164.2Z" transform="translate(-279.082 26.512)" fill="#e6e7e8"/>
      <g id="Group_1483" data-name="Group 1483" transform="translate(248.528 156.685)">
        <path id="Path_9215" data-name="Path 9215" d="M582.033,131.241V128.41l-54.423,32.7v2.349Z" transform="translate(-527.61 -128.41)" fill="#e6e7e8"/>
        <path id="Path_9216" data-name="Path 9216" d="M582.033,133.981V131.15l-54.423,32.7V166.2Z" transform="translate(-527.61 -125.649)" fill="#e6e7e8"/>
        <path id="Path_9217" data-name="Path 9217" d="M582.033,136.731V133.9L527.61,166.6v2.349Z" transform="translate(-527.61 -122.879)" fill="#e6e7e8"/>
        <path id="Path_9218" data-name="Path 9218" d="M582.033,139.471V136.64l-54.423,32.7v2.349Z" transform="translate(-527.61 -120.118)" fill="#e6e7e8"/>
        <path id="Path_9219" data-name="Path 9219" d="M582.033,142.221V139.39l-54.423,32.7v2.349Z" transform="translate(-527.61 -117.348)" fill="#e6e7e8"/>
        <path id="Path_9220" data-name="Path 9220" d="M582.033,144.961V142.13l-54.423,32.7v2.349Z" transform="translate(-527.61 -114.587)" fill="#e6e7e8"/>
        <path id="Path_9221" data-name="Path 9221" d="M582.033,147.711V144.88L527.61,177.562v2.369Z" transform="translate(-527.61 -111.817)" fill="#e6e7e8"/>
        <path id="Path_9222" data-name="Path 9222" d="M582.033,150.451V147.62l-54.423,32.7v2.349Z" transform="translate(-527.61 -109.056)" fill="#e6e7e8"/>
        <path id="Path_9223" data-name="Path 9223" d="M582.033,153.191V150.36l-54.423,32.7v2.349Z" transform="translate(-527.61 -106.295)" fill="#e6e7e8"/>
        <path id="Path_9224" data-name="Path 9224" d="M582.033,155.941V153.11l-54.423,32.7v2.349Z" transform="translate(-527.61 -103.525)" fill="#e6e7e8"/>
        <path id="Path_9225" data-name="Path 9225" d="M582.033,158.681V155.85l-54.423,32.7V190.9Z" transform="translate(-527.61 -100.764)" fill="#e6e7e8"/>
        <path id="Path_9226" data-name="Path 9226" d="M582.033,161.431V158.6L527.61,191.3v2.349Z" transform="translate(-527.61 -97.994)" fill="#e6e7e8"/>
      </g>
      <g id="Group_1484" data-name="Group 1484">
        <path id="Path_9227" data-name="Path 9227" d="M555.376,197.605v92.566l-151.566-86.5V110.56Z" transform="translate(-403.81 10.291)" fill="#e17e83"/>
        <path id="Path_9228" data-name="Path 9228" d="M555.376,259.12l71.085-122.257L474.9,50.36,403.81,172.095Z" transform="translate(-403.81 -50.36)" fill="url(#linear-gradient-8)"/>
        <path id="Path_9229" data-name="Path 9229" d="M409.09,200.453v-81.1l32.381,18.971v80.962Z" transform="translate(-398.49 19.147)" fill="#ffdee0"/>
        <path id="Path_9230" data-name="Path 9230" d="M436.195,137.255v72.852L410.84,195.352V122.4Z" transform="translate(-396.727 22.22)" fill="#fdc2c5"/>
        <path id="Path_9231" data-name="Path 9231" d="M479.31,307.872v-91.7L550.094,92.99V268.265Z" transform="translate(-327.744 -7.41)" fill="#c7666b"/>
        <path id="Path_9232" data-name="Path 9232" d="M513.9,96.81l-65.464,38.3V281.56l10.66-6.243V182.651Z" transform="translate(-358.845 -3.562)" fill="#e17e83"/>
        <path id="Path_9233" data-name="Path 9233" d="M412.45,192.8l22.123,12.868V136.308L412.45,123.34Z" transform="translate(-395.105 23.167)" fill="#ff5c63"/>
        <path id="Path_9234" data-name="Path 9234" d="M412.45,192.8l22.123-56.491L412.45,123.34Z" transform="translate(-395.105 23.167)" fill="#ff858b" opacity="0.5"/>
        <path id="Path_9235" data-name="Path 9235" d="M412.45,123.34V192.8l22.123,12.868V136.308Zm20.356,79.276L414.2,191.8V126.411l18.61,10.9Z" transform="translate(-395.105 23.167)" fill="#e5333c" opacity="0.5"/>
        <path id="Path_9236" data-name="Path 9236" d="M474.01,130.882V277.328L423.06,247.7V101.01Z" transform="translate(-384.416 0.67)" fill="url(#linear-gradient-9)"/>
        <path id="Path_9237" data-name="Path 9237" d="M427.69,217.313V136.19l32.361,18.971v80.982Z" transform="translate(-379.751 36.113)" fill="#ffdee0"/>
        <path id="Path_9238" data-name="Path 9238" d="M454.775,154.1v72.852L429.44,212.213V139.24Z" transform="translate(-377.988 39.186)" fill="#ef9fa3"/>
        <path id="Path_9239" data-name="Path 9239" d="M458.2,228.393V147.27l32.381,18.971v80.982Z" transform="translate(-349.012 47.277)" fill="#ffdee0"/>
        <path id="Path_9240" data-name="Path 9240" d="M485.3,165.185v72.852L459.95,223.282V150.33Z" transform="translate(-347.249 50.359)" fill="#ef9fa3"/>
        <path id="Path_9241" data-name="Path 9241" d="M427.69,152.864v-43.8l32.361,18.971v43.663Z" transform="translate(-379.751 8.78)" fill="#ffdee0"/>
        <path id="Path_9242" data-name="Path 9242" d="M454.775,126.975v35.533L429.44,147.753V112.12Z" transform="translate(-377.988 11.863)" fill="#fdc2c5"/>
        <path id="Path_9243" data-name="Path 9243" d="M431.04,209.659l22.123,12.868V153.148L431.04,140.18Z" transform="translate(-376.376 40.133)" fill="#ff5c63"/>
        <path id="Path_9244" data-name="Path 9244" d="M431.04,209.659l22.123-56.511L431.04,140.18Z" transform="translate(-376.376 40.133)" fill="#ff858b"/>
        <path id="Path_9245" data-name="Path 9245" d="M461.56,220.729,483.683,233.6V164.238L461.56,151.27Z" transform="translate(-345.627 51.307)" fill="#ff5c63"/>
        <path id="Path_9246" data-name="Path 9246" d="M461.56,220.729l22.123-56.491L461.56,151.27Z" transform="translate(-345.627 51.307)" fill="#ff858b" opacity="0.5"/>
        <path id="Path_9247" data-name="Path 9247" d="M431.04,145.2l22.123,12.868v-32.04L431.04,113.06Z" transform="translate(-376.376 12.81)" fill="#ff5c63"/>
        <path id="Path_9248" data-name="Path 9248" d="M461.56,151.27v69.459L483.683,233.6V164.238Zm20.356,79.276-18.609-10.82V154.341l18.609,10.9Z" transform="translate(-345.627 51.307)" fill="#e5333c" opacity="0.5"/>
        <path id="Path_9249" data-name="Path 9249" d="M431.04,145.2l22.123-19.172L431.04,113.06Z" transform="translate(-376.376 12.81)" fill="#ff858b"/>
        <path id="Path_9250" data-name="Path 9250" d="M431.04,113.06V145.2l22.123,12.868v-32.04ZM451.4,155.017,432.787,144.2V116.131l18.609,10.9Z" transform="translate(-376.376 12.81)" fill="#e5333c" opacity="0.5"/>
        <path id="Path_9251" data-name="Path 9251" d="M431.04,140.18v69.459l22.123,12.868V153.148Zm20.356,79.3-18.609-10.82V143.272l18.609,10.9Z" transform="translate(-376.376 40.133)" fill="#e5333c" opacity="0.5"/>
        <path id="Path_9252" data-name="Path 9252" d="M488.77,184.41l5.561-3.192,32.622-18.991V114.87Z" transform="translate(-318.213 14.634)" fill="#e4858a"/>
        <path id="Path_9253" data-name="Path 9253" d="M493.42,167.882l25.335-14.735V121.89Z" transform="translate(-313.528 21.706)" fill="#ef9fa3"/>
        <path id="Path_9254" data-name="Path 9254" d="M489.06,165.11l37.6-21.52v81.123l-37.6,21.36Z" transform="translate(-317.921 43.569)" fill="#e4858a"/>
        <path id="Path_9255" data-name="Path 9255" d="M490.81,164.035v72.852L521.384,219.6V146.65Z" transform="translate(-316.158 46.652)" fill="#ef9fa3"/>
        <path id="Path_9256" data-name="Path 9256" d="M518.453,217.14V147.5L490.81,163.179v69.54Z" transform="translate(-316.158 47.508)" fill="#c21a22"/>
        <path id="Path_9257" data-name="Path 9257" d="M490.81,163.179v69.54l27.643-15.578V147.5Zm25.9,52.938-24.13,13.611v-65.5l24.13-13.691Z" transform="translate(-316.158 47.508)" fill="#f2474f"/>
        <path id="Path_9258" data-name="Path 9258" d="M514.474,124.54,494.76,160.334l19.714-11.463Z" transform="translate(-312.178 24.376)" fill="#ff5c63"/>
        <path id="Path_9259" data-name="Path 9259" d="M494.76,160.344l19.734-11.483V124.53Zm17.967-12.487-13.37,7.769,13.37-24.271Z" transform="translate(-312.178 24.366)" fill="#e5333c" opacity="0.5"/>
        <path id="Path_9260" data-name="Path 9260" d="M474.01,149.984l65.464-38.3L488.545,82.05,423.06,120.112Z" transform="translate(-384.416 -18.432)" fill="url(#linear-gradient-10)"/>
      </g>
      <g id="Group_1485" data-name="Group 1485" transform="translate(151.546 256.398)">
        <path id="Path_9261" data-name="Path 9261" d="M484.89,221.269v4.276l70.523-40.009V181.26Z" transform="translate(-473.668 -174.876)" fill="#c21a22"/>
        <path id="Path_9262" data-name="Path 9262" d="M490.542,204.484v4.276l-11.242-6.6V197.92Z" transform="translate(-479.3 -158.091)" fill="#c21a22"/>
        <path id="Path_9263" data-name="Path 9263" d="M479.3,217.909l11.242,6.565,70.5-40.009-10.981-6.384Z" transform="translate(-479.3 -178.08)" fill="#c7666b"/>
      </g>
      <path id="Path_9264" data-name="Path 9264" d="M495.8,170.026A3.936,3.936,0,0,1,494,173.137c-1,.562-1.807.12-1.807-1.024A3.936,3.936,0,0,1,494,169C495,168.44,495.8,168.882,495.8,170.026Z" transform="translate(-312.87 68.927)" fill="#9b1a21"/>
      <path id="Path_9265" data-name="Path 9265" d="M453.75,182.651l54.8-85.841-39.407,94.674Z" transform="translate(-353.496 -3.562)" opacity="0.06"/>
      <path id="Path_9266" data-name="Path 9266" d="M479.3,217.909l81.745-33.445-10.981-6.384Z" transform="translate(-327.754 78.318)" fill="#bc565b"/>
      <path id="Path_9267" data-name="Path 9267" d="M554.72,127.557v69.881l3.312,1.225V125.77Z" transform="translate(-251.769 25.615)" fill="#f1e8f6"/>
    </g>
    <path id="Path_9268" data-name="Path 9268" d="M516.346,274.994l-26.158-15.116-22.7,13.109L493.641,288.1Zm-22.725,11.423-23.207-13.41,19.774-11.423,23.207,13.41Zm37.319-18.308-28.828-16.642a11.715,11.715,0,0,0-10.56-.02L455.84,272.063l39.407,22.765,35.713-20.617C533.871,272.525,533.871,269.794,530.94,268.108Zm-35.673,25.013-36.456-21.059L489.064,254.6l36.456,21.059Zm31.718-18.308L490.53,253.755l2.529-1.466a8.4,8.4,0,0,1,7.608.02L529.5,268.951c2.108,1.2,2.108,3.192.02,4.4Zm-3.353-7.086a3.449,3.449,0,0,0-3.192,0,.971.971,0,0,0,.02,1.847,3.449,3.449,0,0,0,3.192,0C524.536,269.072,524.536,268.249,523.633,267.727Zm-6.946-4.015a3.509,3.509,0,0,0-3.192,0,.971.971,0,0,0,.02,1.847,3.449,3.449,0,0,0,3.192,0C517.571,265.057,517.571,264.234,516.687,263.712Zm-6.966-4.015a3.49,3.49,0,0,0-3.212,0,.971.971,0,0,0,.02,1.847,3.449,3.449,0,0,0,3.192,0C510.625,261.042,510.6,260.219,509.721,259.7Zm-6.966-4.015a3.509,3.509,0,0,0-3.192,0,.975.975,0,0,0,0,1.847,3.449,3.449,0,0,0,3.192,0C503.659,257.027,503.659,256.2,502.755,255.682Z" transform="translate(186.367 201.337)" fill="#ff1c26"/>
    <path id="Path_9269" data-name="Path 9269" d="M457.864,310.549l5.922-3.413c2.79-1.606,2.77-4.236-.04-5.842l-25.7-14.835a11.226,11.226,0,0,0-10.118-.02l-5.922,3.413a12.468,12.468,0,0,0-7.869,1.2l-13.651,7.889,1.405.8,5.962-3.453L446.7,318.72l-5.962,3.453,1.405.8,13.651-7.889C457.9,313.862,458.587,312.115,457.864,310.549Zm-28.527-23.307a8.06,8.06,0,0,1,7.327.02l25.7,14.835c2.028,1.164,2.028,3.072.02,4.236l-5.34,3.092a6.073,6.073,0,0,0-1.285-1l-.482-.281,1.084-.622c2.028-1.164,2.028-3.092-.02-4.256l-7.287-4.2a8.2,8.2,0,0,0-6.223-.5c1.1-1.144.823-2.61-.863-3.593l-7.287-4.2a8.186,8.186,0,0,0-7.388-.02l-1.084.622-.482-.281a9.527,9.527,0,0,0-1.726-.743ZM439.5,299.026l-11.884-6.866,1.084-.622a5.146,5.146,0,0,1,4.6,0l7.287,4.2c1.265.723,1.285,1.927.02,2.65Zm14.374,8.291-11.884-6.866,1.084-.622a5.145,5.145,0,0,1,4.6,0l7.287,4.2c1.265.723,1.285,1.927.02,2.65Zm-44.607-11.824,6.283-3.634a9.7,9.7,0,0,1,8.793.02l30.032,17.345c2.429,1.405,2.449,3.674.02,5.079l-6.284,3.634Z" transform="translate(130.602 236.646)" fill="#ff1c26"/>
    <path id="Path_9270" data-name="Path 9270" d="M577.406,242.357l-2.148-16.241c-.261-2.048-3.332-3.814-6.886-3.975l-28.125-1.225a11.037,11.037,0,0,0-5.782,1.225l-23.026,13.29,40.792,23.548,23.026-13.29C576.8,244.826,577.567,243.6,577.406,242.357Zm-13.069,1.385-26.5-15.3,1.847-1.064,26.5,15.3Zm-27.864-14.494,26.5,15.3-16.5,9.536-26.5-15.3Zm15.759,28.165-4.4-2.529,21.1-12.186-29.249-16.883-21.1,12.165-4.4-2.529,21.661-12.507a7.989,7.989,0,0,1,4.256-.9l28.125,1.225c2.61.12,4.878,1.425,5.079,2.931l2.148,16.241a2.612,2.612,0,0,1-1.586,2.469Z" transform="translate(242.384 171.822)" fill="#ff1c26"/>
    <g id="Group_1487" data-name="Group 1487" transform="translate(649.193 460.343)">
      <path id="Path_9271" data-name="Path 9271" d="M580.709,266.117a12.579,12.579,0,0,1-6.585-1.385,5.341,5.341,0,0,1-2.088-1.947,3.435,3.435,0,0,1-.482-2.228,4.439,4.439,0,0,1,.943-2.208,7.257,7.257,0,0,1,2.228-1.907,13.131,13.131,0,0,1,3.352-1.325,17.275,17.275,0,0,1,3.794-.522,16.155,16.155,0,0,1,3.814.321,10.94,10.94,0,0,1,3.352,1.245,5.537,5.537,0,0,1,2.63,2.549,2.858,2.858,0,0,1-.2,2.55L589.04,261a2.209,2.209,0,0,0,.141-2.108,4.409,4.409,0,0,0-1.847-1.787,8.216,8.216,0,0,0-2.529-.9,12.3,12.3,0,0,0-2.851-.161,13.47,13.47,0,0,0-2.83.482,11.342,11.342,0,0,0-2.509,1.044,6.422,6.422,0,0,0-1.827,1.506,3.517,3.517,0,0,0-.763,1.686,2.64,2.64,0,0,0,.361,1.666,4.159,4.159,0,0,0,1.586,1.445,12.194,12.194,0,0,0,6.665,1.184l2.028-1.164-3.192-1.847,1.405-.8,4.758,2.75-7.327,4.236-1.586-.923Z" transform="translate(-346.273 -254.586)" fill="#ff1c26"/>
      <path id="Path_9272" data-name="Path 9272" d="M579.537,266.8a3.962,3.962,0,0,1-1.185-.984,1.927,1.927,0,0,1-.442-1.084,1.759,1.759,0,0,1,.3-1.064,2.807,2.807,0,0,1,1.044-.923,5.084,5.084,0,0,1,1.686-.582,8.11,8.11,0,0,1,1.987-.06,10.308,10.308,0,0,1,2.128.442,10.178,10.178,0,0,1,2.088.923,11.066,11.066,0,0,1,1.465,1,5.719,5.719,0,0,1,1.044,1.064l.863-.5c.883-.5,1.325-1.064,1.325-1.646s-.462-1.124-1.365-1.666a12.147,12.147,0,0,0-4.718-1.265l.582-1.024a14.46,14.46,0,0,1,5.641,1.626c1.425.823,2.168,1.686,2.208,2.59s-.622,1.747-2.007,2.55l-4.4,2.549c-.422.241-.462.482-.08.723l-1.566.9q-.331-.151-.542-.241a4.28,4.28,0,0,1-.422-.221c-.361-.2-.542-.442-.542-.682a.889.889,0,0,1,.381-.662l.723-.462a10.726,10.726,0,0,1-3.312-.221A9.2,9.2,0,0,1,579.537,266.8Zm1.847-.5a7.748,7.748,0,0,0,2.188.843,7.338,7.338,0,0,0,2.248.181,2.458,2.458,0,0,0,1.2-.241l1.586-.923a8.072,8.072,0,0,0-5.059-2.851,3.7,3.7,0,0,0-2.369.381,2.258,2.258,0,0,0-.683.6,1.067,1.067,0,0,0-.181.683,1.342,1.342,0,0,0,.3.7A3.1,3.1,0,0,0,581.384,266.3Z" transform="translate(-339.842 -249.705)" fill="#ff1c26"/>
      <path id="Path_9273" data-name="Path 9273" d="M598.4,266.836a8.544,8.544,0,0,0-3.132-.984,8.441,8.441,0,0,0-3.332.2l-6.665,3.834-1.827-1.064,10.8-6.223,1.706.984-2.51,1.445a12.223,12.223,0,0,1,3.292-.2,7.565,7.565,0,0,1,2.73.683c.141.08.261.141.361.2a1.047,1.047,0,0,1,.221.161Z" transform="translate(-334.269 -246.511)" fill="#ff1c26"/>
      <path id="Path_9274" data-name="Path 9274" d="M589.567,272.577a3.966,3.966,0,0,1-1.184-.984,1.925,1.925,0,0,1-.442-1.084,1.761,1.761,0,0,1,.3-1.064,2.808,2.808,0,0,1,1.044-.923,5.085,5.085,0,0,1,1.686-.582,8.114,8.114,0,0,1,1.987-.06,10.3,10.3,0,0,1,2.128.442,10.174,10.174,0,0,1,2.088.923,12.575,12.575,0,0,1,1.466,1,5.726,5.726,0,0,1,1.044,1.064l.863-.5c.883-.5,1.325-1.064,1.325-1.626,0-.582-.462-1.124-1.365-1.666a11.806,11.806,0,0,0-4.717-1.265l.582-1.024a14.463,14.463,0,0,1,5.641,1.626c1.425.823,2.168,1.686,2.208,2.59s-.622,1.746-2.007,2.549l-4.4,2.549c-.422.241-.462.482-.08.723l-1.566.9q-.331-.151-.542-.241a4.261,4.261,0,0,1-.422-.221c-.361-.2-.542-.442-.542-.683a.779.779,0,0,1,.381-.662l.723-.462a11.38,11.38,0,0,1-3.313-.2A11.723,11.723,0,0,1,589.567,272.577Zm1.847-.5a7.523,7.523,0,0,0,2.188.843,7.341,7.341,0,0,0,2.248.181,2.457,2.457,0,0,0,1.2-.241l1.586-.923a7.636,7.636,0,0,0-2.249-1.907,7.56,7.56,0,0,0-2.81-.964,3.833,3.833,0,0,0-2.369.381,2.144,2.144,0,0,0-.662.582,1.066,1.066,0,0,0-.181.683,1.341,1.341,0,0,0,.3.7A2.036,2.036,0,0,0,591.414,272.076Z" transform="translate(-329.737 -243.862)" fill="#ff1c26"/>
      <path id="Path_9275" data-name="Path 9275" d="M599.081,276.573a4.061,4.061,0,0,1-1.566-1.425,2.383,2.383,0,0,1-.361-1.626,3.047,3.047,0,0,1,.723-1.606,6.092,6.092,0,0,1,1.706-1.405,10.97,10.97,0,0,1,2.529-1.044,12.237,12.237,0,0,1,2.831-.442,11.738,11.738,0,0,1,2.79.221,8.186,8.186,0,0,1,2.489.923,3.446,3.446,0,0,1,1.706,1.747,2.945,2.945,0,0,1,0,1.947l2.148-1.245,1.626.944-10.68,6.163a7.82,7.82,0,0,1-2.469.923,9.918,9.918,0,0,1-2.67.161,12.237,12.237,0,0,1-2.67-.482,11.321,11.321,0,0,1-2.469-1.064,5.558,5.558,0,0,1-2.369-2.108,2.8,2.8,0,0,1-.181-2.128l1.987.08a2.031,2.031,0,0,0,.241,1.787,4.687,4.687,0,0,0,1.726,1.546,8.454,8.454,0,0,0,1.626.7,7.77,7.77,0,0,0,1.787.321,7.241,7.241,0,0,0,1.847-.141,5.294,5.294,0,0,0,1.767-.682l1.907-1.1a11.158,11.158,0,0,1-1.646.1,13.649,13.649,0,0,1-1.606-.14,8.458,8.458,0,0,1-1.485-.361A8.046,8.046,0,0,1,599.081,276.573Zm2.048-.542a4.932,4.932,0,0,0,1.325.522,8.029,8.029,0,0,0,1.546.261,9.935,9.935,0,0,0,1.546,0,4.818,4.818,0,0,0,1.3-.281l3.112-1.787a2.378,2.378,0,0,0,.422-.923,2.042,2.042,0,0,0-.02-.923,2.5,2.5,0,0,0-.462-.883,2.9,2.9,0,0,0-.883-.723,5.631,5.631,0,0,0-1.847-.662,7.715,7.715,0,0,0-2.048-.1,8.772,8.772,0,0,0-2.028.361,7.554,7.554,0,0,0-1.726.7,4.09,4.09,0,0,0-1.245,1.044,2.194,2.194,0,0,0-.462,1.184,1.938,1.938,0,0,0,.321,1.164A3.067,3.067,0,0,0,601.129,276.031Z" transform="translate(-325.58 -240.048)" fill="#ff1c26"/>
      <path id="Path_9276" data-name="Path 9276" d="M603.659,280.729a5.439,5.439,0,0,1-1.807-1.546,2.816,2.816,0,0,1-.542-1.706,2.883,2.883,0,0,1,.663-1.686,6.191,6.191,0,0,1,1.746-1.485,9.928,9.928,0,0,1,2.55-1,11.841,11.841,0,0,1,2.931-.361,13.471,13.471,0,0,1,2.971.321,9.262,9.262,0,0,1,2.69,1.044,5.345,5.345,0,0,1,1.787,1.546,2.748,2.748,0,0,1,.5,1.686,3.119,3.119,0,0,1-.663,1.646,5.981,5.981,0,0,1-1.686,1.425,3.936,3.936,0,0,0-.422.241,1.963,1.963,0,0,1-.321.141l-9.014-5.2a3.429,3.429,0,0,0-1.084,1.064,1.859,1.859,0,0,0-.321,1.124,2.027,2.027,0,0,0,.382,1.084,3.247,3.247,0,0,0,1.064.923,6.115,6.115,0,0,0,1.1.482,6.824,6.824,0,0,0,1.265.3,7.01,7.01,0,0,0,1.3.1,6.219,6.219,0,0,0,1.245-.141l1.144,1.164a8.934,8.934,0,0,1-1.827.2,11.356,11.356,0,0,1-3.874-.582A8.447,8.447,0,0,1,603.659,280.729Zm10.058-1.506a3.353,3.353,0,0,0,1.024-1.044,1.96,1.96,0,0,0,.3-1.1,1.926,1.926,0,0,0-.422-1.064,3.59,3.59,0,0,0-1.124-.944,5.852,5.852,0,0,0-1.626-.642,9.5,9.5,0,0,0-1.867-.241,9.858,9.858,0,0,0-1.887.181,6.563,6.563,0,0,0-1.767.6Z" transform="translate(-316.266 -236.094)" fill="#ff1c26"/>
      <path id="Path_9277" data-name="Path 9277" d="M513.3,294.972l14.655-8.472,1.867,1.084-8.11,4.677,15.739-.3,2.028,1.164-12.406.321-1.947,8.351-2.048-1.184,1.767-7.227-5.219.04-4.5,2.59Z" transform="translate(-404.935 -222.432)" fill="#ff1c26"/>
      <path id="Path_9278" data-name="Path 9278" d="M520.17,299.063l10.8-6.223L532.8,293.9,522,300.126ZM533,291.655l2.269-1.3,1.827,1.064-2.268,1.325Z" transform="translate(-398.014 -218.553)" fill="#ff1c26"/>
      <path id="Path_9279" data-name="Path 9279" d="M528.149,303.151c-.161-.04-.382-.08-.642-.141s-.542-.141-.843-.221a8.406,8.406,0,0,1-.923-.321,6.281,6.281,0,0,1-.9-.442,2.265,2.265,0,0,1-1.185-1.3c-.12-.482.2-.964.984-1.405l7.267-4.2-1.486-.843,1.425-.823,1.485.863,3.594-2.068,1.827,1.064-3.593,2.068,2.429,1.405-1.425.823L533.73,296.2l-6.705,3.874q-.542.361-.482.723a1.062,1.062,0,0,0,.562.642,4.551,4.551,0,0,0,1.164.462c.422.1.723.161.9.2Z" transform="translate(-394.53 -216.639)" fill="#ff1c26"/>
      <path id="Path_9280" data-name="Path 9280" d="M530.2,297.356a9.258,9.258,0,0,1,2.549-1,12.689,12.689,0,0,1,2.891-.381,12.038,12.038,0,0,1,2.931.321,9.854,9.854,0,0,1,2.71,1.044,4.618,4.618,0,0,1,2.088,2.028,2.289,2.289,0,0,1-.141,2.128l-2.349-.723a1.433,1.433,0,0,0,.02-1.365,2.783,2.783,0,0,0-1.245-1.2,6.147,6.147,0,0,0-1.706-.642,8.142,8.142,0,0,0-1.987-.181,10.063,10.063,0,0,0-2.028.281,7.3,7.3,0,0,0-1.867.763,4.222,4.222,0,0,0-1.3,1.084,2.229,2.229,0,0,0-.5,1.2,1.9,1.9,0,0,0,.281,1.164,2.967,2.967,0,0,0,1.1.984,5.34,5.34,0,0,0,1.084.462,8.714,8.714,0,0,0,1.2.281,8.091,8.091,0,0,0,1.2.08,3.5,3.5,0,0,0,1.064-.14l1.245,1.345a7.386,7.386,0,0,1-1.787.221,10.253,10.253,0,0,1-1.907-.12,10.972,10.972,0,0,1-1.907-.462,8.11,8.11,0,0,1-1.746-.783,5.185,5.185,0,0,1-1.787-1.566,2.7,2.7,0,0,1-.522-1.706,2.884,2.884,0,0,1,.662-1.686A6.533,6.533,0,0,1,530.2,297.356Z" transform="translate(-390.339 -212.892)" fill="#ff1c26"/>
      <path id="Path_9281" data-name="Path 9281" d="M542.075,311.723l-1.827-1.064,6.043-3.493c1.124-.642,1.747-1.245,1.907-1.767.161-.542-.141-1.024-.883-1.465a5.2,5.2,0,0,0-1.3-.5,9.748,9.748,0,0,0-3.333-.2,9.3,9.3,0,0,0-1.686.341l-6.5,3.754-1.827-1.064,15.1-8.713,1.827,1.064-6.625,3.814a12.006,12.006,0,0,1,3.593-.06,8.649,8.649,0,0,1,3.072,1,2.985,2.985,0,0,1,1.265,1.144,1.5,1.5,0,0,1,.12,1.164,3.06,3.06,0,0,1-.863,1.164,12.349,12.349,0,0,1-1.606,1.144Z" transform="translate(-385.43 -211.299)" fill="#ff1c26"/>
      <path id="Path_9282" data-name="Path 9282" d="M542.5,310.93a5.219,5.219,0,0,1-1.807-1.546,2.817,2.817,0,0,1-.542-1.706,2.883,2.883,0,0,1,.662-1.686,5.885,5.885,0,0,1,1.746-1.486,9.255,9.255,0,0,1,2.55-1,11.839,11.839,0,0,1,2.931-.361,12.363,12.363,0,0,1,2.971.321,9.266,9.266,0,0,1,2.69,1.044,5.377,5.377,0,0,1,1.787,1.566,2.622,2.622,0,0,1,.5,1.686,3.118,3.118,0,0,1-.663,1.646,5.98,5.98,0,0,1-1.686,1.425,3.95,3.95,0,0,0-.422.241,1.964,1.964,0,0,1-.321.141l-9.014-5.2a3.428,3.428,0,0,0-1.084,1.064,1.859,1.859,0,0,0-.321,1.124,2.027,2.027,0,0,0,.381,1.084,3.248,3.248,0,0,0,1.064.923,4.966,4.966,0,0,0,1.1.482,6.46,6.46,0,0,0,1.265.3,7.01,7.01,0,0,0,1.3.1,6.216,6.216,0,0,0,1.245-.141l1.144,1.164a8.975,8.975,0,0,1-1.847.2,12.832,12.832,0,0,1-1.947-.12,10.768,10.768,0,0,1-1.927-.462A10.943,10.943,0,0,1,542.5,310.93Zm10.058-1.506a3.148,3.148,0,0,0,1.024-1.044,1.961,1.961,0,0,0,.3-1.1,1.927,1.927,0,0,0-.422-1.064,3.589,3.589,0,0,0-1.124-.944,5.855,5.855,0,0,0-1.626-.642,8.2,8.2,0,0,0-1.867-.241,7.433,7.433,0,0,0-1.887.181,8.33,8.33,0,0,0-1.767.6Z" transform="translate(-377.885 -205.668)" fill="#ff1c26"/>
      <path id="Path_9283" data-name="Path 9283" d="M554.835,317.864l-1.827-1.064,6.042-3.493c1.164-.662,1.827-1.265,1.987-1.767s-.1-.964-.823-1.385a5.527,5.527,0,0,0-1.345-.522,9.532,9.532,0,0,0-3.413-.261,9.163,9.163,0,0,0-1.706.321l-6.5,3.754-1.827-1.064,10.8-6.243,1.666.964-2.309,1.345a11.879,11.879,0,0,1,3.674.02,9.484,9.484,0,0,1,3.332,1.144,3.051,3.051,0,0,1,1.225,1.1,1.3,1.3,0,0,1,.04,1.124,3.227,3.227,0,0,1-.9,1.144,10.188,10.188,0,0,1-1.646,1.124Z" transform="translate(-372.574 -202.645)" fill="#ff1c26"/>
      <path id="Path_9284" data-name="Path 9284" d="M474.436,330.468a6.434,6.434,0,0,1-1.887.7,9.417,9.417,0,0,1-2.128.161,9.807,9.807,0,0,1-2.148-.361,8.822,8.822,0,0,1-1.947-.8l-7.006-4.055,14.675-8.472,7.347,4.236a2.59,2.59,0,0,1,1.064,1,1.681,1.681,0,0,1,.2,1.1,2.454,2.454,0,0,1-.522,1.084,3.869,3.869,0,0,1-1.1.923,7.429,7.429,0,0,1-2.59.863,8.587,8.587,0,0,1-2.951-.1,1.972,1.972,0,0,1,.622,1.947A3.061,3.061,0,0,1,474.436,330.468Zm-1.546-1.285a2.544,2.544,0,0,0,.783-.662,1.548,1.548,0,0,0,.341-.743,1.1,1.1,0,0,0-.161-.743,1.837,1.837,0,0,0-.7-.642l-5.28-3.051-5.039,2.911,5.139,2.971a4.243,4.243,0,0,0,1.164.442,7.069,7.069,0,0,0,1.325.12,5.836,5.836,0,0,0,1.325-.161A4.389,4.389,0,0,0,472.891,329.183Zm1.365-9.536-4.9,2.831,4.7,2.71a4.834,4.834,0,0,0,1.1.422,6.378,6.378,0,0,0,1.245.12,5.177,5.177,0,0,0,1.245-.181,3.981,3.981,0,0,0,1.124-.442,3.012,3.012,0,0,0,.8-.662,1.742,1.742,0,0,0,.341-.7,1.015,1.015,0,0,0-.161-.7,2.04,2.04,0,0,0-.683-.6Z" transform="translate(-459.32 -191.059)" fill="#ff1c26"/>
      <path id="Path_9285" data-name="Path 9285" d="M469.859,331.29a5.439,5.439,0,0,1-1.807-1.546,2.817,2.817,0,0,1-.542-1.706,2.885,2.885,0,0,1,.663-1.686,6.19,6.19,0,0,1,1.746-1.485,9.253,9.253,0,0,1,2.549-1,11.839,11.839,0,0,1,2.931-.361,12.363,12.363,0,0,1,2.971.321,9.263,9.263,0,0,1,2.69,1.044,5.13,5.13,0,0,1,1.787,1.546,2.747,2.747,0,0,1,.5,1.686,3.119,3.119,0,0,1-.662,1.646A5.981,5.981,0,0,1,481,331.17a3.949,3.949,0,0,0-.421.241,1.961,1.961,0,0,1-.321.141l-9.014-5.2a3.75,3.75,0,0,0-1.1,1.064,1.859,1.859,0,0,0-.321,1.124,2.028,2.028,0,0,0,.381,1.084,3.248,3.248,0,0,0,1.064.923,4.973,4.973,0,0,0,1.1.482,6.463,6.463,0,0,0,1.265.3,7.012,7.012,0,0,0,1.3.1,5.853,5.853,0,0,0,1.224-.141l1.144,1.164a8.935,8.935,0,0,1-1.827.2,10.681,10.681,0,0,1-1.947-.12,12.814,12.814,0,0,1-1.927-.462A8.572,8.572,0,0,1,469.859,331.29Zm10.058-1.486a3.148,3.148,0,0,0,1.024-1.044,1.96,1.96,0,0,0,.3-1.1,1.926,1.926,0,0,0-.422-1.064,3.591,3.591,0,0,0-1.124-.944,5.853,5.853,0,0,0-1.626-.642,9.509,9.509,0,0,0-1.867-.241,7.68,7.68,0,0,0-1.907.181,6.558,6.558,0,0,0-1.767.6Z" transform="translate(-451.069 -185.156)" fill="#ff1c26"/>
      <path id="Path_9286" data-name="Path 9286" d="M475.934,334.845a4.5,4.5,0,0,1-1.626-1.465,2.542,2.542,0,0,1-.422-1.646,3.2,3.2,0,0,1,.7-1.646,5.8,5.8,0,0,1,1.747-1.445,10.97,10.97,0,0,1,2.529-1.044,12.235,12.235,0,0,1,2.81-.442,11.568,11.568,0,0,1,2.77.2,8.312,8.312,0,0,1,2.429.883,3.319,3.319,0,0,1,1.646,1.747,2.6,2.6,0,0,1-.02,1.907l6.464-3.734,1.827,1.064-12.868,7.428c-.422.241-.462.482-.08.723l-1.566.9c-.221-.1-.4-.181-.522-.241a3.013,3.013,0,0,1-.361-.181.978.978,0,0,1-.582-.763.739.739,0,0,1,.442-.723l.9-.522a11.03,11.03,0,0,1-3.353-.04A9.106,9.106,0,0,1,475.934,334.845Zm2.008-.662a4.583,4.583,0,0,0,1.225.482,11.443,11.443,0,0,0,1.526.281,8.38,8.38,0,0,0,1.586.02,5.451,5.451,0,0,0,1.385-.281l3.112-1.787a1.9,1.9,0,0,0,.422-.883,2.237,2.237,0,0,0-.04-.964,2.341,2.341,0,0,0-.462-.883,2.811,2.811,0,0,0-.863-.723,5.382,5.382,0,0,0-1.807-.642,9.057,9.057,0,0,0-4.055.221,6.914,6.914,0,0,0-1.747.723,3.669,3.669,0,0,0-1.245,1.064,2.135,2.135,0,0,0-.482,1.184,1.939,1.939,0,0,0,.321,1.164A2.97,2.97,0,0,0,477.942,334.182Z" transform="translate(-444.658 -181.483)" fill="#ff1c26"/>
      <path id="Path_9287" data-name="Path 9287" d="M494.506,334.676a8.965,8.965,0,0,0-3.132-1,8.832,8.832,0,0,0-3.332.2l-6.665,3.854-1.827-1.064,10.8-6.223,1.706.984-2.509,1.445a11.433,11.433,0,0,1,3.292-.181,7.565,7.565,0,0,1,2.73.682c.141.08.261.141.361.2a.7.7,0,0,1,.221.161Z" transform="translate(-438.938 -178.163)" fill="#ff1c26"/>
      <path id="Path_9288" data-name="Path 9288" d="M486.861,341.12a5.343,5.343,0,0,1-1.787-1.546,2.767,2.767,0,0,1-.5-1.706,3.18,3.18,0,0,1,.662-1.666,5.783,5.783,0,0,1,1.726-1.465,9.259,9.259,0,0,1,2.549-1,12.713,12.713,0,0,1,2.911-.381,13.36,13.36,0,0,1,2.951.281,9.457,9.457,0,0,1,2.67,1.024,5.236,5.236,0,0,1,1.767,1.546,2.831,2.831,0,0,1,.522,1.706,3.18,3.18,0,0,1-.662,1.666,5.675,5.675,0,0,1-1.746,1.486,10.237,10.237,0,0,1-2.53,1,12.712,12.712,0,0,1-2.911.381,12.077,12.077,0,0,1-2.951-.3A10.218,10.218,0,0,1,486.861,341.12Zm1.967-5.3a4.129,4.129,0,0,0-1.285,1.064,2.079,2.079,0,0,0-.482,1.164,1.707,1.707,0,0,0,.3,1.144,2.817,2.817,0,0,0,1.1.984,5.556,5.556,0,0,0,1.706.622,9.458,9.458,0,0,0,2.007.181,10.253,10.253,0,0,0,2.068-.281,7.716,7.716,0,0,0,1.867-.743,4.376,4.376,0,0,0,1.285-1.064,2.264,2.264,0,0,0,.5-1.184,1.79,1.79,0,0,0-.3-1.164,3.149,3.149,0,0,0-1.1-.984,5.679,5.679,0,0,0-1.726-.622,9.465,9.465,0,0,0-2.007-.161,8.7,8.7,0,0,0-2.048.3A7.552,7.552,0,0,0,488.829,335.82Z" transform="translate(-433.884 -175.232)" fill="#ff1c26"/>
      <path id="Path_9289" data-name="Path 9289" d="M493.331,344.86a5.377,5.377,0,0,1-1.787-1.566,2.767,2.767,0,0,1-.5-1.706,3.18,3.18,0,0,1,.662-1.666,5.783,5.783,0,0,1,1.726-1.466,9.932,9.932,0,0,1,2.549-1,13.922,13.922,0,0,1,2.911-.381,12.279,12.279,0,0,1,2.951.3,9.46,9.46,0,0,1,2.67,1.024,5.236,5.236,0,0,1,1.767,1.546,2.831,2.831,0,0,1,.522,1.706,3.18,3.18,0,0,1-.662,1.666,5.379,5.379,0,0,1-1.747,1.466,10.241,10.241,0,0,1-2.529,1,12.717,12.717,0,0,1-2.911.381,12.078,12.078,0,0,1-2.951-.3A8.427,8.427,0,0,1,493.331,344.86Zm1.967-5.28a4.129,4.129,0,0,0-1.285,1.064,2.078,2.078,0,0,0-.482,1.164,1.707,1.707,0,0,0,.3,1.144,2.98,2.98,0,0,0,1.1.984,5.556,5.556,0,0,0,1.706.622,9.461,9.461,0,0,0,2.007.181,10.249,10.249,0,0,0,2.068-.281,7.717,7.717,0,0,0,1.867-.743,4.378,4.378,0,0,0,1.285-1.064,2.266,2.266,0,0,0,.5-1.184,1.791,1.791,0,0,0-.3-1.164,3.148,3.148,0,0,0-1.1-.984,5.68,5.68,0,0,0-1.727-.622,9.458,9.458,0,0,0-2.007-.161,8.7,8.7,0,0,0-2.048.3A6.279,6.279,0,0,0,495.3,339.581Z" transform="translate(-427.365 -171.484)" fill="#ff1c26"/>
      <path id="Path_9290" data-name="Path 9290" d="M512.761,355.859l-1.827-1.064,6.043-3.493c1.124-.662,1.787-1.245,1.947-1.767s-.1-.984-.823-1.405a5.867,5.867,0,0,0-2.81-.7,9.8,9.8,0,0,0-3.312.462l-6.5,3.754-1.827-1.064,6.043-3.493c1.164-.662,1.827-1.265,1.987-1.767q.241-.783-.843-1.385a6,6,0,0,0-2.77-.7,9.495,9.495,0,0,0-3.332.462l-6.5,3.754-1.827-1.064,10.8-6.243,1.666.964-2.309,1.345a12.624,12.624,0,0,1,3.573-.08,8.291,8.291,0,0,1,3.051,1q1.385.783,1.445,1.686a2,2,0,0,1-.9,1.666,9.965,9.965,0,0,1,6.765.883,3.049,3.049,0,0,1,1.224,1.1,1.241,1.241,0,0,1,.06,1.124,3.228,3.228,0,0,1-.9,1.144,9.956,9.956,0,0,1-1.626,1.124Z" transform="translate(-421.962 -168.39)" fill="#ff1c26"/>
    </g>
    <g id="Group_1488" data-name="Group 1488" transform="translate(270.86 230.473)">
      <path id="Path_9291" data-name="Path 9291" d="M284.491,151.663a5.424,5.424,0,0,1-1.706.622,8.185,8.185,0,0,1-3.854-.181,7.592,7.592,0,0,1-1.746-.723l-6.324-3.654,13.27-7.649,6.625,3.834a2.35,2.35,0,0,1,.964.9,1.506,1.506,0,0,1,.181,1,2.146,2.146,0,0,1-.482.984,3.4,3.4,0,0,1-1,.823,6.246,6.246,0,0,1-2.329.763,7.041,7.041,0,0,1-2.67-.1,1.8,1.8,0,0,1,.562,1.767A2.937,2.937,0,0,1,284.491,151.663Zm-1.405-1.164a2.1,2.1,0,0,0,.7-.6,1.223,1.223,0,0,0,.3-.683,1.137,1.137,0,0,0-.141-.662,1.673,1.673,0,0,0-.642-.582l-4.778-2.75-4.557,2.63,4.637,2.69a3.6,3.6,0,0,0,1.044.381,5.44,5.44,0,0,0,2.369-.02A3.675,3.675,0,0,0,283.086,150.5Zm1.245-8.612-4.436,2.55,4.256,2.449a3.357,3.357,0,0,0,1,.381,5.208,5.208,0,0,0,1.124.1,4.225,4.225,0,0,0,1.124-.161,3.749,3.749,0,0,0,1-.4,2.454,2.454,0,0,0,.723-.6,1.175,1.175,0,0,0,.3-.642.888.888,0,0,0-.161-.622,2,2,0,0,0-.6-.542Z" transform="translate(-270.86 -140.08)" fill="#ff1c26"/>
      <path id="Path_9292" data-name="Path 9292" d="M290.73,148.594a8.082,8.082,0,0,0-2.831-.9,7.6,7.6,0,0,0-3.011.181l-6.022,3.473-1.646-.964,9.756-5.621,1.546.883-2.268,1.3a10.668,10.668,0,0,1,2.971-.181,6.753,6.753,0,0,1,2.469.622,1.791,1.791,0,0,0,.321.181c.08.06.161.1.2.141Z" transform="translate(-264.452 -135.365)" fill="#ff1c26"/>
      <path id="Path_9293" data-name="Path 9293" d="M280.86,153.619,290.616,148l1.646.964-9.756,5.621Zm11.583-6.685,2.048-1.184,1.646.964-2.048,1.184Z" transform="translate(-260.785 -134.367)" fill="#ff1c26"/>
      <path id="Path_9294" data-name="Path 9294" d="M288.315,155.631a3.791,3.791,0,0,1-1.425-1.3,2.3,2.3,0,0,1-.341-1.465,2.783,2.783,0,0,1,.662-1.445,5.232,5.232,0,0,1,1.546-1.265,9.774,9.774,0,0,1,2.289-.944,12.263,12.263,0,0,1,2.549-.4,10.6,10.6,0,0,1,2.529.2,6.867,6.867,0,0,1,2.248.843,3.222,3.222,0,0,1,1.546,1.586,2.607,2.607,0,0,1,0,1.747l1.947-1.124,1.466.843-9.636,5.561a6.952,6.952,0,0,1-2.228.823,9.61,9.61,0,0,1-2.409.161,11.284,11.284,0,0,1-2.409-.442,10.1,10.1,0,0,1-2.228-.964,5.4,5.4,0,0,1-2.148-1.887,2.438,2.438,0,0,1-.161-1.907l1.787.06a1.774,1.774,0,0,0,.221,1.606,4.34,4.34,0,0,0,1.566,1.405,8.086,8.086,0,0,0,1.466.642,6.579,6.579,0,0,0,1.626.281,6.732,6.732,0,0,0,1.666-.12,5.992,5.992,0,0,0,1.606-.6l1.726-.984a9.088,9.088,0,0,1-1.486.08,11.074,11.074,0,0,1-1.445-.12,7.329,7.329,0,0,1-1.345-.341A6.387,6.387,0,0,1,288.315,155.631Zm1.847-.482a5.028,5.028,0,0,0,1.2.482,8.347,8.347,0,0,0,2.811.241,4.939,4.939,0,0,0,1.184-.241l2.81-1.626a2.249,2.249,0,0,0,.381-.843,1.99,1.99,0,0,0-.02-.843,1.872,1.872,0,0,0-.422-.783,3.368,3.368,0,0,0-.8-.662,5.684,5.684,0,0,0-1.666-.6,8.13,8.13,0,0,0-3.674.221,6.547,6.547,0,0,0-1.566.642,3.836,3.836,0,0,0-1.124.944,1.985,1.985,0,0,0-.422,1.064,1.886,1.886,0,0,0,.281,1.064A2.76,2.76,0,0,0,290.162,155.149Z" transform="translate(-259.648 -131.3)" fill="#ff1c26"/>
      <path id="Path_9295" data-name="Path 9295" d="M297.832,163.448l-1.646-.964,5.46-3.152c1-.582,1.586-1.124,1.726-1.606s-.12-.923-.8-1.325a5.027,5.027,0,0,0-1.184-.462,8.358,8.358,0,0,0-1.445-.221,9.97,9.97,0,0,0-1.546.02,9.333,9.333,0,0,0-1.526.3l-5.882,3.393-1.646-.964,13.631-7.869,1.646.964-5.982,3.453a10.289,10.289,0,0,1,3.232-.04,7.645,7.645,0,0,1,2.77.923,2.925,2.925,0,0,1,1.144,1.024,1.285,1.285,0,0,1,.1,1.044,2.543,2.543,0,0,1-.783,1.044,7.814,7.814,0,0,1-1.465,1.024Z" transform="translate(-252.242 -129.481)" fill="#ff1c26"/>
      <path id="Path_9296" data-name="Path 9296" d="M299.855,164.117c-.161-.04-.341-.06-.562-.12-.241-.06-.482-.12-.763-.2a7.073,7.073,0,0,1-.843-.3,6.234,6.234,0,0,1-.823-.4,1.974,1.974,0,0,1-1.064-1.184c-.1-.442.181-.863.883-1.265l6.544-3.774-1.325-.763,1.285-.743,1.325.763,3.252-1.867,1.646.964-3.252,1.867,2.188,1.265-1.285.743-2.208-1.265-6.043,3.493q-.512.331-.422.662a.969.969,0,0,0,.5.582,4.739,4.739,0,0,0,1.044.422,7.223,7.223,0,0,0,.8.181Z" transform="translate(-245.753 -125.794)" fill="#ff1c26"/>
      <path id="Path_9297" data-name="Path 9297" d="M307.042,167.639l-1.646-.964,5.46-3.152c1.044-.6,1.646-1.124,1.807-1.586s-.1-.883-.743-1.245a4.714,4.714,0,0,0-1.2-.482,8.5,8.5,0,0,0-1.486-.241,10.452,10.452,0,0,0-1.586,0,6.235,6.235,0,0,0-1.526.3l-5.882,3.393-1.646-.964,9.756-5.621,1.506.863-2.088,1.2a10.324,10.324,0,0,1,3.332.02,8.606,8.606,0,0,1,3.011,1.024,2.862,2.862,0,0,1,1.1.984,1.15,1.15,0,0,1,.04,1.024,2.843,2.843,0,0,1-.823,1.024,10.572,10.572,0,0,1-1.486,1.024Z" transform="translate(-242.922 -122.953)" fill="#ff1c26"/>
      <path id="Path_9298" data-name="Path 9298" d="M307.449,168.056a4.787,4.787,0,0,1-1.626-1.405,2.552,2.552,0,0,1-.482-1.546,2.781,2.781,0,0,1,.582-1.526,5.344,5.344,0,0,1,1.586-1.345,8.145,8.145,0,0,1,2.309-.9,11.536,11.536,0,0,1,2.65-.321,11.825,11.825,0,0,1,2.67.281,8.864,8.864,0,0,1,2.429.944,4.516,4.516,0,0,1,1.606,1.405,2.508,2.508,0,0,1,.462,1.526,2.558,2.558,0,0,1-.6,1.486,5.447,5.447,0,0,1-1.526,1.285c-.141.08-.261.141-.381.2s-.221.1-.281.141l-8.13-4.7a3.221,3.221,0,0,0-.984.964,2,2,0,0,0-.3,1.024,1.746,1.746,0,0,0,.361.984,2.863,2.863,0,0,0,.964.843,5.061,5.061,0,0,0,1,.442,6.805,6.805,0,0,0,1.144.281,7.6,7.6,0,0,0,1.164.1,4.109,4.109,0,0,0,1.124-.141l1.024,1.044a7.388,7.388,0,0,1-1.646.181,10.22,10.22,0,0,1-1.747-.12,10.447,10.447,0,0,1-3.373-1.124Zm9.074-1.365a2.739,2.739,0,0,0,.923-.944,1.714,1.714,0,0,0,.261-1,1.776,1.776,0,0,0-.381-.964,3.031,3.031,0,0,0-1-.843,5.586,5.586,0,0,0-1.465-.582,7.757,7.757,0,0,0-1.686-.221,8.06,8.06,0,0,0-1.706.161,7.2,7.2,0,0,0-1.606.542Z" transform="translate(-236.122 -118.993)" fill="#ff1c26"/>
      <path id="Path_9299" data-name="Path 9299" d="M313.161,171.07a8.717,8.717,0,0,1-1.967-1.546,3.542,3.542,0,0,1-.923-1.747l1.807-.221a4.034,4.034,0,0,0,.743,1.566,5.3,5.3,0,0,0,1.506,1.245,5.753,5.753,0,0,0,2.128.743,2.8,2.8,0,0,0,1.807-.321.927.927,0,0,0,.442-.442.664.664,0,0,0-.06-.542,3.289,3.289,0,0,0-.522-.7c-.261-.261-.542-.562-.9-.883-.442-.422-.8-.8-1.084-1.124a2.658,2.658,0,0,1-.562-.883.881.881,0,0,1,.08-.743,2.243,2.243,0,0,1,.783-.662,4.858,4.858,0,0,1,1.586-.582,6.38,6.38,0,0,1,1.747-.08,6.747,6.747,0,0,1,1.767.361,8.27,8.27,0,0,1,1.666.743,5.863,5.863,0,0,1,1.706,1.405,3.014,3.014,0,0,1,.683,1.465l-1.746.141a2.422,2.422,0,0,0-.582-1.265,4.649,4.649,0,0,0-1.3-1.064,5.54,5.54,0,0,0-1.907-.662,2.775,2.775,0,0,0-1.847.341,1.093,1.093,0,0,0-.442.4.61.61,0,0,0,0,.462,2.316,2.316,0,0,0,.422.582q.3.331.783.783c.5.462.923.883,1.245,1.245a3.079,3.079,0,0,1,.642,1,1.025,1.025,0,0,1-.04.843,1.947,1.947,0,0,1-.8.743,5.429,5.429,0,0,1-3.212.642A9.332,9.332,0,0,1,313.161,171.07Z" transform="translate(-231.155 -115.864)" fill="#ff1c26"/>
      <path id="Path_9300" data-name="Path 9300" d="M318.021,173.88a8.717,8.717,0,0,1-1.967-1.546,3.542,3.542,0,0,1-.923-1.747l1.807-.221a4.033,4.033,0,0,0,.743,1.566,5.488,5.488,0,0,0,1.485,1.245,5.414,5.414,0,0,0,2.128.743,2.8,2.8,0,0,0,1.807-.321.926.926,0,0,0,.442-.442.664.664,0,0,0-.06-.542,3.294,3.294,0,0,0-.522-.7c-.241-.261-.542-.562-.9-.883-.442-.422-.8-.8-1.084-1.124a2.658,2.658,0,0,1-.562-.883.872.872,0,0,1,.08-.743,2.242,2.242,0,0,1,.783-.662,4.859,4.859,0,0,1,1.586-.582,6.38,6.38,0,0,1,1.746-.08,6.747,6.747,0,0,1,1.767.361,8.27,8.27,0,0,1,1.666.743,5.863,5.863,0,0,1,1.706,1.405,3.014,3.014,0,0,1,.682,1.465l-1.747.141a2.422,2.422,0,0,0-.582-1.265,4.649,4.649,0,0,0-1.3-1.064,5.539,5.539,0,0,0-1.907-.662,2.775,2.775,0,0,0-1.847.341,1.093,1.093,0,0,0-.442.4.537.537,0,0,0,.02.462,2.315,2.315,0,0,0,.422.582q.3.331.783.783c.5.462.923.883,1.245,1.245a3.078,3.078,0,0,1,.642,1,1.025,1.025,0,0,1-.04.843,1.946,1.946,0,0,1-.8.743,5.429,5.429,0,0,1-3.212.642A9.669,9.669,0,0,1,318.021,173.88Z" transform="translate(-226.258 -113.033)" fill="#ff1c26"/>
    </g>
    <g id="Group_1490" data-name="Group 1490" transform="translate(319.998 149.226)">
      <path id="Path_9301" data-name="Path 9301" d="M332.079,171.955c-24.572-14.193-24.692-37.2-.281-51.292s64.26-14.032,88.832.161,24.692,37.2.281,51.292S356.651,186.128,332.079,171.955Zm85.6-49.425c-22.926-13.229-60.1-13.31-82.89-.141-22.785,13.149-22.665,34.629.261,47.859s60.1,13.31,82.89.141C440.7,157.24,440.6,135.76,417.679,122.53Z" transform="translate(-276.968 -89.002)" fill="#ff1c26"/>
      <path id="Path_9302" data-name="Path 9302" d="M328.479,184.289c-31.5-18.188-31.658-47.678-.361-65.746s82.388-17.987,113.885.2,31.658,47.678.361,65.746S359.976,202.476,328.479,184.289Zm109.087-62.975c-29.028-16.763-76.124-16.843-104.972-.181s-28.707,43.844.321,60.606,76.124,16.843,104.972.181S466.595,138.056,437.566,121.313Z" transform="translate(-285.854 -94.129)" fill="#ff1c26" opacity="0.4"/>
      <path id="Path_9303" data-name="Path 9303" d="M324.632,197.457c-38.885-22.464-39.086-58.88-.442-81.183,38.644-22.323,101.74-22.2,140.625.261s39.086,58.88.442,81.183S363.517,219.921,324.632,197.457Zm134.261-77.509c-35.613-20.557-93.369-20.657-128.741-.241-35.392,20.436-35.211,53.781.4,74.338s93.369,20.657,128.741.241C494.687,173.849,494.507,140.5,458.894,119.947Z" transform="translate(-295.337 -99.609)" fill="#ff1c26" opacity="0.1"/>
      <path id="Path_9304" data-name="Path 9304" d="M367.817,138.636c6.705-3.874,6.2-10.359-1.506-13.892a26.111,26.111,0,0,0-19.653-.161c-4.6,2.008-6.685,5.059-6.324,8.03.2,1.626-.763,3.232-2.75,4.376l-2.489,1.445c-1.265.723-1.265,1.927.02,2.65l5.6,3.232a5.021,5.021,0,0,0,4.6,0l2.489-1.425a14.955,14.955,0,0,1,7.729-1.586A23.585,23.585,0,0,0,367.817,138.636Z" transform="translate(-256.235 -76.3)" fill="#ff1c26"/>
      <path id="Path_9305" data-name="Path 9305" d="M334.109,136.085h0c-1.646-.964-1.445-2.63.462-3.734l.341-.2,6,3.453-.341.2A7.107,7.107,0,0,1,334.109,136.085Z" transform="translate(-257.397 -66.823)" fill="#ff1c26"/>
      <g id="Group_1489" data-name="Group 1489" transform="translate(77.369 37.503)">
        <path id="Path_9306" data-name="Path 9306" d="M344.52,124.895q1.385-.06,2.77,0l-.04-5.8c0-.442-.622-.8-1.385-.8s-1.385.361-1.385.8Z" transform="translate(-323.195 -118.29)" fill="#ff1c26"/>
        <path id="Path_9307" data-name="Path 9307" d="M343.318,125.156l-7.086-4.1a2.088,2.088,0,0,0-1.947,0c-.542.321-.542.823,0,1.124l7.086,4.1A18.28,18.28,0,0,1,343.318,125.156Z" transform="translate(-333.877 -115.741)" fill="#ff1c26"/>
        <path id="Path_9308" data-name="Path 9308" d="M355.28,128.6l9.977.02c.763,0,1.385-.361,1.385-.8s-.622-.8-1.385-.8l-9.977-.02A7.162,7.162,0,0,1,355.28,128.6Z" transform="translate(-312.315 -109.525)" fill="#ff1c26"/>
        <path id="Path_9309" data-name="Path 9309" d="M352.854,125.678c.321.181.622.4.923.6l7.026-4.055a.592.592,0,0,0,0-1.124,2.088,2.088,0,0,0-1.947,0l-7.026,4.055C352.151,125.337,352.513,125.5,352.854,125.678Z" transform="translate(-315.79 -115.701)" fill="#ff1c26"/>
        <path id="Path_9310" data-name="Path 9310" d="M360.884,135.285l-7.066-4.075c-.3.2-.6.4-.923.582s-.682.361-1.024.542l7.066,4.075a2.088,2.088,0,0,0,1.947,0C361.426,136.108,361.426,135.606,360.884,135.285Z" transform="translate(-315.75 -105.273)" fill="#ff1c26"/>
        <path id="Path_9311" data-name="Path 9311" d="M334.209,133.26c-.381.3-.341.743.141,1.024a2.162,2.162,0,0,0,1.767.08Z" transform="translate(-333.802 -103.208)" fill="#ff1c26"/>
      </g>
    </g>
    <ellipse id="Ellipse_95" data-name="Ellipse 95" cx="5.5" cy="5" rx="5.5" ry="5" transform="translate(411.375 356.156)" fill="#ff5961"/>
    <circle id="Ellipse_96" data-name="Ellipse 96" cx="4.5" cy="4.5" r="4.5" transform="translate(412.375 357.156)" fill="#ff858b"/>
  </g>
</svg>
