<svg xmlns="http://www.w3.org/2000/svg" xmlns:xlink="http://www.w3.org/1999/xlink" width="791.334" height="791.535" viewBox="0 0 791.334 791.535">
  <defs>
    <linearGradient id="linear-gradient" x1="0.601" y1="0.401" x2="0.184" y2="0.883" gradientUnits="objectBoundingBox">
      <stop offset="0" stop-color="#3a3e4d"/>
      <stop offset="1" stop-color="#383d50"/>
    </linearGradient>
  </defs>
  <path id="Path_9114" data-name="Path 9114" d="M546.285,953.865c66.763,7.238,136.036-6.128,194.194-40,106.142-57.6,171.894-180.73,161.594-300.923C895.78,513.06,838.7,418.327,754.006,365.223c-62.492-39.511-139.133-56.4-212.447-46.291a635.425,635.425,0,0,0-74.033,18.647C361.155,377.513,280.441,478.57,266.195,591.461c-10.269,73.478,5.411,150.51,44.889,213.459C361.873,886.353,450.443,943.988,546.285,953.865Zm15.257-27.644c-70.153-4.889-137.8-36.966-186.336-87.757-46.422-47.92-75.4-112.336-79.965-178.936-.62-13.333-2.9-27.905,4.008-40.13,8.249-15.843,27.841-24.58,45.118-19.886,17.8,4.14,31.132,21.613,30.35,39.869A208.147,208.147,0,0,0,433.623,783.4c38.01,39.543,92.19,63.079,147.12,63.307,14.017-.618,28.133,6.129,35.76,18,12.029,17.211,7.172,43.161-10.2,54.9C593.457,929.35,576.537,927.134,561.542,926.221Zm-9.128-112.368c-49.681-9.291-95.515-39.413-121.986-82.7-28.85-44.564-35.076-102.362-18.223-152.5,14.7-43.226,46.162-80.682,86.681-101.84,39.25-21.483,86.746-26.373,129.875-15.06C709.508,481.439,768.9,563.3,763.167,646.1c-3.1,64.318-44.53,124.464-102.394,152.107C627.228,813.591,588.957,820.437,552.414,813.852Z" transform="translate(-54.885 1131.591) rotate(-106)" opacity="0.65" fill="url(#linear-gradient)"/>
</svg>
