<svg id="Get_it_on_Google_play" xmlns="http://www.w3.org/2000/svg" width="147.016" height="53.566" viewBox="0 0 147.016 53.566">
  <path id="path14" d="M141.571,53.566H5.445C2.452,53.566,0,50.552,0,46.871V6.7C0,3.015,2.452,0,5.445,0H141.571c2.993,0,5.445,3.015,5.445,6.7V46.871C147.017,50.552,144.565,53.566,141.571,53.566Z" transform="translate(0 0)" fill="#fff"/>
  <g id="Group_10753" data-name="Group 10753" transform="translate(17.047 13.944)">
    <path id="Path_6875" data-name="Path 6875" d="M3532.384,579.635a3.125,3.125,0,0,1-2.254-.908,3.205,3.205,0,0,1,0-4.515,3.115,3.115,0,0,1,2.254-.912,3.248,3.248,0,0,1,1.257.257,2.511,2.511,0,0,1,.965.68l.047.056-.633.632-.056-.065a1.953,1.953,0,0,0-1.58-.669,2.228,2.228,0,0,0-1.579.632,2.382,2.382,0,0,0,0,3.3,2.25,2.25,0,0,0,1.579.631,2.212,2.212,0,0,0,1.614-.635,1.709,1.709,0,0,0,.469-1.062H3532.3v-.87h3.038l.014.062a2.081,2.081,0,0,1,.047.464,2.755,2.755,0,0,1-.763,2.029A3.019,3.019,0,0,1,3532.384,579.635Z" transform="translate(-3500.617 -573.3)" fill="#3d2a2b"/>
    <path id="Path_6876" data-name="Path 6876" d="M4146.147,591.063H4142.5V585h3.647v.885h-2.718V587.6h2.451v.871h-2.451v1.712h2.718Z" transform="translate(-4106.77 -584.864)" fill="#3d2a2b"/>
    <path id="Path_6877" data-name="Path 6877" d="M4513.3,591.063h-.928v-5.179H4510.7V585h4.267v.885H4513.3Z" transform="translate(-4470.678 -584.864)" fill="#3d2a2b"/>
    <path id="Path_6878" data-name="Path 6878" d="M5119.127,591.063h-.928V585h.928Z" transform="translate(-5071.099 -584.864)" fill="#3d2a2b"/>
    <path id="Path_6879" data-name="Path 6879" d="M5269.9,591.063h-.923v-5.179H5267.3V585h4.271v.885H5269.9v5.179Z" transform="translate(-5218.46 -584.864)" fill="#3d2a2b"/>
    <path id="Path_6880" data-name="Path 6880" d="M5838.655,579.833a3.049,3.049,0,0,1-2.251-.918,3.246,3.246,0,0,1,0-4.5,3.2,3.2,0,0,1,4.494.006,3.234,3.234,0,0,1,0,4.491h0A3.048,3.048,0,0,1,5838.655,579.833Zm-1.57-1.526a2.24,2.24,0,0,0,3.135,0,2.419,2.419,0,0,0,0-3.284,2.24,2.24,0,0,0-3.135,0,2.422,2.422,0,0,0,0,3.284Z" transform="translate(-5780.04 -573.497)" fill="#3d2a2b"/>
    <path id="Path_6881" data-name="Path 6881" d="M6460.365,591.063h-.925l-.024-.037-2.921-4.629.027.905v3.761h-.923V585h1.057l2.809,4.44-.026-.9V585h.927Z" transform="translate(-6392.912 -584.864)" fill="#3d2a2b"/>
    <path id="path46" d="M3536.3,1445.334a4.19,4.19,0,1,0,4.258,4.19A4.155,4.155,0,0,0,3536.3,1445.334Zm0,6.728a2.543,2.543,0,1,1,2.395-2.538A2.434,2.434,0,0,1,3536.3,1452.063Zm-9.278-6.728a4.19,4.19,0,1,0,4.252,4.19A4.151,4.151,0,0,0,3527.021,1445.334Zm0,6.728a2.544,2.544,0,1,1,2.389-2.538A2.437,2.437,0,0,1,3527.021,1452.063Zm-11.041-5.444v1.781h4.3a3.679,3.679,0,0,1-.978,2.235,4.448,4.448,0,0,1-3.324,1.3,4.728,4.728,0,0,1,0-9.456,4.587,4.587,0,0,1,3.24,1.27l1.269-1.254a6.312,6.312,0,0,0-4.51-1.794,6.509,6.509,0,1,0,0,13.013,6.052,6.052,0,0,0,4.594-1.828,5.83,5.83,0,0,0,1.557-4.155,6,6,0,0,0-.1-1.112Zm45.149,1.38a3.925,3.925,0,0,0-3.63-2.664,4,4,0,0,0-4,4.19,4.121,4.121,0,0,0,4.2,4.188,4.212,4.212,0,0,0,3.533-1.857l-1.445-.952a2.428,2.428,0,0,1-2.087,1.159,2.157,2.157,0,0,1-2.052-1.27l5.669-2.318S3561.129,1448,3561.129,1448Zm-5.78,1.4a2.311,2.311,0,0,1,2.213-2.443,1.648,1.648,0,0,1,1.577.889Zm-4.606,4.064h1.863v-12.311h-1.863Zm-3.052-7.189h-.062a2.954,2.954,0,0,0-2.229-.934,4.191,4.191,0,0,0,0,8.378,2.905,2.905,0,0,0,2.229-.952h.062v.6a2.158,2.158,0,0,1-2.263,2.463,2.351,2.351,0,0,1-2.136-1.5l-1.62.669a4.043,4.043,0,0,0,3.757,2.478c2.185,0,4.029-1.271,4.029-4.362v-7.523h-1.766Zm-2.132,5.794a2.546,2.546,0,0,1,0-5.079,2.556,2.556,0,0,1,0,5.079Zm24.294-10.917H3565.4v12.311h1.859v-4.665h2.6a3.832,3.832,0,1,0,0-7.646Zm.05,5.934h-2.647v-4.221h2.647a2.112,2.112,0,1,1,0,4.221Zm11.488-1.769a3.494,3.494,0,0,0-3.313,1.884l1.649.683a1.765,1.765,0,0,1,1.7-.9,1.786,1.786,0,0,1,1.957,1.584v.129a4.124,4.124,0,0,0-1.941-.477c-1.776,0-3.586.966-3.586,2.77a2.863,2.863,0,0,0,3.09,2.712,2.638,2.638,0,0,0,2.374-1.206h.064v.952h1.795v-4.722C3585.176,1446.533,3583.526,1445.311,3581.39,1445.311Zm-.225,6.747c-.608,0-1.454-.3-1.454-1.043,0-.953,1.056-1.318,1.97-1.318a3.363,3.363,0,0,1,1.7.414A2.247,2.247,0,0,1,3581.165,1452.058Zm10.551-6.478-2.136,5.338h-.064l-2.208-5.338h-2l3.318,7.459-1.893,4.15h1.941l5.114-11.609Zm-16.753,7.877h1.864v-12.311h-1.864Z" transform="translate(-3480.948 -1430.591)" fill="#3d2a2b"/>
    <path id="Union_3" data-name="Union 3" d="M.358,19.8h0A1.564,1.564,0,0,1,0,18.7V1.41A1.571,1.571,0,0,1,.357.311h0Q.382.284.408.26L.413.254h0A1.275,1.275,0,0,1,1.96.261L13.146,6.712h0l.069.04h0l3.77,2.178a1.192,1.192,0,0,1,0,2.256l-3.77,2.173-.029.015L1.961,19.85a1.763,1.763,0,0,1-.866.264A.982.982,0,0,1,.358,19.8Z" transform="translate(0 2.962)" fill="#3d2a2b"/>
  </g>
</svg>
